<?xml version="1.0" standalone="no"?>
<!DOCTYPE svg PUBLIC "-//W3C//DTD SVG 1.1//EN" "http://www.w3.org/Graphics/SVG/1.1/DTD/svg11.dtd" >
<svg>
<metadata>
Created by FontForge 20120731 at Mon Nov 10 14:39:05 2014
 By Orthosie Webhosting
Copyright 2006 - 2007 Monotype Imaging Inc. All rights reserved.
</metadata>
<defs>
<font id="SlateProMediumItalic" horiz-adv-x="516" >
  <font-face 
    font-family="SlateProMediumItalic"
    font-weight="500"
    font-style="italic"
    font-stretch="normal"
    units-per-em="1000"
    panose-1="2 0 6 6 5 0 0 9 0 4"
    ascent="654"
    descent="-346"
    x-height="469"
    cap-height="635"
    bbox="-153 -198 1060 855"
    underline-thickness="50"
    underline-position="-50"
    slope="-12"
    unicode-range="U+0020-FE6A"
  />
<missing-glyph horiz-adv-x="500" 
d="M12 0v665h475v-665h-475zM88 618l162 -243l161 243h-323zM60 575v-484l161 242zM440 575l-162 -242l162 -243v485zM411 48l-161 242l-162 -242h323z" />
    <glyph glyph-name="IJ" unicode="IJ" horiz-adv-x="541" 
d="M235 635l-82 -635h-122l82 635h122zM510 635l-81 -628q-13 -97 -60 -140q-45 -40 -118 -40q-23 0 -45 5.5t-32 10.5l-10 5l29 84q18 -11 51 -11q30 0 43.5 21t18.5 62l82 631h122z" />
    <glyph glyph-name="ij" unicode="ij" horiz-adv-x="461" 
d="M234 613q0 -32 -21 -52.5t-55 -20.5q-30 0 -47.5 16.5t-17.5 44.5q0 32 21 53t55 21q30 0 47.5 -16.5t17.5 -45.5zM204 469l-61 -469h-118l61 469h118zM466 613q0 -32 -21 -52.5t-55 -20.5q-30 0 -47.5 16.5t-17.5 44.5q0 32 21 53t55 21q30 0 47.5 -16.5t17.5 -45.5z
M436 469l-61 -471q-13 -92 -45 -128q-38 -44 -111 -44q-20 0 -40 4.5t-30 9.5l-10 4l25 85q17 -10 37 -10q23 0 35 15q15 17 20 63l62 472h118z" />
    <glyph glyph-name="napostrophe" unicode="&#x27;n" horiz-adv-x="613" 
d="M96 664l96 -32q-7 -59 -50 -124t-100 -102l-63 39q100 92 117 219zM571 355q0 -33 -5 -75l-37 -280h-118l37 280q2 18 2 24q0 71 -65 71q-35 0 -64.5 -26.5t-45.5 -65.5l-37 -283h-118l61 469h108v-64q54 75 151 75q63 0 97 -34t34 -91z" />
    <glyph glyph-name="f_f" unicode="ff" horiz-adv-x="590" 
d="M378 644l-24 -79q-21 14 -56 14q-27 0 -42 -12q-18 -14 -22 -50l-6 -48h172l7 51q11 74 49 109q37 35 109 35q70 0 103 -20l-24 -79q-21 14 -56 14q-27 0 -42 -12q-18 -14 -22 -50l-6 -48h107l-12 -86h-106l-51 -393q-10 -82 -41 -120q-38 -44 -106 -44q-21 0 -40 4.5
t-28 8.5t-11 6l28 81q21 -8 31 -8q18 0 30 12t18 54l52 399h-172l-51 -393q-10 -82 -41 -120q-38 -44 -106 -44q-21 0 -40 4.5t-28 8.5t-11 6l28 81q21 -8 31 -8q18 0 30 12q13 14 18 54l52 399h-66l11 86h66l7 51q9 73 49 109q37 35 109 35q70 0 103 -20z" />
    <glyph glyph-name="fi" unicode="fi" horiz-adv-x="529" 
d="M534 613q0 -32 -21 -52.5t-55 -20.5q-30 0 -47.5 16.5t-17.5 44.5q0 32 21 53t55 21q30 0 47.5 -16.5t17.5 -45.5zM504 469l-61 -469h-118l61 469h118zM378 644l-24 -79q-21 14 -56 14q-27 0 -42 -12q-18 -14 -22 -50l-6 -48h107l-12 -86h-106l-51 -393q-10 -82 -41 -120
q-38 -44 -106 -44q-21 0 -40 4.5t-28 8.5t-11 6l28 81q21 -8 31 -8q18 0 30 12q13 14 18 54l52 399h-66l11 86h66l7 51q9 73 49 109q37 35 109 35q70 0 103 -20z" />
    <glyph glyph-name="fl" unicode="fl" horiz-adv-x="530" 
d="M529 655l-85 -655h-118l85 655h118zM378 644l-24 -79q-21 14 -56 14q-27 0 -42 -12q-18 -14 -22 -50l-6 -48h107l-12 -86h-106l-51 -393q-10 -82 -41 -120q-38 -44 -106 -44q-21 0 -40 4.5t-28 8.5t-11 6l28 81q21 -8 31 -8q18 0 30 12q13 14 18 54l52 399h-66l11 86h66
l7 51q9 73 49 109q37 35 109 35q70 0 103 -20z" />
    <glyph glyph-name="f_f_i" unicode="ffi" horiz-adv-x="819" 
d="M378 644l-24 -79q-21 14 -56 14q-27 0 -42 -12q-18 -14 -22 -50l-6 -48h172l7 51q11 74 49 109q37 35 109 35q70 0 103 -20l-24 -79q-21 14 -56 14q-27 0 -42 -12q-18 -14 -22 -50l-6 -48h107l-12 -86h-106l-51 -393q-10 -82 -41 -120q-38 -44 -106 -44q-21 0 -40 4.5
t-28 8.5t-11 6l28 81q21 -8 31 -8q18 0 30 12t18 54l52 399h-172l-51 -393q-10 -82 -41 -120q-38 -44 -106 -44q-21 0 -40 4.5t-28 8.5t-11 6l28 81q21 -8 31 -8q18 0 30 12q13 14 18 54l52 399h-66l11 86h66l7 51q9 73 49 109q37 35 109 35q70 0 103 -20zM824 613
q0 -32 -21 -52.5t-55 -20.5q-30 0 -47.5 16.5t-17.5 44.5q0 32 21 53t55 21q30 0 47.5 -16.5t17.5 -45.5zM794 469l-61 -469h-118l61 469h118z" />
    <glyph glyph-name="f_f_l" unicode="ffl" horiz-adv-x="820" 
d="M378 644l-24 -79q-21 14 -56 14q-27 0 -42 -12q-18 -14 -22 -50l-6 -48h172l7 51q11 74 49 109q37 35 109 35q70 0 103 -20l-24 -79q-21 14 -56 14q-27 0 -42 -12q-18 -14 -22 -50l-6 -48h107l-12 -86h-106l-51 -393q-10 -82 -41 -120q-38 -44 -106 -44q-21 0 -40 4.5
t-28 8.5t-11 6l28 81q21 -8 31 -8q18 0 30 12t18 54l52 399h-172l-51 -393q-10 -82 -41 -120q-38 -44 -106 -44q-21 0 -40 4.5t-28 8.5t-11 6l28 81q21 -8 31 -8q18 0 30 12q13 14 18 54l52 399h-66l11 86h66l7 51q9 73 49 109q37 35 109 35q70 0 103 -20zM819 655l-85 -655
h-118l85 655h118z" />
    <glyph glyph-name=".notdef" horiz-adv-x="500" 
d="M12 0v665h475v-665h-475zM88 618l162 -243l161 243h-323zM60 575v-484l161 242zM440 575l-162 -242l162 -243v485zM411 48l-161 242l-162 -242h323z" />
    <glyph glyph-name=".null" horiz-adv-x="0" 
 />
    <glyph glyph-name="nonmarkingreturn" horiz-adv-x="333" 
 />
    <glyph glyph-name="space" unicode=" " horiz-adv-x="161" 
 />
    <glyph glyph-name="exclam" unicode="!" horiz-adv-x="280" 
d="M244 639l-75 -442h-89l40 442h124zM175 62q0 -32 -20.5 -52.5t-53.5 -20.5q-29 0 -46 16.5t-17 45.5q0 33 20.5 53t53.5 20q29 0 46 -16.5t17 -45.5z" />
    <glyph glyph-name="quotedbl" unicode="&#x22;" horiz-adv-x="428" 
d="M390 650l-52 -244h-79l17 244h114zM220 650l-52 -244h-79l17 244h114z" />
    <glyph glyph-name="numbersign" unicode="#" 
d="M505 469l-12 -67h-89l-51 -159h91l-12 -67h-100l-55 -174h-72l55 174h-97l-55 -174h-72l55 174h-79l12 67h89l50 159h-91l12 67h101l55 173h72l-56 -173h98l55 173h72l-56 -173h80zM332 402h-97l-51 -159h98z" />
    <glyph glyph-name="dollar" unicode="$" 
d="M490 555l-55 -70q-49 49 -101 56l-24 -172l45 -24q103 -59 103 -151q0 -96 -83 -151q-49 -32 -119 -37l-14 -87h-69l14 89q-49 4 -97.5 31.5t-70.5 64.5l61 72q48 -64 122 -74l25 176l-22 10q-22 11 -36 19t-38.5 28.5t-37.5 51t-13 68.5q0 80 59.5 129.5t141.5 49.5
l9 62h69l-10 -66q36 -3 78 -24.5t63 -50.5zM271 545q-35 0 -60.5 -21t-25.5 -54q0 -50 50 -72l14 -7zM353 177q0 45 -53 72l-12 6l-23 -157q41 1 64.5 23.5t23.5 55.5z" />
    <glyph glyph-name="percent" unicode="%" horiz-adv-x="775" 
d="M725 200q0 -88 -46.5 -149.5t-121.5 -61.5q-67 0 -102 44t-35 122q0 87 46.5 148.5t121.5 61.5q67 0 102 -43.5t35 -121.5zM638 624l-452 -638l-49 37l452 637zM355 492q0 -87 -46.5 -148.5t-121.5 -61.5q-67 0 -102 43.5t-35 121.5q0 87 46.5 148.5t121.5 61.5
q67 0 102 -43.5t35 -121.5zM270 493q0 94 -57 94q-38 0 -58 -42t-20 -97q0 -95 56 -95q37 0 58 43t21 97zM640 201q0 94 -57 94q-38 0 -58 -42t-20 -97q0 -95 56 -95q37 0 58 43t21 97z" />
    <glyph glyph-name="ampersand" unicode="&#x26;" horiz-adv-x="636" 
d="M595 325q-15 -43 -48 -102q-27 -48 -60 -84l107 -139h-137l-46 63q-27 -22 -46 -34.5t-60 -26t-90 -13.5q-81 0 -133 45.5t-52 125.5q0 114 142 185l20 10l-7 9l-4 6l-8 10t-9.5 14t-10 19t-8.5 21.5t-6.5 24.5t-2.5 27q0 74 55 116.5t132 42.5q73 0 118.5 -38t45.5 -99
q0 -94 -107 -153l-35 -20l87 -123q21 26 41 63q26 47 38 85zM387 506q0 28 -18 45.5t-50 17.5t-52.5 -21.5t-20.5 -50.5q0 -33 31 -74l20 -25l28 18q62 40 62 90zM355 137l-115 156l-21 -13q-72 -44 -72 -105q0 -41 25.5 -65.5t66.5 -24.5q37 0 69 16.5t47 35.5z" />
    <glyph glyph-name="quotesingle" unicode="'" horiz-adv-x="258" 
d="M220 650l-52 -244h-79l17 244h114z" />
    <glyph glyph-name="parenleft" unicode="(" horiz-adv-x="323" 
d="M284 710l50 -50q-92 -90 -145 -206.5t-53 -248.5q0 -172 98 -307l-62 -49q-141 146 -141 361q0 293 253 500z" />
    <glyph glyph-name="parenright" unicode=")" horiz-adv-x="323" 
d="M299 349q0 -291 -253 -500l-50 51q91 89 144.5 205.5t53.5 248.5q0 104 -27 174.5t-71 133.5l61 48q142 -144 142 -361z" />
    <glyph glyph-name="asterisk" unicode="*" horiz-adv-x="403" 
d="M380 504l-117 -32l63 -94l-58 -41l-52 101l-76 -101l-48 49l84 86l-102 33l29 65l97 -45l7 117h71l-23 -117l102 44z" />
    <glyph glyph-name="plus" unicode="+" 
d="M466 350l-12 -87h-157l-24 -180h-87l23 180h-158l12 87h157l23 180h88l-24 -180h159z" />
    <glyph glyph-name="comma" unicode="," horiz-adv-x="258" 
d="M95 143l97 -31q-7 -60 -50.5 -125t-100.5 -102l-63 39q100 92 117 219z" />
    <glyph glyph-name="hyphen" unicode="-" horiz-adv-x="302" 
d="M273 279l-15 -85h-228l14 85h229z" />
    <glyph glyph-name="period" unicode="." horiz-adv-x="258" 
d="M172 64q0 -32 -20.5 -53t-53.5 -21q-29 0 -45.5 17t-16.5 46q0 33 20.5 53.5t53.5 20.5q29 0 45.5 -17t16.5 -46z" />
    <glyph glyph-name="slash" unicode="/" horiz-adv-x="455" 
d="M484 665l-452 -770l-62 38l453 770z" />
    <glyph glyph-name="zero" unicode="0" 
d="M486 391q0 -106 -30 -196.5t-91 -148t-141 -57.5q-99 0 -146 67.5t-47 187.5q0 106 29.5 196t90.5 147.5t142 57.5q99 0 146 -67.5t47 -186.5zM370 394q0 155 -85 155q-42 0 -74.5 -48.5t-48.5 -117t-16 -140.5q0 -156 86 -156q42 0 74.5 48.5t48 117.5t15.5 141z" />
    <glyph glyph-name="one" unicode="1" 
d="M386 636l-83 -636h-118l66 495q-46 -28 -97 -39l-22 85q46 12 84 31q56 26 78 64h92z" />
    <glyph glyph-name="two" unicode="2" 
d="M470 475q0 -24 -5 -45.5t-17 -42t-20.5 -34t-28 -32t-27 -25t-29.5 -23.5t-23 -18q-5 -4 -26.5 -21t-32 -25.5t-30 -25.5t-30.5 -28.5t-23 -26.5t-18 -28h286l-13 -100h-431q5 41 23.5 82t37 68t51.5 59.5t47 44.5t44 36q7 6 37.5 29t43 34.5t32.5 32t28.5 39t8.5 37.5
q0 47 -28.5 67.5t-71.5 20.5q-36 0 -73.5 -22t-61.5 -53l-65 70q85 100 215 100q84 0 142 -44t58 -126z" />
    <glyph glyph-name="three" unicode="3" 
d="M465 485q0 -66 -44 -106t-85 -45q52 -15 79 -53t27 -91q0 -93 -72 -150q-64 -51 -165 -51q-125 0 -205 106l70 70q58 -78 140 -78q49 0 83.5 26.5t34.5 76.5t-29.5 73t-78.5 23h-52l12 91h57q49 0 81.5 26t32.5 67q0 40 -27.5 61t-73.5 21q-73 0 -125 -58l-55 71l8.5 8.5
t24 19.5t39 24.5t52.5 19t66 8.5q91 0 148 -43t57 -117z" />
    <glyph glyph-name="four" unicode="4" 
d="M492 230l-12 -90h-76l-18 -140h-118l19 140h-285l13 96l317 399h137l-53 -405h76zM338 527l-229 -297h189z" />
    <glyph glyph-name="five" unicode="5" 
d="M488 635l-13 -97h-240l-42 -145q32 17 92 17q25 0 53.5 -9.5t57.5 -29.5t48 -59t19 -90q0 -105 -70.5 -168t-172.5 -63q-140 0 -210 96l65 70q19 -26 55 -49t83 -23q56 0 95.5 34t39.5 91t-32 85.5t-81 28.5q-27 0 -52 -10t-37 -20l-11 -9l-65 33l89 317h329z" />
    <glyph glyph-name="six" unicode="6" 
d="M493 590l-49 -77q-41 41 -115 41q-62 0 -105 -48q-50 -56 -64 -151q55 50 145 50q68 0 118 -44.5t50 -135.5q0 -102 -63 -169t-170 -67q-102 0 -151.5 73.5t-49.5 179.5q0 91 23.5 173t67.5 135q77 95 202 95q97 0 161 -55zM359 215q0 48 -25 75.5t-64 27.5
q-72 0 -118 -64q-2 -20 -2 -40q0 -61 25.5 -96.5t71.5 -35.5q49 0 80.5 37t31.5 96z" />
    <glyph glyph-name="seven" unicode="7" 
d="M500 635l-14 -92l-318 -543h-125l324 538h-306l13 97h426z" />
    <glyph glyph-name="eight" unicode="8" 
d="M488 489q0 -54 -37 -94t-83 -56q33 -13 66.5 -51.5t33.5 -99.5q0 -92 -69 -145.5t-164 -53.5q-93 0 -151 44t-58 126q0 68 41.5 112t95.5 61q-82 41 -82 135q0 80 63 129t154 49q88 0 139 -41.5t51 -114.5zM377 477q0 39 -23.5 61t-63.5 22t-68.5 -25.5t-28.5 -64.5
q0 -63 72 -86l24 -7l32 15q22 11 39 33t17 52zM355 183q0 36 -22.5 62t-57.5 38l-34 12l-22 -10q-36 -15 -57.5 -45t-21.5 -67q0 -42 29 -68t75 -26t78.5 30t32.5 74z" />
    <glyph glyph-name="nine" unicode="9" 
d="M477 394q0 -92 -23.5 -174t-66.5 -134q-80 -97 -202 -97q-52 0 -96 18t-69 43l50 75q13 -13 46 -28.5t72 -15.5q61 0 107 49q22 23 39.5 65.5t21.5 82.5q-8 -8 -23 -17.5t-49 -20.5t-72 -11q-71 0 -120 45t-49 137q0 101 64 167.5t170 66.5q101 0 150.5 -72.5
t49.5 -178.5zM367 426q0 58 -25.5 94t-72.5 36q-49 0 -80 -37t-31 -96q0 -48 25 -74.5t65 -26.5q36 0 67 18t49 43q3 22 3 43z" />
    <glyph glyph-name="colon" unicode=":" horiz-adv-x="258" 
d="M219 397q0 -33 -20.5 -54t-53.5 -21q-29 0 -46 17t-17 46q0 33 21 54t53 21q29 0 46 -17t17 -46zM172 63q0 -32 -20.5 -53t-53.5 -21q-29 0 -45.5 17t-16.5 46q0 33 20.5 54t53.5 21q28 0 45 -17.5t17 -46.5z" />
    <glyph glyph-name="semicolon" unicode=";" horiz-adv-x="258" 
d="M219 397q0 -33 -20.5 -54t-53.5 -21q-29 0 -46 17t-17 46q0 33 21 54t53 21q29 0 46 -17t17 -46zM192 112q-7 -60 -50.5 -125t-100.5 -102l-63 39q100 92 117 219z" />
    <glyph glyph-name="less" unicode="&#x3c;" 
d="M481 532l-13 -104l-318 -124l285 -126l-13 -97l-380 182l12 87z" />
    <glyph glyph-name="equal" unicode="=" 
d="M478 451l-12 -87h-403l12 87h403zM453 248l-12 -86h-403l12 86h403z" />
    <glyph glyph-name="greater" unicode="&#x3e;" 
d="M474 350l-12 -86l-427 -183l14 104l317 125l-285 125l13 97z" />
    <glyph glyph-name="question" unicode="?" horiz-adv-x="423" 
d="M418 498q0 -12 -2 -24t-4 -21.5t-7 -19.5t-8 -16.5t-11 -16t-10.5 -13t-12 -12.5t-12 -10.5t-12.5 -10t-11 -9.5l-72 -59q-17 -15 -24 -28q-6 -11 -9 -33l-5 -28h-96l3 35q6 51 15 71q11 21 45 49l67 53q17 13 25.5 21t17.5 23.5t9 32.5q0 30 -20.5 47.5t-60.5 17.5
q-68 0 -123 -57l-50 77q23 27 72 52.5t118 25.5q78 0 128 -41.5t50 -105.5zM220 63q0 -33 -20.5 -53.5t-53.5 -20.5q-28 0 -45 16.5t-17 45.5q0 33 20.5 53.5t53.5 20.5q28 0 45 -16.5t17 -45.5z" />
    <glyph glyph-name="at" unicode="@" horiz-adv-x="799" 
d="M746 301q0 -122 -69 -202q-57 -66 -137 -66q-42 0 -66 20.5t-27 47.5q-7 -10 -19 -22.5t-40 -27t-58 -14.5q-52 0 -83 36.5t-31 103.5q0 59 23 112t56 85q52 51 118 51q39 0 64 -15t33 -30l20 36h66l-67 -214q-14 -47 -14 -66q0 -42 40 -42q48 0 88 58.5t40 146.5
q0 100 -70 166.5t-184 66.5q-131 0 -219.5 -93.5t-88.5 -230.5q0 -131 75 -202t192 -71q60 0 114.5 11.5t79.5 23.5l24 12l19 -48q-8 -6 -30 -16.5t-84 -25.5t-132 -15q-139 0 -232 87.5t-93 246.5q0 81 30.5 152.5t81.5 121t118.5 78t141.5 28.5q160 0 248 -99
q72 -80 72 -191zM488 317q-4 18 -22.5 33t-45.5 15q-41 0 -76 -40q-20 -22 -35 -61.5t-15 -83.5q0 -77 59 -77q26 0 55 26t40 61z" />
    <glyph glyph-name="A" unicode="A" horiz-adv-x="554" 
d="M517 0h-126l-25 141h-229l-63 -141h-118l292 635h143zM351 236l-51 286l-125 -286h176z" />
    <glyph glyph-name="B" unicode="B" horiz-adv-x="555" 
d="M512 491q0 -60 -37 -101q-31 -36 -83 -49q43 -8 77 -37q42 -39 42 -106q0 -91 -69 -148q-61 -50 -178 -50h-233l82 635h214q79 0 127 -30q58 -36 58 -114zM390 469q0 39 -26 59q-23 15 -60 15h-81l-21 -168h82q47 0 73 22q33 26 33 72zM386 202q0 45 -31 69
q-26 20 -73 20h-92l-25 -199h94q54 0 88 24q39 31 39 86z" />
    <glyph glyph-name="C" unicode="C" horiz-adv-x="580" 
d="M577 498l-88 -52q-1 4 -3.5 10.5t-13 22.5t-25 28.5t-41 23t-59.5 10.5q-84 0 -136.5 -79.5t-52.5 -182.5q0 -92 41 -136.5t106 -44.5q53 0 95 30.5t64 63.5l73 -70q-89 -133 -247 -133q-111 0 -183 68.5t-72 212.5q0 161 89.5 268t224.5 107q50 0 92 -15t66 -34.5
t41 -42.5t22.5 -36.5t6.5 -18.5z" />
    <glyph glyph-name="D" unicode="D" horiz-adv-x="622" 
d="M587 364q0 -177 -104 -276q-93 -88 -244 -88h-208l82 635h211q119 0 187 -62q76 -69 76 -209zM463 364q0 93 -43 136q-37 38 -114 38h-83l-57 -438h83q97 0 154 68q60 69 60 196z" />
    <glyph glyph-name="E" unicode="E" horiz-adv-x="504" 
d="M495 635l-13 -97h-259l-20 -157h242l-13 -98h-242l-24 -184h270l-13 -99h-392l82 635h382z" />
    <glyph glyph-name="F" unicode="F" horiz-adv-x="470" 
d="M479 635l-13 -97h-243l-23 -177h225l-13 -98h-225l-34 -263h-122l82 635h366z" />
    <glyph glyph-name="G" unicode="G" horiz-adv-x="627" 
d="M578 343l-45 -343h-78l-5 60q-62 -71 -180 -71q-57 0 -102 24t-69 53q-64 77 -64 199q0 81 24.5 154t67.5 122q91 104 223 104q74 0 136 -34t87 -94l-83 -62q-44 88 -145 88q-85 0 -140 -87q-47 -74 -47 -178q0 -88 37 -134q39 -48 109 -48q40 0 78 19.5t58 46.5l12 85
h-122l12 96h236z" />
    <glyph glyph-name="H" unicode="H" horiz-adv-x="643" 
d="M612 635l-82 -635h-122l36 283h-254l-37 -283h-122l82 635h122l-32 -253h254l33 253h122z" />
    <glyph glyph-name="I" unicode="I" horiz-adv-x="267" 
d="M235 635l-82 -635h-122l82 635h122z" />
    <glyph glyph-name="J" unicode="J" horiz-adv-x="274" 
d="M243 635l-81 -628q-13 -97 -60 -140q-45 -40 -118 -40q-23 0 -45 5.5t-32 10.5l-10 5l29 84q18 -11 51 -11q30 0 43.5 21t18.5 62l82 631h122z" />
    <glyph glyph-name="K" unicode="K" horiz-adv-x="555" 
d="M586 635l-252 -264l177 -371h-138l-127 276l-66 -68l-27 -208h-122l82 635h122l-35 -270l244 270h142z" />
    <glyph glyph-name="L" unicode="L" horiz-adv-x="431" 
d="M400 99l-13 -99h-356l82 635h122l-69 -536h234z" />
    <glyph glyph-name="M" unicode="M" horiz-adv-x="763" 
d="M722 635l-57 -635h-116l49 473l-203 -473h-110l-80 473l-75 -473h-112l110 635h157l77 -485l203 485h157z" />
    <glyph glyph-name="N" unicode="N" horiz-adv-x="641" 
d="M609 635l-82 -635h-121l-201 462l-58 -462h-116l82 635h129l194 -446l58 446h115z" />
    <glyph glyph-name="O" unicode="O" horiz-adv-x="658" 
d="M623 375q0 -163 -90 -274.5t-241 -111.5q-120 0 -189 72t-69 199q0 163 90.5 274t241.5 111q120 0 188.5 -71.5t68.5 -198.5zM500 370q0 78 -37.5 126t-108.5 48q-82 0 -139 -77t-57 -197q0 -78 37.5 -126t108.5 -48q83 0 139.5 77t56.5 197z" />
    <glyph glyph-name="P" unicode="P" horiz-adv-x="532" 
d="M513 457q0 -112 -71 -174q-65 -58 -184 -58h-76l-29 -225h-122l82 635h198q90 0 144 -42q58 -47 58 -136zM392 440q0 54 -27 78q-26 23 -73 23h-69l-29 -222h72q56 0 88 29q38 33 38 92z" />
    <glyph glyph-name="Q" unicode="Q" horiz-adv-x="658" 
d="M623 375q0 -74 -18.5 -137.5t-47.5 -104t-56.5 -65.5t-53.5 -37q0 -28 18.5 -54.5t42.5 -38.5l-100 -73q-33 15 -55.5 51.5t-22.5 76.5q-19 -4 -38 -4q-119 0 -188.5 72t-69.5 199q0 163 90.5 274t241.5 111q120 0 188.5 -71.5t68.5 -198.5zM500 370q0 78 -37.5 126
t-108.5 48q-82 0 -139 -77t-57 -197q0 -78 37.5 -126t108.5 -48q83 0 139.5 77t56.5 197z" />
    <glyph glyph-name="R" unicode="R" horiz-adv-x="553" 
d="M520 460q0 -72 -41 -124t-105 -68l126 -268h-136l-111 251h-68l-32 -251h-122l82 635h212q90 0 142.5 -45t52.5 -130zM401 450q0 46 -27 70q-22 21 -69 21h-82l-26 -198h84q51 0 82 25q38 31 38 82z" />
    <glyph glyph-name="S" unicode="S" horiz-adv-x="495" 
d="M489 555l-65 -85q-28 32 -69 52.5t-84 20.5t-67 -19t-24 -45q0 -35 41 -64q3 -2 99 -55q56 -31 82 -57q47 -47 47 -113q0 -83 -58 -138q-67 -63 -171 -63q-77 0 -140 36q-26 15 -52 39.5t-33 40.5l71 71q25 -34 68 -58.5t92 -24.5t74 22t25 51q0 39 -45 69q-1 1 -85 47
q-50 28 -75 48q-61 50 -61 130q0 98 86 152q53 33 129 33q61 0 111 -20q67 -27 104 -70z" />
    <glyph glyph-name="T" unicode="T" horiz-adv-x="471" 
d="M504 635l-13 -96h-168l-70 -539h-122l70 539h-168l13 96h458z" />
    <glyph glyph-name="U" unicode="U" horiz-adv-x="616" 
d="M587 635l-50 -386q-16 -127 -74 -188q-67 -72 -198 -72q-115 0 -168 66q-40 50 -40 140q0 18 1 27t3.5 35t2.5 27l45 351h122l-50 -390q-3 -24 -3 -43q0 -35 11 -57q21 -46 92 -46q68 0 101 45q24 33 33 101l50 390h122z" />
    <glyph glyph-name="V" unicode="V" horiz-adv-x="533" 
d="M577 635l-284 -635h-139l-117 635h126l81 -495l208 495h125z" />
    <glyph glyph-name="W" unicode="W" horiz-adv-x="813" 
d="M844 635l-236 -635h-131l-49 485l-177 -485h-131l-69 635h124l40 -482l168 482h129l45 -482l164 482h123z" />
    <glyph glyph-name="X" unicode="X" horiz-adv-x="556" 
d="M579 635l-222 -309l153 -326h-140l-101 243l-164 -243h-140l242 327l-143 308h137l91 -226l148 226h139z" />
    <glyph glyph-name="Y" unicode="Y" horiz-adv-x="509" 
d="M556 635l-249 -377l-33 -258h-122l34 258l-151 377h129l95 -279l168 279h129z" />
    <glyph glyph-name="Z" unicode="Z" horiz-adv-x="538" 
d="M538 635l-12 -90l-364 -447h321l-13 -98h-470l12 89l369 450h-305l13 96h449z" />
    <glyph glyph-name="bracketleft" unicode="[" horiz-adv-x="323" 
d="M332 684l-9 -68h-111l-89 -685h112l-9 -68h-206l106 821h206z" />
    <glyph glyph-name="backslash" unicode="\" horiz-adv-x="409" 
d="M364 -75l-74 -26l-245 775l74 26z" />
    <glyph glyph-name="bracketright" unicode="]" horiz-adv-x="323" 
d="M303 684l-107 -821h-205l9 68h111l88 685h-111l9 68h206z" />
    <glyph glyph-name="asciicircum" unicode="^" 
d="M462 316h-99l-75 230l-136 -230h-99l199 319h95z" />
    <glyph glyph-name="underscore" unicode="_" 
d="M490 -78l-8 -59h-494l8 59h494z" />
    <glyph glyph-name="grave" unicode="`" horiz-adv-x="402" 
d="M283 525h-82l-83 130h114z" />
    <glyph glyph-name="a" unicode="a" horiz-adv-x="530" 
d="M505 469l-62 -469h-108v65q-2 -3 -5.5 -8t-16 -18.5t-27.5 -23.5t-39 -18t-51 -8q-76 0 -121 53.5t-45 149.5q0 117 64 202.5t166 85.5q27 0 49 -7.5t34.5 -19t21 -22.5t11.5 -19l3 -7l17 64h109zM360 270q0 54 -23 85t-61 31q-55 0 -90.5 -55t-35.5 -130
q0 -54 22.5 -85.5t61.5 -31.5q55 0 90.5 55t35.5 131z" />
    <glyph glyph-name="b" unicode="b" horiz-adv-x="532" 
d="M502 277q0 -117 -64 -202.5t-165 -85.5q-42 0 -72.5 18t-40.5 35l-9 18l-18 -60h-108l85 654h118l-32 -244q2 3 5.5 7.5t16 16.5t27.5 21.5t39 17t51 7.5q76 0 121.5 -53.5t45.5 -149.5zM381 270q0 54 -22.5 85t-62.5 31q-56 0 -91.5 -55t-35.5 -130q0 -54 23 -85.5
t62 -31.5q57 0 92 55t35 131z" />
    <glyph glyph-name="c" unicode="c" horiz-adv-x="440" 
d="M447 384l-68 -63q-41 61 -104 61q-58 0 -93.5 -43t-35.5 -123q0 -61 27.5 -93t71.5 -32q33 0 63 13.5t44 27.5l13 13l60 -70q-25 -33 -74 -59.5t-116 -26.5q-86 0 -145.5 55t-59.5 161q0 129 70 202t170 73q42 0 76 -12t55 -31t30.5 -30.5t15.5 -22.5z" />
    <glyph glyph-name="d" unicode="d" horiz-adv-x="532" 
d="M531 654l-85 -654h-108v65q-2 -3 -5.5 -8t-16 -18.5t-27 -23.5t-38.5 -18t-51 -8q-77 0 -123.5 52.5t-46.5 150.5q0 117 64 202.5t166 85.5q27 0 49 -7t35 -17.5t22 -21t12 -17.5l3 -7l32 244h118zM362 270q0 54 -22.5 85t-62.5 31q-56 0 -91.5 -55t-35.5 -130
q0 -54 23 -85.5t62 -31.5q57 0 92 55t35 131z" />
    <glyph glyph-name="e" unicode="e" horiz-adv-x="463" 
d="M445 347q0 -85 -105 -136q-78 -37 -193 -41q0 -37 24 -62.5t71 -25.5q42 0 80 19t53 34l45 -70q-71 -76 -200 -76q-78 0 -134 50.5t-56 160.5q0 119 71.5 199.5t173.5 80.5q85 0 127.5 -38t42.5 -95zM335 345q0 23 -15.5 38t-44.5 15q-39 0 -76.5 -33t-48.5 -109
q70 2 120 19q65 22 65 70z" />
    <glyph glyph-name="f" unicode="f" horiz-adv-x="300" 
d="M378 644l-24 -79q-21 14 -56 14q-27 0 -42 -12q-18 -14 -22 -50l-6 -48h107l-12 -86h-106l-51 -393q-10 -82 -41 -120q-38 -44 -106 -44q-21 0 -40 4.5t-28 8.5t-11 6l28 81q21 -8 31 -8q18 0 30 12q13 14 18 54l52 399h-66l11 86h66l7 51q9 73 49 109q37 35 109 35
q70 0 103 -20z" />
    <glyph glyph-name="g" unicode="g" horiz-adv-x="532" 
d="M507 469l-52 -396q-15 -118 -67 -174q-67 -73 -193 -73q-56 0 -109.5 21t-77.5 43l50 81q65 -50 137 -50q70 0 102 37q27 30 38 102l5 30q-51 -76 -140 -76q-72 0 -121 46.5t-49 144.5q0 110 64.5 192.5t165.5 82.5q27 0 49 -7t35 -17.5t22 -21t12 -17.5l3 -7l18 59h108z
M362 279q0 50 -23.5 78.5t-60.5 28.5q-59 0 -93.5 -52t-34.5 -117q0 -51 23.5 -79.5t61.5 -28.5q59 0 93 51.5t34 118.5z" />
    <glyph glyph-name="h" unicode="h" horiz-adv-x="518" 
d="M476 355q0 -33 -5 -75l-37 -280h-118l37 280q2 18 2 24q0 71 -65 71q-35 0 -64 -26.5t-46 -66.5l-37 -282h-118l85 654h118l-33 -249q58 75 150 75q61 0 96 -33t35 -92z" />
    <glyph glyph-name="i" unicode="i" horiz-adv-x="229" 
d="M234 613q0 -32 -21 -52.5t-55 -20.5q-30 0 -47.5 16.5t-17.5 44.5q0 32 21 53t55 21q30 0 47.5 -16.5t17.5 -45.5zM204 469l-61 -469h-118l61 469h118z" />
    <glyph glyph-name="j" unicode="j" horiz-adv-x="232" 
d="M237 613q0 -32 -21 -52.5t-55 -20.5q-30 0 -47.5 16.5t-17.5 44.5q0 32 21 53t55 21q30 0 47.5 -16.5t17.5 -45.5zM207 469l-61 -471q-13 -92 -45 -128q-38 -44 -111 -44q-20 0 -40 4.5t-30 9.5l-10 4l25 85q17 -10 37 -10q23 0 35 15q15 17 20 63l62 472h118z" />
    <glyph glyph-name="k" unicode="k" horiz-adv-x="478" 
d="M503 469l-198 -186l138 -283h-130l-93 201l-58 -54l-19 -147h-118l85 654h118l-48 -369l183 184h140z" />
    <glyph glyph-name="l" unicode="l" horiz-adv-x="229" 
d="M228 654l-85 -654h-118l85 654h118z" />
    <glyph glyph-name="m" unicode="m" horiz-adv-x="776" 
d="M734 355q0 -33 -5 -75l-36 -280h-119l37 280q2 18 2 25q0 70 -58 70q-32 0 -59 -27t-41 -66l-37 -282h-118l36 280q2 18 2 25q0 70 -58 70q-32 0 -59 -27t-41 -66l-37 -282h-118l61 469h108v-64q21 31 59.5 53t90.5 22q50 0 80.5 -25t35.5 -50q56 75 155 75
q56 0 87.5 -34t31.5 -91z" />
    <glyph glyph-name="n" unicode="n" horiz-adv-x="518" 
d="M476 355q0 -33 -5 -75l-37 -280h-118l37 280q2 18 2 24q0 71 -65 71q-35 0 -64.5 -26.5t-45.5 -65.5l-37 -283h-118l61 469h108v-64q54 75 151 75q63 0 97 -34t34 -91z" />
    <glyph glyph-name="o" unicode="o" horiz-adv-x="513" 
d="M483 274q0 -124 -70 -204.5t-184 -80.5q-96 0 -147.5 54.5t-51.5 151.5q0 124 70 204.5t184 80.5q96 0 147.5 -54.5t51.5 -151.5zM363 270q0 53 -21.5 85.5t-67.5 32.5q-57 0 -90.5 -56t-33.5 -132q0 -53 21.5 -85.5t67.5 -32.5q57 0 90.5 56t33.5 132z" />
    <glyph glyph-name="p" unicode="p" horiz-adv-x="532" 
d="M502 277q0 -117 -64 -202.5t-165 -85.5q-27 0 -49 7.5t-35 17.5t-22 20.5t-12 17.5l-3 8l-29 -226h-118l82 635h108v-59q2 3 5.5 7.5t16.5 16.5t28 21.5t39 17t51 7.5q76 0 121.5 -53.5t45.5 -149.5zM381 270q0 54 -22.5 85t-62.5 31q-56 0 -91.5 -55t-35.5 -130
q0 -54 23 -85.5t62 -31.5q57 0 92 55t35 131z" />
    <glyph glyph-name="q" unicode="q" horiz-adv-x="532" 
d="M507 469l-83 -635h-118l29 226l-5 -7.5t-15 -17t-26.5 -22t-38 -17t-50.5 -7.5q-77 0 -123.5 52.5t-46.5 150.5q0 117 64 202.5t166 85.5q27 0 49 -7t35 -17.5t22 -21t12 -17.5l3 -7l18 59h108zM362 270q0 54 -22.5 85t-62.5 31q-56 0 -91.5 -55t-35.5 -130
q0 -54 23 -85.5t62 -31.5q57 0 92 55t35 131z" />
    <glyph glyph-name="r" unicode="r" horiz-adv-x="351" 
d="M368 466l-28 -111q-17 9 -45 9q-39 0 -70 -31q-29 -29 -50 -83l-32 -250h-118l61 469h108v-74q19 38 51.5 61.5t69.5 23.5q18 0 31 -3.5t18 -6.5z" />
    <glyph glyph-name="s" unicode="s" horiz-adv-x="405" 
d="M398 403l-58 -73q-21 24 -55 39q-43 19 -75 19q-25 0 -39 -11t-14 -27q0 -25 38 -45q9 -5 31 -15t30 -14q48 -24 68 -41q45 -38 45 -98q0 -68 -54 -110q-48 -37 -125 -37q-66 0 -121 31q-16 9 -38 27t-33 34l63 70q23 -27 54 -46q40 -24 85 -24q28 0 41.5 13t13.5 30
q0 23 -36 42q-11 6 -39.5 19t-34.5 16q-39 19 -59 37q-42 37 -42 96q0 34 16 62.5t28 38t23 16.5q45 27 104 27q50 0 96 -19q51 -21 87 -57z" />
    <glyph glyph-name="t" unicode="t" horiz-adv-x="326" 
d="M341 469l-12 -85h-110l-26 -189q-7 -51 -7 -70q0 -14 9.5 -27t29.5 -13q13 0 28 2.5t23 4.5l9 3v-87q-47 -19 -105 -19q-61 0 -90 36q-24 30 -24 75q0 28 9 95l26 188h-65l12 86h64l31 122h104l-17 -122h111z" />
    <glyph glyph-name="u" unicode="u" horiz-adv-x="510" 
d="M485 469l-61 -469h-109v70q-11 -16 -27 -32t-48.5 -32.5t-69.5 -16.5q-71 0 -105 51q-21 32 -21 85q0 30 6 80l34 264h118l-37 -284q-2 -16 -2 -24q0 -31 12 -46q16 -20 45 -20q35 0 70 35q13 13 23.5 28.5t14.5 23.5l3 9l36 278h118z" />
    <glyph glyph-name="v" unicode="v" horiz-adv-x="452" 
d="M482 469l-228 -469h-122l-105 469h122l59 -347l152 347h122z" />
    <glyph glyph-name="w" unicode="w" horiz-adv-x="675" 
d="M698 469l-187 -469h-118l-45 330l-132 -330h-118l-66 469h118l32 -336l127 336h113l41 -336l118 336h117z" />
    <glyph glyph-name="x" unicode="x" horiz-adv-x="445" 
d="M468 469l-174 -229l123 -240h-128l-75 174l-120 -174h-127l186 239l-116 230h127l68 -165l108 165h128z" />
    <glyph glyph-name="y" unicode="y" horiz-adv-x="459" 
d="M487 469l-250 -514q-34 -69 -67 -99t-85 -30q-50 0 -98 26l36 85q22 -13 43 -13q33 0 50 41l18 45l-102 459h122l59 -347l152 347h122z" />
    <glyph glyph-name="z" unicode="z" horiz-adv-x="424" 
d="M426 469l-11 -82l-264 -298h236l-13 -89h-377l11 80l270 302h-223l12 87h359z" />
    <glyph glyph-name="braceleft" unicode="{" horiz-adv-x="323" 
d="M330 622l-56 -10q-21 -4 -32.5 -15t-14.5 -23t-9 -44l-24 -139q-10 -56 -30 -85t-66 -35v-4q67 -9 67 -90q0 -14 -1 -21l-14 -154q-1 -6 -1 -17q0 -20 7.5 -32.5t16 -16.5t25.5 -9l41 -12l-15 -64l-78 11q-91 13 -91 110q0 12 1 18l15 162q0 4 0.5 10t0.5 9q0 57 -45 57
h-20l13 82h20q30 0 44 24t21 69l24 144q10 60 34 91.5t78 37.5l83 10z" />
    <glyph glyph-name="bar" unicode="|" horiz-adv-x="320" 
d="M206 -137h-92v821h92v-821z" />
    <glyph glyph-name="braceright" unicode="}" horiz-adv-x="323" 
d="M307 310l-13 -82h-20q-30 0 -44 -24.5t-21 -69.5l-24 -144q-10 -60 -34 -91.5t-78 -37.5l-83 -10l-6 64l56 10q21 4 32.5 15t14.5 23t9 44l24 139q10 57 30 86t66 35v4q-67 9 -67 89q0 14 1 21l14 154q1 6 1 16q0 30 -12 41.5t-37 18.5l-41 11l15 64l78 -11
q91 -13 91 -110q0 -3 -0.5 -9t-0.5 -9l-15 -161q-1 -7 -1 -19q0 -30 10.5 -43.5t34.5 -13.5h20z" />
    <glyph glyph-name="asciitilde" unicode="~" 
d="M434 395l67 -36q-23 -64 -64.5 -105t-92.5 -41q-50 0 -98 41q-6 5 -20.5 17.5t-21 17.5t-18 10t-21.5 5q-46 0 -82 -89l-67 36q25 64 65.5 105t91.5 41q50 0 98 -41q4 -3 19.5 -17t21.5 -18t17.5 -9.5t21.5 -5.5q47 0 83 89z" />
    <glyph glyph-name="uni00A0" unicode="&#xa0;" horiz-adv-x="161" 
 />
    <glyph glyph-name="exclamdown" unicode="&#xa1;" horiz-adv-x="280" 
d="M220 418q0 -33 -20.5 -53t-53.5 -20q-29 0 -46 16.5t-17 45.5q0 32 20.5 52.5t53.5 20.5q29 0 46 -16.5t17 -45.5zM178 272l-40 -442h-124l75 442h89z" />
    <glyph glyph-name="cent" unicode="&#xa2;" 
d="M490 470l-64 -62q-2 5 -7.5 13t-26 23t-46.5 19l-38 -290q36 3 64 20t38 32l50 -70q-61 -72 -163 -78l-12 -90h-68l11 89q-67 8 -116 61t-49 151q0 117 65 192t164 81l11 84h68l-12 -89q50 -7 84.5 -34.5t46.5 -51.5zM280 464q-45 -9 -75.5 -55t-30.5 -114
q0 -105 69 -117z" />
    <glyph glyph-name="sterling" unicode="&#xa3;" 
d="M505 560l-60 -60q-9 17 -36 36.5t-66 19.5q-45 0 -72 -30.5t-27 -78.5q0 -52 8 -92l1 -5h159l-10 -65h-140q4 -22 4 -52q0 -37 -16 -78t-39 -64h244l-12 -91h-431l14 72l79 17q56 64 56 146l-4 50h-95l9 65h77l-1 8q-8 40 -8 92q0 90 64 146q56 49 140 49q65 0 107 -29.5
t55 -55.5z" />
    <glyph glyph-name="currency" unicode="&#xa4;" horiz-adv-x="546" 
d="M510 143l-61 -62l-82 82q-42 -28 -94 -28q-54 0 -93 28l-82 -82l-62 61l82 82q-27 40 -27 94q0 55 27 93l-82 82l61 62l82 -82q42 28 94 28q54 0 93 -28l82 82l62 -61l-82 -82q27 -40 27 -94q0 -55 -27 -93zM369 318q0 40 -28 68t-68 28t-68 -28t-28 -68t28 -68t68 -28
t68 28t28 68z" />
    <glyph glyph-name="yen" unicode="&#xa5;" 
d="M538 635l-181 -284h111l-9 -64h-143l-10 -16l-8 -57h152l-9 -64h-151l-20 -150h-112l19 150h-152l9 64h152l7 64l-4 9h-147l9 64h114l-104 284h129l74 -262l145 262h129z" />
    <glyph glyph-name="brokenbar" unicode="&#xa6;" horiz-adv-x="320" 
d="M206 357h-92v327h92v-327zM206 -137h-92v328h92v-328z" />
    <glyph glyph-name="section" unicode="&#xa7;" 
d="M486 579l-48 -74q-25 25 -63 40t-73 15q-38 0 -64 -14.5t-26 -45.5q0 -13 5.5 -23.5t11.5 -17t22.5 -14t24 -10.5t29.5 -10q56 -20 82 -34q74 -43 74 -120q0 -20 -5.5 -38t-13.5 -31t-18 -24.5t-18 -18t-15 -11.5l-7 -6q35 -35 35 -93q0 -42 -22 -77.5t-54 -56.5
q-59 -39 -143 -39q-65 0 -118.5 29.5t-71.5 54.5l55 70q65 -65 140 -65q47 0 75 17.5t28 50.5q0 7 -1.5 13t-3.5 10.5t-6.5 9t-7.5 8t-10.5 7.5t-11 6t-13 5.5t-13.5 5t-14.5 5.5t-14.5 5q-56 19 -82 35q-70 42 -70 116q0 75 77 130q-4 2 -10.5 10.5t-14.5 31t-8 49.5
q0 76 64 125q52 40 142 40q57 0 104.5 -21t71.5 -45zM363 246q0 44 -53 64l-61 22q-30 10 -52 22q-12 -7 -25.5 -25.5t-13.5 -42.5q0 -45 53 -64l60 -22q36 -13 52 -22q13 6 26.5 25t13.5 43z" />
    <glyph glyph-name="dieresis" unicode="&#xa8;" horiz-adv-x="402" 
d="M334 596q0 -27 -16.5 -44.5t-43.5 -17.5q-23 0 -37 14t-14 36q0 26 17 44t44 18q23 0 36.5 -14t13.5 -36zM178 596q0 -27 -16.5 -44.5t-43.5 -17.5q-23 0 -36.5 14t-13.5 36q0 26 17 44t43 18q23 0 36.5 -14t13.5 -36z" />
    <glyph glyph-name="copyright" unicode="&#xa9;" horiz-adv-x="728" 
d="M692 317q0 -140 -94 -234t-234 -94t-234.5 94t-94.5 234t94.5 234.5t234.5 94.5t234 -94.5t94 -234.5zM647 317q0 118 -82.5 200.5t-200.5 82.5t-200.5 -82.5t-82.5 -200.5q0 -117 82.5 -199.5t200.5 -82.5t200.5 82.5t82.5 199.5zM516 444l-42 -50q-34 47 -97 47
q-47 0 -79 -35.5t-32 -94.5q0 -57 30 -85t73 -28q34 0 60.5 15t38.5 31l36 -51q-56 -64 -142 -64q-74 0 -124.5 48t-50.5 134q0 87 56 142.5t131 55.5q96 0 142 -65z" />
    <glyph glyph-name="ordfeminine" unicode="&#xaa;" horiz-adv-x="387" 
d="M358 540q0 -7 -6 -55l-17 -120q-1 -7 -1 -20q0 -28 8 -52h-94q-5 22 -5 42q-12 -18 -39.5 -33t-64.5 -15q-42 0 -69.5 26.5t-27.5 72.5q0 74 84 105q51 19 138 19q2 13 2 23q0 44 -64 44q-56 0 -99 -29l-27 60q58 37 144 37q61 0 99.5 -26t38.5 -79zM256 456
q-49 0 -79 -11q-42 -15 -42 -48q0 -42 45 -42q20 0 40.5 14t26.5 26z" />
    <glyph glyph-name="guillemotleft" unicode="&#xab;" horiz-adv-x="465" 
d="M426 399l-142 -149l100 -160l-58 -41l-117 176l8 58l159 165zM236 399l-142 -149l100 -160l-58 -41l-117 176l9 58l158 165z" />
    <glyph glyph-name="logicalnot" unicode="&#xac;" 
d="M473 451l-36 -289h-87l28 219h-318l10 70h403z" />
    <glyph glyph-name="uni00AD" unicode="&#xad;" horiz-adv-x="302" 
d="M273 279l-15 -85h-228l14 85h229z" />
    <glyph glyph-name="registered" unicode="&#xae;" horiz-adv-x="683" 
d="M668 464q0 -129 -88.5 -217.5t-217.5 -88.5t-217.5 88.5t-88.5 217.5t88.5 217.5t217.5 88.5t217.5 -88.5t88.5 -217.5zM626 464q0 111 -76.5 187.5t-187.5 76.5t-187 -76.5t-76 -187.5t76 -187.5t187 -76.5t187.5 76.5t76.5 187.5zM496 537q0 -46 -24.5 -73.5
t-54.5 -32.5l62 -136h-71l-54 130h-40l-17 -130h-67l45 340h117q46 0 75 -24.5t29 -73.5zM426 535q0 47 -47 47h-45l-13 -103h44q29 0 45 15t16 41z" />
    <glyph glyph-name="macron" unicode="&#xaf;" horiz-adv-x="402" 
d="M343 623l-8 -66h-276l8 66h276z" />
    <glyph glyph-name="degree" unicode="&#xb0;" horiz-adv-x="360" 
d="M323 525q0 -62 -38.5 -102.5t-100.5 -40.5q-50 0 -83 35t-33 86q0 61 38.5 101.5t100.5 40.5q50 0 83 -35t33 -85zM268 520q0 30 -18.5 51.5t-48.5 21.5q-34 0 -56 -24.5t-22 -61.5q0 -30 18 -51t49 -21q34 0 56 24t22 61z" />
    <glyph glyph-name="plusminus" unicode="&#xb1;" 
d="M480 395l-12 -87h-157l-23 -175h-88l23 175h-158l12 87h157l23 175h87l-23 -175h159zM440 86l-11 -86h-403l11 86h403z" />
    <glyph glyph-name="two.superior" unicode="&#xb2;" horiz-adv-x="387" 
d="M379 669q0 -23 -7 -42t-25 -37t-25 -24t-31 -23q-5 -4 -21 -15.5t-24 -18t-20 -16.5t-20.5 -19.5t-15.5 -19.5h175l-10 -72h-289q15 96 138 184q4 3 15 10.5t15 11t13 10t13 10t10.5 9.5t9.5 10.5t6.5 10t5 10.5t1.5 10q0 19 -14.5 31t-41.5 12q-46 0 -92 -46l-37 56
q55 62 140 62q58 0 94.5 -28t36.5 -76z" />
    <glyph glyph-name="three.superior" unicode="&#xb3;" horiz-adv-x="387" 
d="M363 675q0 -39 -26.5 -62t-49.5 -28q24 -6 43 -26.5t19 -57.5q0 -57 -44.5 -92t-106.5 -35q-87 0 -132 64l47 50q35 -46 82 -46q30 0 51.5 15.5t21.5 43.5q0 50 -59 50h-39l8 63h39q30 0 48 13.5t18 35.5q0 45 -59 45q-39 0 -80 -34l-33 51q66 49 127 49q52 0 88.5 -25.5
t36.5 -73.5z" />
    <glyph glyph-name="acute" unicode="&#xb4;" horiz-adv-x="402" 
d="M298 655l-112 -130h-82l80 130h114z" />
    <glyph glyph-name="mu" unicode="&#xb5;" 
d="M491 469l-61 -469h-109v65q-55 -65 -131 -65q-11 0 -22 2.5t-16 5.5l-5 2l-23 -175h-118l83 634h118l-36 -278q-2 -20 -2 -27q0 -68 62 -68q34 0 63 28.5t42 65.5l37 279h118z" />
    <glyph glyph-name="paragraph" unicode="&#xb6;" 
d="M517 635l-9 -64h-51l-94 -725h-65l93 725h-69l-53 -414h-40q-96 0 -147 54.5t-51 152.5q0 122 69.5 196.5t191.5 74.5h225z" />
    <glyph glyph-name="periodcentered" unicode="&#xb7;" horiz-adv-x="258" 
d="M199 288q0 -33 -20.5 -54t-53.5 -21q-28 0 -45 17.5t-17 46.5q0 32 20.5 53t53.5 21q29 0 45.5 -17t16.5 -46z" />
    <glyph glyph-name="cedilla" unicode="&#xb8;" horiz-adv-x="402" 
d="M255 0l-61 -129h-114l93 129h82z" />
    <glyph glyph-name="one.superior" unicode="&#xb9;" horiz-adv-x="387" 
d="M317 771l-50 -389h-87l37 286q-24 -18 -72 -27l-16 64q30 6 67 25.5t53 40.5h68z" />
    <glyph glyph-name="ordmasculine" unicode="&#xba;" horiz-adv-x="387" 
d="M383 493q0 -90 -52.5 -148.5t-138.5 -58.5q-70 0 -110 39.5t-40 111.5q0 90 53 149t139 59q70 0 109.5 -39.5t39.5 -112.5zM289 485q0 91 -65 91q-41 0 -64.5 -40t-23.5 -88q0 -91 66 -91q41 0 64 40t23 88z" />
    <glyph glyph-name="guillemotright" unicode="&#xbb;" horiz-adv-x="465" 
d="M436 276l-9 -59l-158 -164l-50 48l142 149l-100 160l58 41zM246 276l-8 -59l-159 -164l-50 48l142 149l-100 160l58 41z" />
    <glyph glyph-name="onequarter" unicode="&#xbc;" horiz-adv-x="806" 
d="M616 625l-451 -637l-48 34l451 637zM753 145l-9 -67h-56l-10 -78h-84l10 78h-186l9 67l197 238h102l-30 -238h57zM634 313l-132 -168h111zM238 651l-50 -389h-87l37 286q-24 -18 -72 -27l-16 64q30 6 67 25.5t53 40.5h68z" />
    <glyph glyph-name="onehalf" unicode="&#xbd;" horiz-adv-x="817" 
d="M616 625l-451 -637l-48 34l451 637zM238 651l-50 -389h-87l37 286q-24 -18 -72 -27l-16 64q30 6 67 25.5t53 40.5h68zM767 287q0 -23 -7 -42t-25 -37t-25 -24t-31 -23q-5 -4 -21 -15.5t-24 -18t-20 -16.5t-20.5 -19.5t-15.5 -19.5h175l-10 -72h-289q15 96 138 184
q4 3 15 10.5t15 11t13 10t13 10t10.5 9.5t9.5 10.5t6.5 10t5 10.5t1.5 10q0 19 -14.5 31t-41.5 12q-46 0 -92 -46l-37 56q55 62 140 62q58 0 94.5 -28t36.5 -76z" />
    <glyph glyph-name="threequarters" unicode="&#xbe;" horiz-adv-x="853" 
d="M800 145l-9 -67h-56l-10 -78h-84l10 78h-186l9 67l197 238h102l-30 -238h57zM681 313l-132 -168h111zM679 625l-451 -637l-48 34l451 637zM327 555q0 -39 -26.5 -62t-49.5 -28q24 -6 43 -26.5t19 -57.5q0 -57 -44.5 -92t-106.5 -35q-87 0 -132 64l47 50q35 -46 82 -46
q30 0 51.5 15.5t21.5 43.5q0 50 -59 50h-39l8 63h39q30 0 48 13.5t18 35.5q0 45 -59 45q-39 0 -80 -34l-33 51q66 49 127 49q52 0 88.5 -25.5t36.5 -73.5z" />
    <glyph glyph-name="questiondown" unicode="&#xbf;" horiz-adv-x="423" 
d="M339 418q0 -33 -20.5 -53t-53.5 -20q-29 0 -46 16.5t-17 45.5q0 32 21 52.5t53 20.5q29 0 46 -16.5t17 -45.5zM373 -98q-23 -27 -72 -52.5t-118 -25.5q-78 0 -128 42t-50 106q0 30 7.5 54t26 45t26 27.5t30.5 25.5l71 59q18 14 25 28q5 11 9 33l4 28h96l-3 -35
q-4 -49 -15 -71q-12 -23 -45 -49l-67 -53q-17 -14 -25 -21t-17.5 -23t-9.5 -33q0 -30 21 -47.5t61 -17.5q67 0 122 57z" />
    <glyph glyph-name="Agrave" unicode="&#xc0;" horiz-adv-x="554" 
d="M517 0h-126l-25 141h-229l-63 -141h-118l292 635h143zM351 236l-51 286l-125 -286h176zM370 690h-82l-83 130h114z" />
    <glyph glyph-name="Aacute" unicode="&#xc1;" horiz-adv-x="554" 
d="M517 0h-126l-25 141h-229l-63 -141h-118l292 635h143zM351 236l-51 286l-125 -286h176zM471 820l-112 -130h-82l80 130h114z" />
    <glyph glyph-name="Acircumflex" unicode="&#xc2;" horiz-adv-x="554" 
d="M517 0h-126l-25 141h-229l-63 -141h-118l292 635h143zM351 236l-51 286l-125 -286h176zM459 690h-80l-45 80l-67 -80h-80l103 130h100z" />
    <glyph glyph-name="Atilde" unicode="&#xc3;" horiz-adv-x="554" 
d="M517 0h-126l-25 141h-229l-63 -141h-118l292 635h143zM351 236l-51 286l-125 -286h176zM434 812l56 -10q-8 -45 -37 -75.5t-68 -30.5q-35 0 -67 27q-3 2 -9.5 7.5t-10 8.5t-10 5.5t-12.5 2.5q-18 0 -29.5 -16.5t-14.5 -32.5l-56 9q8 45 37 76t68 31q35 0 67 -27
q3 -2 9.5 -7.5t10 -8.5t10 -5.5t12.5 -2.5q18 0 29.5 16.5t14.5 32.5z" />
    <glyph glyph-name="Adieresis" unicode="&#xc4;" horiz-adv-x="554" 
d="M517 0h-126l-25 141h-229l-63 -141h-118l292 635h143zM351 236l-51 286l-125 -286h176zM466 761q0 -27 -16.5 -44.5t-43.5 -17.5q-23 0 -37 14t-14 36q0 26 17 44t44 18q23 0 36.5 -14t13.5 -36zM310 761q0 -27 -16.5 -44.5t-43.5 -17.5q-23 0 -36.5 14t-13.5 36
q0 26 17 44t43 18q23 0 36.5 -14t13.5 -36z" />
    <glyph glyph-name="Aring" unicode="&#xc5;" horiz-adv-x="554" 
d="M517 0h-126l-25 141h-229l-63 -141h-118l292 635h143zM351 236l-51 286l-125 -286h176zM424 773q0 -40 -27.5 -66.5t-69.5 -26.5q-37 0 -60 22.5t-23 59.5q0 40 27.5 66.5t69.5 26.5q37 0 60 -22.5t23 -59.5zM377 771q0 18 -10.5 29.5t-28.5 11.5q-20 0 -33.5 -13
t-13.5 -35q0 -18 10.5 -29.5t28.5 -11.5q20 0 33.5 13.5t13.5 34.5z" />
    <glyph glyph-name="AE" unicode="&#xc6;" horiz-adv-x="826" 
d="M817 635l-13 -97h-243l-20 -157h226l-13 -98h-226l-24 -184h254l-13 -99h-376l22 165h-202l-106 -165h-137l428 635h443zM439 539h-12l-181 -279h157z" />
    <glyph glyph-name="Ccedilla" unicode="&#xc7;" horiz-adv-x="580" 
d="M577 498l-88 -52q-1 4 -3.5 10.5t-13 22.5t-25 28.5t-41 23t-59.5 10.5q-84 0 -136.5 -79.5t-52.5 -182.5q0 -92 41 -136.5t106 -44.5q53 0 95 30.5t64 63.5l73 -70q-79 -119 -216 -132l-46 -122h-115l76 125q-35 6 -66.5 21t-63.5 44.5t-51.5 84t-19.5 127.5
q0 161 89.5 268t224.5 107q50 0 92 -15t66 -34.5t41 -42.5t22.5 -36.5t6.5 -18.5z" />
    <glyph glyph-name="Egrave" unicode="&#xc8;" horiz-adv-x="504" 
d="M495 635l-13 -97h-259l-20 -157h242l-13 -98h-242l-24 -184h270l-13 -99h-392l82 635h382zM371 690h-82l-83 130h114z" />
    <glyph glyph-name="Eacute" unicode="&#xc9;" horiz-adv-x="504" 
d="M495 635l-13 -97h-259l-20 -157h242l-13 -98h-242l-24 -184h270l-13 -99h-392l82 635h382zM441 820l-112 -130h-82l80 130h114z" />
    <glyph glyph-name="Ecircumflex" unicode="&#xca;" horiz-adv-x="504" 
d="M495 635l-13 -97h-259l-20 -157h242l-13 -98h-242l-24 -184h270l-13 -99h-392l82 635h382zM445 690h-80l-45 80l-67 -80h-80l103 130h100z" />
    <glyph glyph-name="Edieresis" unicode="&#xcb;" horiz-adv-x="504" 
d="M495 635l-13 -97h-259l-20 -157h242l-13 -98h-242l-24 -184h270l-13 -99h-392l82 635h382zM452 761q0 -27 -16.5 -44.5t-43.5 -17.5q-23 0 -37 14t-14 36q0 26 17 44t44 18q23 0 36.5 -14t13.5 -36zM296 761q0 -27 -16.5 -44.5t-43.5 -17.5q-23 0 -36.5 14t-13.5 36
q0 26 17 44t43 18q23 0 36.5 -14t13.5 -36z" />
    <glyph glyph-name="Igrave" unicode="&#xcc;" horiz-adv-x="267" 
d="M235 635l-82 -635h-122l82 635h122zM238 690h-82l-83 130h114z" />
    <glyph glyph-name="Iacute" unicode="&#xcd;" horiz-adv-x="267" 
d="M235 635l-82 -635h-122l82 635h122zM314 820l-112 -130h-82l80 130h114z" />
    <glyph glyph-name="Icircumflex" unicode="&#xce;" horiz-adv-x="267" 
d="M235 635l-82 -635h-122l82 635h122zM315 690h-80l-45 80l-67 -80h-80l103 130h100z" />
    <glyph glyph-name="Idieresis" unicode="&#xcf;" horiz-adv-x="267" 
d="M235 635l-82 -635h-122l82 635h122zM322 761q0 -27 -16.5 -44.5t-43.5 -17.5q-23 0 -37 14t-14 36q0 26 17 44t44 18q23 0 36.5 -14t13.5 -36zM166 761q0 -27 -16.5 -44.5t-43.5 -17.5q-23 0 -36.5 14t-13.5 36q0 26 17 44t43 18q23 0 36.5 -14t13.5 -36z" />
    <glyph glyph-name="Eth" unicode="&#xd0;" horiz-adv-x="622" 
d="M587 364q0 -177 -104 -276q-93 -88 -244 -88h-208l38 288h-52l11 82h51l34 265h211q119 0 187 -62q76 -69 76 -209zM463 364q0 93 -43 136q-37 38 -114 38h-83l-22 -168h96l-12 -82h-95l-24 -188h83q97 0 154 68q60 69 60 196z" />
    <glyph glyph-name="Ntilde" unicode="&#xd1;" horiz-adv-x="641" 
d="M609 635l-82 -635h-121l-201 462l-58 -462h-116l82 635h129l194 -446l58 446h115zM475 812l56 -10q-8 -45 -37 -75.5t-68 -30.5q-35 0 -67 27q-3 2 -9.5 7.5t-10 8.5t-10 5.5t-12.5 2.5q-18 0 -29.5 -16.5t-14.5 -32.5l-56 9q8 45 37 76t68 31q35 0 67 -27q3 -2 9.5 -7.5
t10 -8.5t10 -5.5t12.5 -2.5q18 0 29.5 16.5t14.5 32.5z" />
    <glyph glyph-name="Ograve" unicode="&#xd2;" horiz-adv-x="658" 
d="M623 375q0 -163 -90 -274.5t-241 -111.5q-120 0 -189 72t-69 199q0 163 90.5 274t241.5 111q120 0 188.5 -71.5t68.5 -198.5zM500 370q0 78 -37.5 126t-108.5 48q-82 0 -139 -77t-57 -197q0 -78 37.5 -126t108.5 -48q83 0 139.5 77t56.5 197zM427 690h-82l-83 130h114z
" />
    <glyph glyph-name="Oacute" unicode="&#xd3;" horiz-adv-x="658" 
d="M623 375q0 -163 -90 -274.5t-241 -111.5q-120 0 -189 72t-69 199q0 163 90.5 274t241.5 111q120 0 188.5 -71.5t68.5 -198.5zM500 370q0 78 -37.5 126t-108.5 48q-82 0 -139 -77t-57 -197q0 -78 37.5 -126t108.5 -48q83 0 139.5 77t56.5 197zM524 820l-112 -130h-82
l80 130h114z" />
    <glyph glyph-name="Ocircumflex" unicode="&#xd4;" horiz-adv-x="658" 
d="M623 375q0 -163 -90 -274.5t-241 -111.5q-120 0 -189 72t-69 199q0 163 90.5 274t241.5 111q120 0 188.5 -71.5t68.5 -198.5zM500 370q0 78 -37.5 126t-108.5 48q-82 0 -139 -77t-57 -197q0 -78 37.5 -126t108.5 -48q83 0 139.5 77t56.5 197zM511 690h-80l-45 80l-67 -80
h-80l103 130h100z" />
    <glyph glyph-name="Otilde" unicode="&#xd5;" horiz-adv-x="658" 
d="M623 375q0 -163 -90 -274.5t-241 -111.5q-120 0 -189 72t-69 199q0 163 90.5 274t241.5 111q120 0 188.5 -71.5t68.5 -198.5zM500 370q0 78 -37.5 126t-108.5 48q-82 0 -139 -77t-57 -197q0 -78 37.5 -126t108.5 -48q83 0 139.5 77t56.5 197zM486 812l56 -10
q-8 -45 -37 -75.5t-68 -30.5q-35 0 -67 27q-3 2 -9.5 7.5t-10 8.5t-10 5.5t-12.5 2.5q-18 0 -29.5 -16.5t-14.5 -32.5l-56 9q8 45 37 76t68 31q35 0 67 -27q3 -2 9.5 -7.5t10 -8.5t10 -5.5t12.5 -2.5q18 0 29.5 16.5t14.5 32.5z" />
    <glyph glyph-name="Odieresis" unicode="&#xd6;" horiz-adv-x="658" 
d="M623 375q0 -163 -90 -274.5t-241 -111.5q-120 0 -189 72t-69 199q0 163 90.5 274t241.5 111q120 0 188.5 -71.5t68.5 -198.5zM500 370q0 78 -37.5 126t-108.5 48q-82 0 -139 -77t-57 -197q0 -78 37.5 -126t108.5 -48q83 0 139.5 77t56.5 197zM518 761q0 -27 -16.5 -44.5
t-43.5 -17.5q-23 0 -37 14t-14 36q0 26 17 44t44 18q23 0 36.5 -14t13.5 -36zM362 761q0 -27 -16.5 -44.5t-43.5 -17.5q-23 0 -36.5 14t-13.5 36q0 26 17 44t43 18q23 0 36.5 -14t13.5 -36z" />
    <glyph glyph-name="multiply" unicode="&#xd7;" 
d="M460 433l-142 -131l110 -132l-67 -62l-109 132l-140 -132l-57 68l141 131l-109 132l67 62l109 -132l140 132z" />
    <glyph glyph-name="Oslash" unicode="&#xd8;" horiz-adv-x="658" 
d="M647 624l-70 -79q46 -67 46 -170q0 -163 -90 -274.5t-241 -111.5q-97 0 -164 50l-66 -74l-52 46l70 79q-46 70 -46 170q0 163 90.5 274t241.5 111q99 0 163 -49l66 74zM451 508q-36 36 -97 36q-82 0 -139 -77t-57 -197q0 -44 12 -79zM500 370q0 40 -11 75l-280 -316
q36 -33 95 -33q83 0 139.5 77t56.5 197z" />
    <glyph glyph-name="Ugrave" unicode="&#xd9;" horiz-adv-x="616" 
d="M587 635l-50 -386q-16 -127 -74 -188q-67 -72 -198 -72q-115 0 -168 66q-40 50 -40 140q0 18 1 27t3.5 35t2.5 27l45 351h122l-50 -390q-3 -24 -3 -43q0 -35 11 -57q21 -46 92 -46q68 0 101 45q24 33 33 101l50 390h122zM407 690h-82l-83 130h114z" />
    <glyph glyph-name="Uacute" unicode="&#xda;" horiz-adv-x="616" 
d="M587 635l-50 -386q-16 -127 -74 -188q-67 -72 -198 -72q-115 0 -168 66q-40 50 -40 140q0 18 1 27t3.5 35t2.5 27l45 351h122l-50 -390q-3 -24 -3 -43q0 -35 11 -57q21 -46 92 -46q68 0 101 45q24 33 33 101l50 390h122zM492 820l-112 -130h-82l80 130h114z" />
    <glyph glyph-name="Ucircumflex" unicode="&#xdb;" horiz-adv-x="616" 
d="M587 635l-50 -386q-16 -127 -74 -188q-67 -72 -198 -72q-115 0 -168 66q-40 50 -40 140q0 18 1 27t3.5 35t2.5 27l45 351h122l-50 -390q-3 -24 -3 -43q0 -35 11 -57q21 -46 92 -46q68 0 101 45q24 33 33 101l50 390h122zM490 690h-80l-45 80l-67 -80h-80l103 130h100z
" />
    <glyph glyph-name="Udieresis" unicode="&#xdc;" horiz-adv-x="616" 
d="M587 635l-50 -386q-16 -127 -74 -188q-67 -72 -198 -72q-115 0 -168 66q-40 50 -40 140q0 18 1 27t3.5 35t2.5 27l45 351h122l-50 -390q-3 -24 -3 -43q0 -35 11 -57q21 -46 92 -46q68 0 101 45q24 33 33 101l50 390h122zM495 761q0 -27 -16.5 -44.5t-43.5 -17.5
q-23 0 -37 14t-14 36q0 26 17 44t44 18q23 0 36.5 -14t13.5 -36zM339 761q0 -27 -16.5 -44.5t-43.5 -17.5q-23 0 -36.5 14t-13.5 36q0 26 17 44t43 18q23 0 36.5 -14t13.5 -36z" />
    <glyph glyph-name="Yacute" unicode="&#xdd;" horiz-adv-x="509" 
d="M556 635l-249 -377l-33 -258h-122l34 258l-151 377h129l95 -279l168 279h129zM445 820l-112 -130h-82l80 130h114z" />
    <glyph glyph-name="Thorn" unicode="&#xde;" horiz-adv-x="532" 
d="M498 359q0 -110 -69 -171q-66 -59 -185 -59h-75l-16 -129h-122l82 635h122l-13 -100h75q92 0 145 -44q56 -45 56 -132zM378 342q0 50 -27 75q-24 24 -74 24h-67l-28 -218h69q55 0 90 30q37 34 37 89z" />
    <glyph glyph-name="germandbls" unicode="&#xdf;" horiz-adv-x="537" 
d="M507 215q0 -108 -62 -170q-55 -55 -145 -55q-27 0 -49.5 4.5t-31.5 9.5l-9 4l25 82q15 -10 55 -10q36 0 67 32.5t31 97.5q0 58 -27 83.5t-67 25.5h-30l11 86h30q37 0 61 26t24 64q0 83 -73 83q-75 0 -89 -113l-62 -475q-12 -85 -41 -120q-36 -43 -106 -43q-20 0 -40 4.5
t-29 8.5l-10 5l28 81q22 -8 32 -8q18 0 30 12t17 54l52 399h-64l12 86h63l4 26q12 89 75 133q50 34 136 34q80 0 130 -44q49 -43 49 -108q0 -63 -35.5 -98.5t-76.5 -45.5q45 -8 80 -49.5t35 -101.5z" />
    <glyph glyph-name="agrave" unicode="&#xe0;" horiz-adv-x="530" 
d="M505 469l-62 -469h-108v65q-2 -3 -5.5 -8t-16 -18.5t-27.5 -23.5t-39 -18t-51 -8q-76 0 -121 53.5t-45 149.5q0 117 64 202.5t166 85.5q27 0 49 -7.5t34.5 -19t21 -22.5t11.5 -19l3 -7l17 64h109zM360 270q0 54 -23 85t-61 31q-55 0 -90.5 -55t-35.5 -130
q0 -54 22.5 -85.5t61.5 -31.5q55 0 90.5 55t35.5 131zM344 525h-82l-83 130h114z" />
    <glyph glyph-name="aacute" unicode="&#xe1;" horiz-adv-x="530" 
d="M505 469l-62 -469h-108v65q-2 -3 -5.5 -8t-16 -18.5t-27.5 -23.5t-39 -18t-51 -8q-76 0 -121 53.5t-45 149.5q0 117 64 202.5t166 85.5q27 0 49 -7.5t34.5 -19t21 -22.5t11.5 -19l3 -7l17 64h109zM360 270q0 54 -23 85t-61 31q-55 0 -90.5 -55t-35.5 -130
q0 -54 22.5 -85.5t61.5 -31.5q55 0 90.5 55t35.5 131zM440 655l-112 -130h-82l80 130h114z" />
    <glyph glyph-name="acircumflex" unicode="&#xe2;" horiz-adv-x="530" 
d="M505 469l-62 -469h-108v65q-2 -3 -5.5 -8t-16 -18.5t-27.5 -23.5t-39 -18t-51 -8q-76 0 -121 53.5t-45 149.5q0 117 64 202.5t166 85.5q27 0 49 -7.5t34.5 -19t21 -22.5t11.5 -19l3 -7l17 64h109zM360 270q0 54 -23 85t-61 31q-55 0 -90.5 -55t-35.5 -130
q0 -54 22.5 -85.5t61.5 -31.5q55 0 90.5 55t35.5 131zM443 525h-80l-45 80l-67 -80h-80l103 130h100z" />
    <glyph glyph-name="atilde" unicode="&#xe3;" horiz-adv-x="530" 
d="M505 469l-62 -469h-108v65q-2 -3 -5.5 -8t-16 -18.5t-27.5 -23.5t-39 -18t-51 -8q-76 0 -121 53.5t-45 149.5q0 117 64 202.5t166 85.5q27 0 49 -7.5t34.5 -19t21 -22.5t11.5 -19l3 -7l17 64h109zM360 270q0 54 -23 85t-61 31q-55 0 -90.5 -55t-35.5 -130
q0 -54 22.5 -85.5t61.5 -31.5q55 0 90.5 55t35.5 131zM413 647l56 -10q-8 -45 -37 -75.5t-68 -30.5q-35 0 -67 27q-3 2 -9.5 7.5t-10 8.5t-10 5.5t-12.5 2.5q-18 0 -29.5 -16.5t-14.5 -32.5l-56 9q8 45 37 76t68 31q35 0 67 -27q3 -2 9.5 -7.5t10 -8.5t10 -5.5t12.5 -2.5
q18 0 29.5 16.5t14.5 32.5z" />
    <glyph glyph-name="adieresis" unicode="&#xe4;" horiz-adv-x="530" 
d="M505 469l-62 -469h-108v65q-2 -3 -5.5 -8t-16 -18.5t-27.5 -23.5t-39 -18t-51 -8q-76 0 -121 53.5t-45 149.5q0 117 64 202.5t166 85.5q27 0 49 -7.5t34.5 -19t21 -22.5t11.5 -19l3 -7l17 64h109zM360 270q0 54 -23 85t-61 31q-55 0 -90.5 -55t-35.5 -130
q0 -54 22.5 -85.5t61.5 -31.5q55 0 90.5 55t35.5 131zM448 596q0 -27 -16.5 -44.5t-43.5 -17.5q-23 0 -37 14t-14 36q0 26 17 44t44 18q23 0 36.5 -14t13.5 -36zM292 596q0 -27 -16.5 -44.5t-43.5 -17.5q-23 0 -36.5 14t-13.5 36q0 26 17 44t43 18q23 0 36.5 -14t13.5 -36z
" />
    <glyph glyph-name="aring" unicode="&#xe5;" horiz-adv-x="530" 
d="M505 469l-62 -469h-108v65q-2 -3 -5.5 -8t-16 -18.5t-27.5 -23.5t-39 -18t-51 -8q-76 0 -121 53.5t-45 149.5q0 117 64 202.5t166 85.5q27 0 49 -7.5t34.5 -19t21 -22.5t11.5 -19l3 -7l17 64h109zM360 270q0 54 -23 85t-61 31q-55 0 -90.5 -55t-35.5 -130
q0 -54 22.5 -85.5t61.5 -31.5q55 0 90.5 55t35.5 131zM401 608q0 -40 -27.5 -66.5t-69.5 -26.5q-37 0 -60 22.5t-23 59.5q0 40 27.5 66.5t69.5 26.5q37 0 60 -22.5t23 -59.5zM354 606q0 18 -10.5 29.5t-28.5 11.5q-21 0 -34 -13.5t-13 -34.5q0 -18 10.5 -29.5t28.5 -11.5
q21 0 34 13t13 35z" />
    <glyph glyph-name="ae" unicode="&#xe6;" horiz-adv-x="740" 
d="M722 350q0 -75 -67.5 -118t-201.5 -43q-5 0 -15 0.5t-14 0.5v-12q0 -44 23 -70t72 -26q44 0 81 19t52 34l45 -70q-71 -76 -200 -76q-59 0 -97 22.5t-55 48.5q-63 -71 -175 -71q-66 0 -104.5 33.5t-38.5 99.5q0 35 14.5 62.5t35.5 45t52 30t56.5 18.5t57.5 9.5t46.5 4
t30.5 0.5q5 25 5 37q0 28 -21 45t-64 17q-67 0 -130 -41l-38 78q83 52 188 52q112 0 140 -70q57 70 160 70q76 0 119 -37.5t43 -92.5zM612 345q0 23 -16 38t-45 15q-37 0 -72 -30t-49 -97q12 -1 29 -1q65 0 109 18t44 57zM314 135q-6 19 -6 76q-167 0 -167 -82q0 -29 20 -43
t51 -14q29 0 61.5 20t40.5 43z" />
    <glyph glyph-name="ccedilla" unicode="&#xe7;" horiz-adv-x="440" 
d="M447 384l-68 -63q-41 61 -104 61q-58 0 -93.5 -43t-35.5 -123q0 -61 27.5 -93t71.5 -32q33 0 63 13.5t44 27.5l13 13l60 -70q-23 -29 -65 -54.5t-99 -30.5l-46 -120h-115l78 126q-24 6 -46 18t-47 34.5t-40 63t-15 93.5q0 129 70 202t170 73q42 0 76 -12t55 -31
t30.5 -30.5t15.5 -22.5z" />
    <glyph glyph-name="egrave" unicode="&#xe8;" horiz-adv-x="463" 
d="M445 347q0 -85 -105 -136q-78 -37 -193 -41q0 -37 24 -62.5t71 -25.5q42 0 80 19t53 34l45 -70q-71 -76 -200 -76q-78 0 -134 50.5t-56 160.5q0 119 71.5 199.5t173.5 80.5q85 0 127.5 -38t42.5 -95zM335 345q0 23 -15.5 38t-44.5 15q-39 0 -76.5 -33t-48.5 -109
q70 2 120 19q65 22 65 70zM335 525h-82l-83 130h114z" />
    <glyph glyph-name="eacute" unicode="&#xe9;" horiz-adv-x="463" 
d="M445 347q0 -85 -105 -136q-78 -37 -193 -41q0 -37 24 -62.5t71 -25.5q42 0 80 19t53 34l45 -70q-71 -76 -200 -76q-78 0 -134 50.5t-56 160.5q0 119 71.5 199.5t173.5 80.5q85 0 127.5 -38t42.5 -95zM335 345q0 23 -15.5 38t-44.5 15q-39 0 -76.5 -33t-48.5 -109
q70 2 120 19q65 22 65 70zM424 655l-112 -130h-82l80 130h114z" />
    <glyph glyph-name="ecircumflex" unicode="&#xea;" horiz-adv-x="463" 
d="M445 347q0 -85 -105 -136q-78 -37 -193 -41q0 -37 24 -62.5t71 -25.5q42 0 80 19t53 34l45 -70q-71 -76 -200 -76q-78 0 -134 50.5t-56 160.5q0 119 71.5 199.5t173.5 80.5q85 0 127.5 -38t42.5 -95zM335 345q0 23 -15.5 38t-44.5 15q-39 0 -76.5 -33t-48.5 -109
q70 2 120 19q65 22 65 70zM425 525h-80l-45 80l-67 -80h-80l103 130h100z" />
    <glyph glyph-name="edieresis" unicode="&#xeb;" horiz-adv-x="463" 
d="M445 347q0 -85 -105 -136q-78 -37 -193 -41q0 -37 24 -62.5t71 -25.5q42 0 80 19t53 34l45 -70q-71 -76 -200 -76q-78 0 -134 50.5t-56 160.5q0 119 71.5 199.5t173.5 80.5q85 0 127.5 -38t42.5 -95zM335 345q0 23 -15.5 38t-44.5 15q-39 0 -76.5 -33t-48.5 -109
q70 2 120 19q65 22 65 70zM429 596q0 -27 -16.5 -44.5t-43.5 -17.5q-23 0 -37 14t-14 36q0 26 17 44t44 18q23 0 36.5 -14t13.5 -36zM273 596q0 -27 -16.5 -44.5t-43.5 -17.5q-23 0 -36.5 14t-13.5 36q0 26 17 44t43 18q23 0 36.5 -14t13.5 -36z" />
    <glyph glyph-name="igrave" unicode="&#xec;" horiz-adv-x="229" 
d="M204 469l-61 -469h-118l61 469h118zM210 525h-82l-83 130h114z" />
    <glyph glyph-name="iacute" unicode="&#xed;" horiz-adv-x="229" 
d="M204 469l-61 -469h-118l61 469h118zM287 655l-112 -130h-82l80 130h114z" />
    <glyph glyph-name="icircumflex" unicode="&#xee;" horiz-adv-x="229" 
d="M204 469l-61 -469h-118l61 469h118zM287 525h-80l-45 80l-67 -80h-80l103 130h100z" />
    <glyph glyph-name="idieresis" unicode="&#xef;" horiz-adv-x="229" 
d="M204 469l-61 -469h-118l61 469h118zM294 596q0 -27 -16.5 -44.5t-43.5 -17.5q-23 0 -37 14t-14 36q0 26 17 44t44 18q23 0 36.5 -14t13.5 -36zM138 596q0 -27 -16.5 -44.5t-43.5 -17.5q-23 0 -36.5 14t-13.5 36q0 26 17 44t43 18q23 0 36.5 -14t13.5 -36z" />
    <glyph glyph-name="eth" unicode="&#xf0;" horiz-adv-x="513" 
d="M484 274q0 -124 -71 -204.5t-182 -80.5q-97 0 -149.5 53.5t-52.5 149.5q0 108 65 175t159 67q41 0 69 -14t37 -30q-20 75 -78 138l-84 -58l-34 46l76 52q-35 30 -73 47l38 63q61 -24 105 -59l88 61l34 -46l-76 -52q47 -47 77 -102q52 -95 52 -206zM361 244q0 47 -21.5 77
t-66.5 30q-52 0 -88 -47.5t-36 -115.5q0 -46 22 -76.5t66 -30.5q52 0 88 47.5t36 115.5z" />
    <glyph glyph-name="ntilde" unicode="&#xf1;" horiz-adv-x="518" 
d="M476 355q0 -33 -5 -75l-37 -280h-118l37 280q2 18 2 24q0 71 -65 71q-35 0 -64.5 -26.5t-45.5 -65.5l-37 -283h-118l61 469h108v-64q54 75 151 75q63 0 97 -34t34 -91zM405 647l56 -10q-8 -45 -37 -75.5t-68 -30.5q-35 0 -67 27q-3 2 -9.5 7.5t-10 8.5t-10 5.5t-12.5 2.5
q-18 0 -29.5 -16.5t-14.5 -32.5l-56 9q8 45 37 76t68 31q35 0 67 -27q3 -2 9.5 -7.5t10 -8.5t10 -5.5t12.5 -2.5q18 0 29.5 16.5t14.5 32.5z" />
    <glyph glyph-name="ograve" unicode="&#xf2;" horiz-adv-x="513" 
d="M483 274q0 -124 -70 -204.5t-184 -80.5q-96 0 -147.5 54.5t-51.5 151.5q0 124 70 204.5t184 80.5q96 0 147.5 -54.5t51.5 -151.5zM363 270q0 53 -21.5 85.5t-67.5 32.5q-57 0 -90.5 -56t-33.5 -132q0 -53 21.5 -85.5t67.5 -32.5q57 0 90.5 56t33.5 132zM338 525h-82
l-83 130h114z" />
    <glyph glyph-name="oacute" unicode="&#xf3;" horiz-adv-x="513" 
d="M483 274q0 -124 -70 -204.5t-184 -80.5q-96 0 -147.5 54.5t-51.5 151.5q0 124 70 204.5t184 80.5q96 0 147.5 -54.5t51.5 -151.5zM363 270q0 53 -21.5 85.5t-67.5 32.5q-57 0 -90.5 -56t-33.5 -132q0 -53 21.5 -85.5t67.5 -32.5q57 0 90.5 56t33.5 132zM436 655
l-112 -130h-82l80 130h114z" />
    <glyph glyph-name="ocircumflex" unicode="&#xf4;" horiz-adv-x="513" 
d="M483 274q0 -124 -70 -204.5t-184 -80.5q-96 0 -147.5 54.5t-51.5 151.5q0 124 70 204.5t184 80.5q96 0 147.5 -54.5t51.5 -151.5zM363 270q0 53 -21.5 85.5t-67.5 32.5q-57 0 -90.5 -56t-33.5 -132q0 -53 21.5 -85.5t67.5 -32.5q57 0 90.5 56t33.5 132zM427 525h-80
l-45 80l-67 -80h-80l103 130h100z" />
    <glyph glyph-name="otilde" unicode="&#xf5;" horiz-adv-x="513" 
d="M483 274q0 -124 -70 -204.5t-184 -80.5q-96 0 -147.5 54.5t-51.5 151.5q0 124 70 204.5t184 80.5q96 0 147.5 -54.5t51.5 -151.5zM363 270q0 53 -21.5 85.5t-67.5 32.5q-57 0 -90.5 -56t-33.5 -132q0 -53 21.5 -85.5t67.5 -32.5q57 0 90.5 56t33.5 132zM404 647l56 -10
q-8 -45 -37 -75.5t-68 -30.5q-35 0 -67 27q-3 2 -9.5 7.5t-10 8.5t-10 5.5t-12.5 2.5q-18 0 -29.5 -16.5t-14.5 -32.5l-56 9q8 45 37 76t68 31q35 0 67 -27q3 -2 9.5 -7.5t10 -8.5t10 -5.5t12.5 -2.5q18 0 29.5 16.5t14.5 32.5z" />
    <glyph glyph-name="odieresis" unicode="&#xf6;" horiz-adv-x="513" 
d="M483 274q0 -124 -70 -204.5t-184 -80.5q-96 0 -147.5 54.5t-51.5 151.5q0 124 70 204.5t184 80.5q96 0 147.5 -54.5t51.5 -151.5zM363 270q0 53 -21.5 85.5t-67.5 32.5q-57 0 -90.5 -56t-33.5 -132q0 -53 21.5 -85.5t67.5 -32.5q57 0 90.5 56t33.5 132zM433 596
q0 -27 -16.5 -44.5t-43.5 -17.5q-23 0 -37 14t-14 36q0 26 17 44t44 18q23 0 36.5 -14t13.5 -36zM277 596q0 -27 -16.5 -44.5t-43.5 -17.5q-23 0 -36.5 14t-13.5 36q0 26 17 44t43 18q23 0 36.5 -14t13.5 -36z" />
    <glyph glyph-name="divide" unicode="&#xf7;" 
d="M354 505q0 -32 -21 -53t-53 -21q-29 0 -46 17t-17 46q0 33 21 54t53 21q29 0 46 -17.5t17 -46.5zM466 350l-12 -87h-403l12 87h403zM300 119q0 -33 -21 -54t-54 -21q-28 0 -45 17.5t-17 46.5q0 32 20.5 53t53.5 21q29 0 46 -17t17 -46z" />
    <glyph glyph-name="oslash" unicode="&#xf8;" horiz-adv-x="513" 
d="M498 452l-48 -50q33 -51 33 -128q0 -124 -69.5 -204.5t-184.5 -80.5q-80 0 -130 39l-46 -49l-36 37l47 50q-34 49 -34 129q0 124 69.5 204.5t184.5 80.5q81 0 132 -40l46 49zM339 359q-23 29 -65 29q-57 0 -90.5 -56t-33.5 -132q0 -21 3 -39zM363 270q0 20 -3 36
l-185 -196q23 -28 64 -28q57 0 90.5 56t33.5 132z" />
    <glyph glyph-name="ugrave" unicode="&#xf9;" horiz-adv-x="510" 
d="M485 469l-61 -469h-109v70q-11 -16 -27 -32t-48.5 -32.5t-69.5 -16.5q-71 0 -105 51q-21 32 -21 85q0 30 6 80l34 264h118l-37 -284q-2 -16 -2 -24q0 -31 12 -46q16 -20 45 -20q35 0 70 35q13 13 23.5 28.5t14.5 23.5l3 9l36 278h118zM339 525h-82l-83 130h114z" />
    <glyph glyph-name="uacute" unicode="&#xfa;" horiz-adv-x="510" 
d="M485 469l-61 -469h-109v70q-11 -16 -27 -32t-48.5 -32.5t-69.5 -16.5q-71 0 -105 51q-21 32 -21 85q0 30 6 80l34 264h118l-37 -284q-2 -16 -2 -24q0 -31 12 -46q16 -20 45 -20q35 0 70 35q13 13 23.5 28.5t14.5 23.5l3 9l36 278h118zM434 655l-112 -130h-82l80 130h114z
" />
    <glyph glyph-name="ucircumflex" unicode="&#xfb;" horiz-adv-x="510" 
d="M485 469l-61 -469h-109v70q-11 -16 -27 -32t-48.5 -32.5t-69.5 -16.5q-71 0 -105 51q-21 32 -21 85q0 30 6 80l34 264h118l-37 -284q-2 -16 -2 -24q0 -31 12 -46q16 -20 45 -20q35 0 70 35q13 13 23.5 28.5t14.5 23.5l3 9l36 278h118zM425 525h-80l-45 80l-67 -80h-80
l103 130h100z" />
    <glyph glyph-name="udieresis" unicode="&#xfc;" horiz-adv-x="510" 
d="M485 469l-61 -469h-109v70q-11 -16 -27 -32t-48.5 -32.5t-69.5 -16.5q-71 0 -105 51q-21 32 -21 85q0 30 6 80l34 264h118l-37 -284q-2 -16 -2 -24q0 -31 12 -46q16 -20 45 -20q35 0 70 35q13 13 23.5 28.5t14.5 23.5l3 9l36 278h118zM432 596q0 -27 -16.5 -44.5
t-43.5 -17.5q-23 0 -37 14t-14 36q0 26 17 44t44 18q23 0 36.5 -14t13.5 -36zM276 596q0 -27 -16.5 -44.5t-43.5 -17.5q-23 0 -36.5 14t-13.5 36q0 26 17 44t43 18q23 0 36.5 -14t13.5 -36z" />
    <glyph glyph-name="yacute" unicode="&#xfd;" horiz-adv-x="459" 
d="M487 469l-250 -514q-34 -69 -67 -99t-85 -30q-50 0 -98 26l36 85q22 -13 43 -13q33 0 50 41l18 45l-102 459h122l59 -347l152 347h122zM413 655l-112 -130h-82l80 130h114z" />
    <glyph glyph-name="thorn" unicode="&#xfe;" horiz-adv-x="532" 
d="M502 277q0 -117 -64 -202.5t-166 -85.5q-27 0 -49 7.5t-35 17.5t-22 20.5t-12 17.5l-3 8l-29 -226h-119l107 820h118l-32 -244q2 3 5.5 7.5t16 16.5t27 21.5t38.5 17t51 7.5q76 0 122 -53.5t46 -149.5zM381 270q0 54 -22.5 85t-62.5 31q-56 0 -91.5 -55t-35.5 -130
q0 -54 23 -85.5t62 -31.5q57 0 92 55t35 131z" />
    <glyph glyph-name="ydieresis" unicode="&#xff;" horiz-adv-x="459" 
d="M487 469l-250 -514q-34 -69 -67 -99t-85 -30q-50 0 -98 26l36 85q22 -13 43 -13q33 0 50 41l18 45l-102 459h122l59 -347l152 347h122zM409 596q0 -27 -16.5 -44.5t-43.5 -17.5q-23 0 -37 14t-14 36q0 26 17 44t44 18q23 0 36.5 -14t13.5 -36zM253 596q0 -27 -16.5 -44.5
t-43.5 -17.5q-23 0 -36.5 14t-13.5 36q0 26 17 44t43 18q23 0 36.5 -14t13.5 -36z" />
    <glyph glyph-name="Amacron" unicode="&#x100;" horiz-adv-x="554" 
d="M517 0h-126l-25 141h-229l-63 -141h-118l292 635h143zM351 236l-51 286l-125 -286h176zM466 788l-8 -66h-276l8 66h276z" />
    <glyph glyph-name="amacron" unicode="&#x101;" horiz-adv-x="530" 
d="M505 469l-62 -469h-108v65q-2 -3 -5.5 -8t-16 -18.5t-27.5 -23.5t-39 -18t-51 -8q-76 0 -121 53.5t-45 149.5q0 117 64 202.5t166 85.5q27 0 49 -7.5t34.5 -19t21 -22.5t11.5 -19l3 -7l17 64h109zM360 270q0 54 -23 85t-61 31q-55 0 -90.5 -55t-35.5 -130
q0 -54 22.5 -85.5t61.5 -31.5q55 0 90.5 55t35.5 131zM444 623l-8 -66h-276l8 66h276z" />
    <glyph glyph-name="Abreve" unicode="&#x102;" horiz-adv-x="554" 
d="M517 0h-126l-25 141h-229l-63 -141h-118l292 635h143zM351 236l-51 286l-125 -286h176zM413 822l54 -10q-15 -55 -54 -89t-93 -34q-55 0 -87.5 34t-35.5 89l55 10q13 -69 74 -69q30 0 53 19.5t34 49.5z" />
    <glyph glyph-name="abreve" unicode="&#x103;" horiz-adv-x="530" 
d="M505 469l-62 -469h-108v65q-2 -3 -5.5 -8t-16 -18.5t-27.5 -23.5t-39 -18t-51 -8q-76 0 -121 53.5t-45 149.5q0 117 64 202.5t166 85.5q27 0 49 -7.5t34.5 -19t21 -22.5t11.5 -19l3 -7l17 64h109zM360 270q0 54 -23 85t-61 31q-55 0 -90.5 -55t-35.5 -130
q0 -54 22.5 -85.5t61.5 -31.5q55 0 90.5 55t35.5 131zM395 657l54 -10q-15 -55 -54 -89t-93 -34q-55 0 -87.5 34t-35.5 89l55 10q13 -69 74 -69q30 0 53 19.5t34 49.5z" />
    <glyph glyph-name="Aogonek" unicode="&#x104;" horiz-adv-x="554" 
d="M489 -104l21 -40q-16 -16 -47.5 -30t-67.5 -14q-41 0 -65 21.5t-24 59.5q0 72 82 123l-22 125h-229l-63 -141h-118l292 635h143l126 -635h-78q-57 -37 -57 -83q0 -42 49 -42q30 0 58 21zM351 236l-51 286l-125 -286h176z" />
    <glyph glyph-name="aogonek" unicode="&#x105;" horiz-adv-x="530" 
d="M413 -105l21 -40q-46 -43 -109 -43q-41 0 -62.5 20.5t-21.5 55.5q0 71 94 128v49q-2 -3 -5.5 -8t-16 -18.5t-27.5 -23.5t-39 -18t-51 -8q-76 0 -121 53.5t-45 149.5q0 117 64 202.5t166 85.5q27 0 49 -7.5t34.5 -19t21 -22.5t11.5 -19l3 -7l17 64h109l-62 -469h-55
q-71 -46 -71 -90q0 -35 38 -35q31 0 58 20zM360 270q0 54 -23 85t-61 31q-55 0 -90.5 -55t-35.5 -130q0 -54 22.5 -85.5t61.5 -31.5q55 0 90.5 55t35.5 131z" />
    <glyph glyph-name="Cacute" unicode="&#x106;" horiz-adv-x="580" 
d="M577 498l-88 -52q-1 4 -3.5 10.5t-13 22.5t-25 28.5t-41 23t-59.5 10.5q-84 0 -136.5 -79.5t-52.5 -182.5q0 -92 41 -136.5t106 -44.5q53 0 95 30.5t64 63.5l73 -70q-89 -133 -247 -133q-111 0 -183 68.5t-72 212.5q0 161 89.5 268t224.5 107q50 0 92 -15t66 -34.5
t41 -42.5t22.5 -36.5t6.5 -18.5zM512 820l-112 -130h-82l80 130h114z" />
    <glyph glyph-name="cacute" unicode="&#x107;" horiz-adv-x="440" 
d="M447 384l-68 -63q-41 61 -104 61q-58 0 -93.5 -43t-35.5 -123q0 -61 27.5 -93t71.5 -32q33 0 63 13.5t44 27.5l13 13l60 -70q-25 -33 -74 -59.5t-116 -26.5q-86 0 -145.5 55t-59.5 161q0 129 70 202t170 73q42 0 76 -12t55 -31t30.5 -30.5t15.5 -22.5zM427 655l-112 -130
h-82l80 130h114z" />
    <glyph glyph-name="Ccircumflex" unicode="&#x108;" horiz-adv-x="580" 
d="M577 498l-88 -52q-1 4 -3.5 10.5t-13 22.5t-25 28.5t-41 23t-59.5 10.5q-84 0 -136.5 -79.5t-52.5 -182.5q0 -92 41 -136.5t106 -44.5q53 0 95 30.5t64 63.5l73 -70q-89 -133 -247 -133q-111 0 -183 68.5t-72 212.5q0 161 89.5 268t224.5 107q50 0 92 -15t66 -34.5
t41 -42.5t22.5 -36.5t6.5 -18.5zM492 690h-80l-45 80l-67 -80h-80l103 130h100z" />
    <glyph glyph-name="ccircumflex" unicode="&#x109;" horiz-adv-x="440" 
d="M447 384l-68 -63q-41 61 -104 61q-58 0 -93.5 -43t-35.5 -123q0 -61 27.5 -93t71.5 -32q33 0 63 13.5t44 27.5l13 13l60 -70q-25 -33 -74 -59.5t-116 -26.5q-86 0 -145.5 55t-59.5 161q0 129 70 202t170 73q42 0 76 -12t55 -31t30.5 -30.5t15.5 -22.5zM411 525h-80
l-45 80l-67 -80h-80l103 130h100z" />
    <glyph glyph-name="Cdotaccent" unicode="&#x10a;" horiz-adv-x="580" 
d="M577 498l-88 -52q-1 4 -3.5 10.5t-13 22.5t-25 28.5t-41 23t-59.5 10.5q-84 0 -136.5 -79.5t-52.5 -182.5q0 -92 41 -136.5t106 -44.5q53 0 95 30.5t64 63.5l73 -70q-89 -133 -247 -133q-111 0 -183 68.5t-72 212.5q0 161 89.5 268t224.5 107q50 0 92 -15t66 -34.5
t41 -42.5t22.5 -36.5t6.5 -18.5zM427 769q0 -30 -19 -50t-49 -20q-27 0 -42.5 15.5t-15.5 40.5q0 29 19.5 49.5t49.5 20.5q26 0 41.5 -15.5t15.5 -40.5z" />
    <glyph glyph-name="cdotaccent" unicode="&#x10b;" horiz-adv-x="440" 
d="M447 384l-68 -63q-41 61 -104 61q-58 0 -93.5 -43t-35.5 -123q0 -61 27.5 -93t71.5 -32q33 0 63 13.5t44 27.5l13 13l60 -70q-25 -33 -74 -59.5t-116 -26.5q-86 0 -145.5 55t-59.5 161q0 129 70 202t170 73q42 0 76 -12t55 -31t30.5 -30.5t15.5 -22.5zM349 604
q0 -30 -19 -50t-49 -20q-27 0 -42.5 16t-15.5 40q0 29 19.5 49.5t49.5 20.5q26 0 41.5 -15.5t15.5 -40.5z" />
    <glyph glyph-name="Ccaron" unicode="&#x10c;" horiz-adv-x="580" 
d="M577 498l-88 -52q-1 4 -3.5 10.5t-13 22.5t-25 28.5t-41 23t-59.5 10.5q-84 0 -136.5 -79.5t-52.5 -182.5q0 -92 41 -136.5t106 -44.5q53 0 95 30.5t64 63.5l73 -70q-89 -133 -247 -133q-111 0 -183 68.5t-72 212.5q0 161 89.5 268t224.5 107q50 0 92 -15t66 -34.5
t41 -42.5t22.5 -36.5t6.5 -18.5zM511 820l-104 -130h-99l-69 130h80l45 -82l67 82h80z" />
    <glyph glyph-name="ccaron" unicode="&#x10d;" horiz-adv-x="440" 
d="M447 384l-68 -63q-41 61 -104 61q-58 0 -93.5 -43t-35.5 -123q0 -61 27.5 -93t71.5 -32q33 0 63 13.5t44 27.5l13 13l60 -70q-25 -33 -74 -59.5t-116 -26.5q-86 0 -145.5 55t-59.5 161q0 129 70 202t170 73q42 0 76 -12t55 -31t30.5 -30.5t15.5 -22.5zM429 655l-104 -130
h-99l-69 130h80l45 -82l67 82h80z" />
    <glyph glyph-name="Dcaron" unicode="&#x10e;" horiz-adv-x="622" 
d="M587 364q0 -177 -104 -276q-93 -88 -244 -88h-208l82 635h211q119 0 187 -62q76 -69 76 -209zM463 364q0 93 -43 136q-37 38 -114 38h-83l-57 -438h83q97 0 154 68q60 69 60 196zM511 820l-104 -130h-99l-69 130h80l45 -82l67 82h80z" />
    <glyph glyph-name="dcaron" unicode="&#x10f;" horiz-adv-x="532" 
d="M531 654l-85 -654h-108v65q-2 -3 -5.5 -8t-16 -18.5t-27 -23.5t-38.5 -18t-51 -8q-77 0 -123.5 52.5t-46.5 150.5q0 117 64 202.5t166 85.5q27 0 49 -7t35 -17.5t22 -21t12 -17.5l3 -7l32 244h118zM362 270q0 54 -22.5 85t-62.5 31q-56 0 -91.5 -55t-35.5 -130
q0 -54 23 -85.5t62 -31.5q57 0 92 55t35 131zM590 662l100 -2q-13 -107 -67 -180l-73 2q34 81 40 180z" />
    <glyph glyph-name="Dcroat" unicode="&#x110;" horiz-adv-x="622" 
d="M587 364q0 -177 -104 -276q-93 -88 -244 -88h-208l38 288h-52l11 82h51l34 265h211q119 0 187 -62q76 -69 76 -209zM463 364q0 93 -43 136q-37 38 -114 38h-83l-22 -168h96l-12 -82h-95l-24 -188h83q97 0 154 68q60 69 60 196z" />
    <glyph glyph-name="dcroat" unicode="&#x111;" horiz-adv-x="532" 
d="M588 597l-13 -80h-62l-67 -517h-108v65q-2 -3 -5.5 -8t-16 -18.5t-27 -23.5t-38.5 -18t-51 -8q-77 0 -123.5 52.5t-46.5 150.5q0 117 64 202.5t166 85.5q27 0 49 -7t35 -17.5t22 -21t12 -17.5l3 -7l14 107h-183l13 80h180l8 57h118l-8 -57h65zM362 270q0 54 -22.5 85
t-62.5 31q-56 0 -91.5 -55t-35.5 -130q0 -54 23 -85.5t62 -31.5q57 0 92 55t35 131z" />
    <glyph glyph-name="Emacron" unicode="&#x112;" horiz-adv-x="504" 
d="M495 635l-13 -97h-259l-20 -157h242l-13 -98h-242l-24 -184h270l-13 -99h-392l82 635h382zM460 788l-8 -66h-276l8 66h276z" />
    <glyph glyph-name="emacron" unicode="&#x113;" horiz-adv-x="463" 
d="M445 347q0 -85 -105 -136q-78 -37 -193 -41q0 -37 24 -62.5t71 -25.5q42 0 80 19t53 34l45 -70q-71 -76 -200 -76q-78 0 -134 50.5t-56 160.5q0 119 71.5 199.5t173.5 80.5q85 0 127.5 -38t42.5 -95zM335 345q0 23 -15.5 38t-44.5 15q-39 0 -76.5 -33t-48.5 -109
q70 2 120 19q65 22 65 70zM428 623l-8 -66h-276l8 66h276z" />
    <glyph glyph-name="Ebreve" unicode="&#x114;" horiz-adv-x="504" 
d="M495 635l-13 -97h-259l-20 -157h242l-13 -98h-242l-24 -184h270l-13 -99h-392l82 635h382zM407 822l54 -10q-15 -55 -54 -89t-93 -34q-55 0 -87.5 34t-35.5 89l55 10q13 -69 74 -69q30 0 53 19.5t34 49.5z" />
    <glyph glyph-name="ebreve" unicode="&#x115;" horiz-adv-x="463" 
d="M445 347q0 -85 -105 -136q-78 -37 -193 -41q0 -37 24 -62.5t71 -25.5q42 0 80 19t53 34l45 -70q-71 -76 -200 -76q-78 0 -134 50.5t-56 160.5q0 119 71.5 199.5t173.5 80.5q85 0 127.5 -38t42.5 -95zM335 345q0 23 -15.5 38t-44.5 15q-39 0 -76.5 -33t-48.5 -109
q70 2 120 19q65 22 65 70zM375 657l54 -10q-15 -55 -54 -89t-93 -34q-55 0 -87.5 34t-35.5 89l55 10q13 -69 74 -69q30 0 53 19.5t34 49.5z" />
    <glyph glyph-name="Edotaccent" unicode="&#x116;" horiz-adv-x="504" 
d="M495 635l-13 -97h-259l-20 -157h242l-13 -98h-242l-24 -184h270l-13 -99h-392l82 635h382zM383 769q0 -30 -19 -50t-49 -20q-27 0 -42.5 15.5t-15.5 40.5q0 29 19.5 49.5t49.5 20.5q26 0 41.5 -15.5t15.5 -40.5z" />
    <glyph glyph-name="edotaccent" unicode="&#x117;" horiz-adv-x="463" 
d="M445 347q0 -85 -105 -136q-78 -37 -193 -41q0 -37 24 -62.5t71 -25.5q42 0 80 19t53 34l45 -70q-71 -76 -200 -76q-78 0 -134 50.5t-56 160.5q0 119 71.5 199.5t173.5 80.5q85 0 127.5 -38t42.5 -95zM335 345q0 23 -15.5 38t-44.5 15q-39 0 -76.5 -33t-48.5 -109
q70 2 120 19q65 22 65 70zM351 604q0 -30 -19 -50t-49 -20q-27 0 -42.5 16t-15.5 40q0 29 19.5 49.5t49.5 20.5q26 0 41.5 -15.5t15.5 -40.5z" />
    <glyph glyph-name="Eogonek" unicode="&#x118;" horiz-adv-x="504" 
d="M398 -104l21 -40q-16 -16 -47.5 -30t-67.5 -14q-41 0 -65 21.5t-24 59.5q0 62 58 107h-242l82 635h382l-13 -97h-259l-20 -157h242l-13 -98h-242l-24 -184h270l-13 -99h-75q-57 -37 -57 -83q0 -42 49 -42q30 0 58 21z" />
    <glyph glyph-name="eogonek" unicode="&#x119;" horiz-adv-x="463" 
d="M378 -104l21 -40q-16 -16 -47.5 -30t-67.5 -14q-41 0 -65 21.5t-24 59.5q0 53 46 97q-7 -1 -21 -1q-78 0 -134 50.5t-56 160.5q0 119 71.5 199.5t173.5 80.5q85 0 127.5 -38t42.5 -95q0 -85 -105 -136q-78 -37 -193 -41q0 -37 24 -62.5t71 -25.5q42 0 80 19t53 34l45 -70
q-27 -29 -75 -52q-74 -50 -74 -96q0 -42 49 -42q30 0 58 21zM335 345q0 23 -15.5 38t-44.5 15q-39 0 -76.5 -33t-48.5 -109q70 2 120 19q65 22 65 70z" />
    <glyph glyph-name="Ecaron" unicode="&#x11a;" horiz-adv-x="504" 
d="M495 635l-13 -97h-259l-20 -157h242l-13 -98h-242l-24 -184h270l-13 -99h-392l82 635h382zM467 820l-104 -130h-99l-69 130h80l45 -82l67 82h80z" />
    <glyph glyph-name="ecaron" unicode="&#x11b;" horiz-adv-x="463" 
d="M445 347q0 -85 -105 -136q-78 -37 -193 -41q0 -37 24 -62.5t71 -25.5q42 0 80 19t53 34l45 -70q-71 -76 -200 -76q-78 0 -134 50.5t-56 160.5q0 119 71.5 199.5t173.5 80.5q85 0 127.5 -38t42.5 -95zM335 345q0 23 -15.5 38t-44.5 15q-39 0 -76.5 -33t-48.5 -109
q70 2 120 19q65 22 65 70zM435 655l-104 -130h-99l-69 130h80l45 -82l67 82h80z" />
    <glyph glyph-name="Gcircumflex" unicode="&#x11c;" horiz-adv-x="627" 
d="M578 343l-45 -343h-78l-5 60q-62 -71 -180 -71q-57 0 -102 24t-69 53q-64 77 -64 199q0 81 24.5 154t67.5 122q91 104 223 104q74 0 136 -34t87 -94l-83 -62q-44 88 -145 88q-85 0 -140 -87q-47 -74 -47 -178q0 -88 37 -134q39 -48 109 -48q40 0 78 19.5t58 46.5l12 85
h-122l12 96h236zM495 690h-80l-45 80l-67 -80h-80l103 130h100z" />
    <glyph glyph-name="gcircumflex" unicode="&#x11d;" horiz-adv-x="532" 
d="M507 469l-52 -396q-15 -118 -67 -174q-67 -73 -193 -73q-56 0 -109.5 21t-77.5 43l50 81q65 -50 137 -50q70 0 102 37q27 30 38 102l5 30q-51 -76 -140 -76q-72 0 -121 46.5t-49 144.5q0 110 64.5 192.5t165.5 82.5q27 0 49 -7t35 -17.5t22 -21t12 -17.5l3 -7l18 59h108z
M362 279q0 50 -23.5 78.5t-60.5 28.5q-59 0 -93.5 -52t-34.5 -117q0 -51 23.5 -79.5t61.5 -28.5q59 0 93 51.5t34 118.5zM434 525h-80l-45 80l-67 -80h-80l103 130h100z" />
    <glyph glyph-name="Gbreve" unicode="&#x11e;" horiz-adv-x="627" 
d="M578 343l-45 -343h-78l-5 60q-62 -71 -180 -71q-57 0 -102 24t-69 53q-64 77 -64 199q0 81 24.5 154t67.5 122q91 104 223 104q74 0 136 -34t87 -94l-83 -62q-44 88 -145 88q-85 0 -140 -87q-47 -74 -47 -178q0 -88 37 -134q39 -48 109 -48q40 0 78 19.5t58 46.5l12 85
h-122l12 96h236zM454 822l54 -10q-15 -55 -54 -89t-93 -34q-55 0 -87.5 34t-35.5 89l55 10q13 -69 74 -69q30 0 53 19.5t34 49.5z" />
    <glyph glyph-name="gbreve" unicode="&#x11f;" horiz-adv-x="532" 
d="M507 469l-52 -396q-15 -118 -67 -174q-67 -73 -193 -73q-56 0 -109.5 21t-77.5 43l50 81q65 -50 137 -50q70 0 102 37q27 30 38 102l5 30q-51 -76 -140 -76q-72 0 -121 46.5t-49 144.5q0 110 64.5 192.5t165.5 82.5q27 0 49 -7t35 -17.5t22 -21t12 -17.5l3 -7l18 59h108z
M362 279q0 50 -23.5 78.5t-60.5 28.5q-59 0 -93.5 -52t-34.5 -117q0 -51 23.5 -79.5t61.5 -28.5q59 0 93 51.5t34 118.5zM394 657l54 -10q-15 -55 -54 -89t-93 -34q-55 0 -87.5 34t-35.5 89l55 10q13 -69 74 -69q30 0 53 19.5t34 49.5z" />
    <glyph glyph-name="Gdotaccent" unicode="&#x120;" horiz-adv-x="627" 
d="M578 343l-45 -343h-78l-5 60q-62 -71 -180 -71q-57 0 -102 24t-69 53q-64 77 -64 199q0 81 24.5 154t67.5 122q91 104 223 104q74 0 136 -34t87 -94l-83 -62q-44 88 -145 88q-85 0 -140 -87q-47 -74 -47 -178q0 -88 37 -134q39 -48 109 -48q40 0 78 19.5t58 46.5l12 85
h-122l12 96h236zM430 769q0 -30 -19 -50t-49 -20q-26 0 -42 15.5t-16 40.5q0 29 19.5 49.5t49.5 20.5q26 0 41.5 -15.5t15.5 -40.5z" />
    <glyph glyph-name="gdotaccent" unicode="&#x121;" horiz-adv-x="532" 
d="M507 469l-52 -396q-15 -118 -67 -174q-67 -73 -193 -73q-56 0 -109.5 21t-77.5 43l50 81q65 -50 137 -50q70 0 102 37q27 30 38 102l5 30q-51 -76 -140 -76q-72 0 -121 46.5t-49 144.5q0 110 64.5 192.5t165.5 82.5q27 0 49 -7t35 -17.5t22 -21t12 -17.5l3 -7l18 59h108z
M362 279q0 50 -23.5 78.5t-60.5 28.5q-59 0 -93.5 -52t-34.5 -117q0 -51 23.5 -79.5t61.5 -28.5q59 0 93 51.5t34 118.5zM371 604q0 -30 -19 -50t-49 -20q-27 0 -42.5 16t-15.5 40q0 29 19.5 49.5t49.5 20.5q26 0 41.5 -15.5t15.5 -40.5z" />
    <glyph glyph-name="Gcommaaccent" unicode="&#x122;" horiz-adv-x="627" 
d="M578 343l-45 -343h-78l-5 60q-62 -71 -180 -71q-57 0 -102 24t-69 53q-64 77 -64 199q0 81 24.5 154t67.5 122q91 104 223 104q74 0 136 -34t87 -94l-83 -62q-44 88 -145 88q-85 0 -140 -87q-47 -74 -47 -178q0 -88 37 -134q39 -48 109 -48q40 0 78 19.5t58 46.5l12 85
h-122l12 96h236zM235 -45l104 -4q-12 -53 -36 -87t-71 -62l-63 39q52 42 66 114z" />
    <glyph glyph-name="gcommaaccent" unicode="&#x123;" horiz-adv-x="532" 
d="M507 469l-52 -396q-15 -118 -67 -174q-67 -73 -193 -73q-56 0 -109.5 21t-77.5 43l50 81q65 -50 137 -50q70 0 102 37q27 30 38 102l5 30q-51 -76 -140 -76q-72 0 -121 46.5t-49 144.5q0 110 64.5 192.5t165.5 82.5q27 0 49 -7t35 -17.5t22 -21t12 -17.5l3 -7l18 59h108z
M362 279q0 50 -23.5 78.5t-60.5 28.5q-59 0 -93.5 -52t-34.5 -117q0 -51 23.5 -79.5t61.5 -28.5q59 0 93 51.5t34 118.5zM339 515l-104 4q12 53 36 87t71 62l63 -39q-52 -42 -66 -114z" />
    <glyph glyph-name="Hcircumflex" unicode="&#x124;" horiz-adv-x="643" 
d="M612 635l-82 -635h-122l36 283h-254l-37 -283h-122l82 635h122l-32 -253h254l33 253h122zM499 690h-80l-45 80l-67 -80h-80l103 130h100z" />
    <glyph glyph-name="hcircumflex" unicode="&#x125;" horiz-adv-x="518" 
d="M476 355q0 -33 -5 -75l-37 -280h-118l37 280q2 18 2 24q0 71 -65 71q-35 0 -64 -26.5t-46 -66.5l-37 -282h-118l85 654h118l-33 -249q58 75 150 75q61 0 96 -33t35 -92zM309 710h-80l-45 80l-67 -80h-80l103 130h100z" />
    <glyph glyph-name="Hbar" unicode="&#x126;" horiz-adv-x="643" 
d="M700 544l-13 -80h-97l-60 -464h-122l35 274h-254l-36 -274h-122l60 464h-95l13 80h92l12 91h122l-12 -91h255l12 91h122l-12 -91h100zM202 373h254l12 91h-255z" />
    <glyph glyph-name="hbar" unicode="&#x127;" horiz-adv-x="518" 
d="M476 355q0 -33 -5 -75l-37 -280h-118l37 280q2 18 2 24q0 71 -65 71q-35 0 -64 -26.5t-46 -66.5l-37 -282h-118l67 517h-68l13 80h65l8 57h118l-8 -57h180l-13 -80h-177l-15 -112q58 75 150 75q61 0 96 -33t35 -92z" />
    <glyph glyph-name="Itilde" unicode="&#x128;" horiz-adv-x="267" 
d="M235 635l-82 -635h-122l82 635h122zM282 812l56 -10q-8 -45 -37 -75.5t-68 -30.5q-35 0 -67 27q-3 2 -9.5 7.5t-10 8.5t-10 5.5t-12.5 2.5q-18 0 -29.5 -16.5t-14.5 -32.5l-56 9q8 45 37 76t68 31q35 0 67 -27q3 -2 9.5 -7.5t10 -8.5t10 -5.5t12.5 -2.5q18 0 29.5 16.5
t14.5 32.5z" />
    <glyph glyph-name="itilde" unicode="&#x129;" horiz-adv-x="229" 
d="M204 469l-61 -469h-118l61 469h118zM251 647l56 -10q-8 -45 -37 -75.5t-68 -30.5q-35 0 -67 27q-3 2 -9.5 7.5t-10 8.5t-10 5.5t-12.5 2.5q-18 0 -29.5 -16.5t-14.5 -32.5l-56 9q8 45 37 76t68 31q35 0 67 -27q3 -2 9.5 -7.5t10 -8.5t10 -5.5t12.5 -2.5q18 0 29.5 16.5
t14.5 32.5z" />
    <glyph glyph-name="Imacron" unicode="&#x12a;" horiz-adv-x="267" 
d="M235 635l-82 -635h-122l82 635h122zM324 788l-8 -66h-276l8 66h276z" />
    <glyph glyph-name="imacron" unicode="&#x12b;" horiz-adv-x="229" 
d="M204 469l-61 -469h-118l61 469h118zM293 623l-8 -66h-276l8 66h276z" />
    <glyph glyph-name="Ibreve" unicode="&#x12c;" horiz-adv-x="267" 
d="M235 635l-82 -635h-122l82 635h122zM271 822l54 -10q-15 -55 -54 -89t-93 -34q-55 0 -87.5 34t-35.5 89l55 10q13 -69 74 -69q30 0 53 19.5t34 49.5z" />
    <glyph glyph-name="ibreve" unicode="&#x12d;" horiz-adv-x="229" 
d="M204 469l-61 -469h-118l61 469h118zM240 657l54 -10q-15 -55 -54 -89t-93 -34q-55 0 -87.5 34t-35.5 89l55 10q13 -69 74 -69q30 0 53 19.5t34 49.5z" />
    <glyph glyph-name="Iogonek" unicode="&#x12e;" horiz-adv-x="267" 
d="M151 -104l21 -40q-16 -16 -47.5 -30t-67.5 -14q-41 0 -65 21.5t-24 59.5q0 34 19.5 64.5t43.5 46.5l82 631h122l-82 -635h-52q-57 -37 -57 -83q0 -42 49 -42q30 0 58 21z" />
    <glyph glyph-name="iogonek" unicode="&#x12f;" horiz-adv-x="229" 
d="M149 -104l21 -40q-16 -16 -47.5 -30t-67.5 -14q-41 0 -65 21.5t-24 59.5q0 33 18 61.5t41 46.5l61 468h118l-61 -469h-44q-57 -37 -57 -83q0 -42 49 -42q30 0 58 21zM234 613q0 -32 -21 -52.5t-55 -20.5q-30 0 -47.5 16.5t-17.5 44.5q0 32 21 53t55 21q30 0 47.5 -16.5
t17.5 -45.5z" />
    <glyph glyph-name="Idotaccent" unicode="&#x130;" horiz-adv-x="267" 
d="M235 635l-82 -635h-122l82 635h122zM251 769q0 -30 -19 -50t-49 -20q-27 0 -42.5 15.5t-15.5 40.5q0 29 19.5 49.5t49.5 20.5q26 0 41.5 -15.5t15.5 -40.5z" />
    <glyph glyph-name="dotlessi" unicode="&#x131;" horiz-adv-x="229" 
d="M204 469l-61 -469h-118l61 469h118z" />
    <glyph glyph-name="Jcircumflex" unicode="&#x134;" horiz-adv-x="274" 
d="M243 635l-81 -628q-13 -97 -60 -140q-45 -40 -118 -40q-23 0 -45 5.5t-32 10.5l-10 5l29 84q18 -11 51 -11q30 0 43.5 21t18.5 62l82 631h122zM321 690h-80l-45 80l-67 -80h-80l103 130h100z" />
    <glyph glyph-name="jcircumflex" unicode="&#x135;" horiz-adv-x="232" 
d="M207 469l-61 -471q-13 -92 -45 -128q-38 -44 -111 -44q-20 0 -40 4.5t-30 9.5l-10 4l25 85q17 -10 37 -10q23 0 35 15q15 17 20 63l62 472h118zM287 525h-80l-45 80l-67 -80h-80l103 130h100z" />
    <glyph glyph-name="Kcommaaccent" unicode="&#x136;" horiz-adv-x="555" 
d="M586 635l-252 -264l177 -371h-138l-127 276l-66 -68l-27 -208h-122l82 635h122l-35 -270l244 270h142zM207 -45l104 -4q-12 -53 -36 -87t-71 -62l-63 39q52 42 66 114z" />
    <glyph glyph-name="kcommaaccent" unicode="&#x137;" horiz-adv-x="478" 
d="M503 469l-198 -186l138 -283h-130l-93 201l-58 -54l-19 -147h-118l85 654h118l-48 -369l183 184h140zM178 -45l104 -4q-12 -53 -36 -87t-71 -62l-63 39q52 42 66 114z" />
    <glyph glyph-name="kgreenlandic" unicode="&#x138;" horiz-adv-x="478" 
d="M503 469l-198 -186l138 -283h-130l-93 201l-58 -54l-19 -147h-118l61 469h119l-25 -184l183 184h140z" />
    <glyph glyph-name="Lacute" unicode="&#x139;" horiz-adv-x="431" 
d="M400 99l-13 -99h-356l82 635h122l-69 -536h234zM332 820l-112 -130h-82l80 130h114z" />
    <glyph glyph-name="lacute" unicode="&#x13a;" horiz-adv-x="229" 
d="M228 654l-85 -654h-118l85 654h118zM324 840l-112 -130h-82l80 130h114z" />
    <glyph glyph-name="Lcommaaccent" unicode="&#x13b;" horiz-adv-x="431" 
d="M400 99l-13 -99h-356l82 635h122l-69 -536h234zM163 -45l104 -4q-12 -53 -36 -87t-71 -62l-63 39q52 42 66 114z" />
    <glyph glyph-name="lcommaaccent" unicode="&#x13c;" horiz-adv-x="229" 
d="M228 654l-85 -654h-118l85 654h118zM34 -45l104 -4q-12 -53 -36 -87t-71 -62l-63 39q52 42 66 114z" />
    <glyph glyph-name="Lcaron" unicode="&#x13d;" horiz-adv-x="431" 
d="M400 99l-13 -99h-356l82 635h122l-69 -536h234zM330 652l100 -2q-13 -107 -67 -180l-73 2q34 81 40 180z" />
    <glyph glyph-name="lcaron" unicode="&#x13e;" horiz-adv-x="229" 
d="M228 654l-85 -654h-118l85 654h118zM287 658l100 -2q-13 -107 -67 -180l-73 2q34 81 40 180z" />
    <glyph glyph-name="Ldot" unicode="&#x13f;" horiz-adv-x="431" 
d="M400 99l-13 -99h-356l82 635h122l-69 -536h234zM413 368q0 -30 -19 -50t-49 -20q-27 0 -42.5 16t-15.5 40q0 29 19.5 49.5t49.5 20.5q26 0 41.5 -15.5t15.5 -40.5z" />
    <glyph glyph-name="ldot" unicode="&#x140;" horiz-adv-x="304" 
d="M228 654l-85 -654h-118l85 654h118zM342 354q0 -30 -19 -50t-49 -20q-26 0 -42 16t-16 40q0 29 19.5 49.5t49.5 20.5q26 0 41.5 -15.5t15.5 -40.5z" />
    <glyph glyph-name="Lslash" unicode="&#x141;" horiz-adv-x="431" 
d="M400 99l-13 -99h-356l30 228l-51 -27l13 95l50 27l40 312h122l-31 -246l108 57l-12 -95l-109 -57l-25 -195h234z" />
    <glyph glyph-name="lslash" unicode="&#x142;" horiz-adv-x="229" 
d="M245 447l-13 -96l-47 -31l-42 -320h-118l32 244l-47 -30l13 95l46 31l41 314h119l-32 -238z" />
    <glyph glyph-name="Nacute" unicode="&#x143;" horiz-adv-x="641" 
d="M609 635l-82 -635h-121l-201 462l-58 -462h-116l82 635h129l194 -446l58 446h115zM517 820l-112 -130h-82l80 130h114z" />
    <glyph glyph-name="nacute" unicode="&#x144;" horiz-adv-x="518" 
d="M476 355q0 -33 -5 -75l-37 -280h-118l37 280q2 18 2 24q0 71 -65 71q-35 0 -64.5 -26.5t-45.5 -65.5l-37 -283h-118l61 469h108v-64q54 75 151 75q63 0 97 -34t34 -91zM444 655l-112 -130h-82l80 130h114z" />
    <glyph glyph-name="Ncommaaccent" unicode="&#x145;" horiz-adv-x="641" 
d="M609 635l-82 -635h-121l-201 462l-58 -462h-116l82 635h129l194 -446l58 446h115zM231 -45l104 -4q-12 -53 -36 -87t-71 -62l-63 39q52 42 66 114z" />
    <glyph glyph-name="ncommaaccent" unicode="&#x146;" horiz-adv-x="518" 
d="M476 355q0 -33 -5 -75l-37 -280h-118l37 280q2 18 2 24q0 71 -65 71q-35 0 -64.5 -26.5t-45.5 -65.5l-37 -283h-118l61 469h108v-64q54 75 151 75q63 0 97 -34t34 -91zM185 -45l104 -4q-12 -53 -36 -87t-71 -62l-63 39q52 42 66 114z" />
    <glyph glyph-name="Ncaron" unicode="&#x147;" horiz-adv-x="641" 
d="M609 635l-82 -635h-121l-201 462l-58 -462h-116l82 635h129l194 -446l58 446h115zM526 820l-104 -130h-99l-69 130h80l45 -82l67 82h80z" />
    <glyph glyph-name="ncaron" unicode="&#x148;" horiz-adv-x="518" 
d="M476 355q0 -33 -5 -75l-37 -280h-118l37 280q2 18 2 24q0 71 -65 71q-35 0 -64.5 -26.5t-45.5 -65.5l-37 -283h-118l61 469h108v-64q54 75 151 75q63 0 97 -34t34 -91zM451 655l-104 -130h-99l-69 130h80l45 -82l67 82h80z" />
    <glyph glyph-name="Eng" unicode="&#x14a;" horiz-adv-x="641" 
d="M609 635l-81 -628q-13 -97 -60 -140q-45 -40 -118 -40q-23 0 -45 5.5t-32 10.5l-10 5l29 84q24 -11 60 -11q50 0 63 64l-210 477l-58 -462h-116l82 635h129l197 -453l55 453h115z" />
    <glyph glyph-name="eng" unicode="&#x14b;" horiz-adv-x="518" 
d="M476 355q0 -33 -5 -75l-37 -282q-11 -90 -45 -128q-38 -44 -111 -44q-20 0 -40 4.5t-30 9.5l-10 4l25 85q17 -10 37 -10q22 0 35 15t20 63l38 283q2 18 2 24q0 71 -65 71q-35 0 -64.5 -26.5t-45.5 -65.5l-37 -283h-118l61 469h108v-64q54 75 151 75q63 0 97 -34t34 -91z
" />
    <glyph glyph-name="Omacron" unicode="&#x14c;" horiz-adv-x="658" 
d="M623 375q0 -163 -90 -274.5t-241 -111.5q-120 0 -189 72t-69 199q0 163 90.5 274t241.5 111q120 0 188.5 -71.5t68.5 -198.5zM500 370q0 78 -37.5 126t-108.5 48q-82 0 -139 -77t-57 -197q0 -78 37.5 -126t108.5 -48q83 0 139.5 77t56.5 197zM516 788l-8 -66h-276l8 66
h276z" />
    <glyph glyph-name="omacron" unicode="&#x14d;" horiz-adv-x="513" 
d="M483 274q0 -124 -70 -204.5t-184 -80.5q-96 0 -147.5 54.5t-51.5 151.5q0 124 70 204.5t184 80.5q96 0 147.5 -54.5t51.5 -151.5zM363 270q0 53 -21.5 85.5t-67.5 32.5q-57 0 -90.5 -56t-33.5 -132q0 -53 21.5 -85.5t67.5 -32.5q57 0 90.5 56t33.5 132zM435 623l-8 -66
h-276l8 66h276z" />
    <glyph glyph-name="Obreve" unicode="&#x14e;" horiz-adv-x="658" 
d="M623 375q0 -163 -90 -274.5t-241 -111.5q-120 0 -189 72t-69 199q0 163 90.5 274t241.5 111q120 0 188.5 -71.5t68.5 -198.5zM500 370q0 78 -37.5 126t-108.5 48q-82 0 -139 -77t-57 -197q0 -78 37.5 -126t108.5 -48q83 0 139.5 77t56.5 197zM463 822l54 -10
q-15 -55 -54 -89t-93 -34q-55 0 -87.5 34t-35.5 89l55 10q13 -69 74 -69q30 0 53 19.5t34 49.5z" />
    <glyph glyph-name="obreve" unicode="&#x14f;" horiz-adv-x="513" 
d="M483 274q0 -124 -70 -204.5t-184 -80.5q-96 0 -147.5 54.5t-51.5 151.5q0 124 70 204.5t184 80.5q96 0 147.5 -54.5t51.5 -151.5zM363 270q0 53 -21.5 85.5t-67.5 32.5q-57 0 -90.5 -56t-33.5 -132q0 -53 21.5 -85.5t67.5 -32.5q57 0 90.5 56t33.5 132zM382 657l54 -10
q-15 -55 -54 -89t-93 -34q-55 0 -87.5 34t-35.5 89l55 10q13 -69 74 -69q30 0 53 19.5t34 49.5z" />
    <glyph glyph-name="Ohungarumlaut" unicode="&#x150;" horiz-adv-x="658" 
d="M623 375q0 -163 -90 -274.5t-241 -111.5q-120 0 -189 72t-69 199q0 163 90.5 274t241.5 111q120 0 188.5 -71.5t68.5 -198.5zM500 370q0 78 -37.5 126t-108.5 48q-82 0 -139 -77t-57 -197q0 -78 37.5 -126t108.5 -48q83 0 139.5 77t56.5 197zM594 820l-112 -130h-82
l80 130h114zM438 820l-112 -130h-82l81 130h113z" />
    <glyph glyph-name="ohungarumlaut" unicode="&#x151;" horiz-adv-x="513" 
d="M483 274q0 -124 -70 -204.5t-184 -80.5q-96 0 -147.5 54.5t-51.5 151.5q0 124 70 204.5t184 80.5q96 0 147.5 -54.5t51.5 -151.5zM363 270q0 53 -21.5 85.5t-67.5 32.5q-57 0 -90.5 -56t-33.5 -132q0 -53 21.5 -85.5t67.5 -32.5q57 0 90.5 56t33.5 132zM506 655
l-112 -130h-82l80 130h114zM350 655l-112 -130h-82l81 130h113z" />
    <glyph glyph-name="OE" unicode="&#x152;" horiz-adv-x="857" 
d="M848 635l-12 -97h-241l-20 -157h224l-13 -98h-224l-24 -184h252l-13 -99h-376l3 21q-12 -10 -42.5 -21t-69.5 -11q-120 0 -189 72.5t-69 198.5q0 162 90 273.5t242 111.5q36 0 65.5 -8.5t41.5 -16.5l12 -8l3 23h360zM469 504q-12 16 -43.5 28t-71.5 12q-82 0 -139 -77
t-57 -197q0 -78 37.5 -126t108.5 -48q39 0 71 13t45 26z" />
    <glyph glyph-name="oe" unicode="&#x153;" horiz-adv-x="771" 
d="M753 347q0 -85 -105 -136q-78 -37 -194 -41q0 -37 24 -62.5t71 -25.5q42 0 80 19t53 34l46 -70q-71 -76 -200 -76q-103 0 -143 74q-2 -3 -6 -8t-18 -18t-31 -22.5t-44.5 -17.5t-58.5 -8q-94 0 -145.5 54.5t-51.5 151.5q0 123 70 204t182 81q58 0 94.5 -22t51.5 -53
q2 3 6 8t18 18t30.5 23t43.5 18t56 8q85 0 128 -38t43 -95zM643 345q0 23 -15.5 38t-44.5 15q-39 0 -76.5 -33t-49.5 -109q70 2 120 19q66 22 66 70zM359 270q0 118 -86 118q-55 0 -89 -56t-34 -131q0 -53 21 -86t66 -33q55 0 88.5 56t33.5 132z" />
    <glyph glyph-name="Racute" unicode="&#x154;" horiz-adv-x="553" 
d="M520 460q0 -72 -41 -124t-105 -68l126 -268h-136l-111 251h-68l-32 -251h-122l82 635h212q90 0 142.5 -45t52.5 -130zM401 450q0 46 -27 70q-22 21 -69 21h-82l-26 -198h84q51 0 82 25q38 31 38 82zM474 820l-112 -130h-82l80 130h114z" />
    <glyph glyph-name="racute" unicode="&#x155;" horiz-adv-x="351" 
d="M368 466l-28 -111q-17 9 -45 9q-39 0 -70 -31q-29 -29 -50 -83l-32 -250h-118l61 469h108v-74q19 38 51.5 61.5t69.5 23.5q18 0 31 -3.5t18 -6.5zM372 655l-112 -130h-82l80 130h114z" />
    <glyph glyph-name="Rcommaaccent" unicode="&#x156;" horiz-adv-x="553" 
d="M520 460q0 -72 -41 -124t-105 -68l126 -268h-136l-111 251h-68l-32 -251h-122l82 635h212q90 0 142.5 -45t52.5 -130zM401 450q0 46 -27 70q-22 21 -69 21h-82l-26 -198h84q51 0 82 25q38 31 38 82zM204 -45l104 -4q-12 -53 -36 -87t-71 -62l-63 39q52 42 66 114z" />
    <glyph glyph-name="rcommaaccent" unicode="&#x157;" horiz-adv-x="351" 
d="M368 466l-28 -111q-17 9 -45 9q-39 0 -70 -31q-29 -29 -50 -83l-32 -250h-118l61 469h108v-74q19 38 51.5 61.5t69.5 23.5q18 0 31 -3.5t18 -6.5zM41 -45l104 -4q-12 -53 -36 -87t-71 -62l-63 39q52 42 66 114z" />
    <glyph glyph-name="Rcaron" unicode="&#x158;" horiz-adv-x="553" 
d="M520 460q0 -72 -41 -124t-105 -68l126 -268h-136l-111 251h-68l-32 -251h-122l82 635h212q90 0 142.5 -45t52.5 -130zM401 450q0 46 -27 70q-22 21 -69 21h-82l-26 -198h84q51 0 82 25q38 31 38 82zM478 820l-104 -130h-99l-69 130h80l45 -82l67 82h80z" />
    <glyph glyph-name="rcaron" unicode="&#x159;" horiz-adv-x="351" 
d="M368 466l-28 -111q-17 9 -45 9q-39 0 -70 -31q-29 -29 -50 -83l-32 -250h-118l61 469h108v-74q19 38 51.5 61.5t69.5 23.5q18 0 31 -3.5t18 -6.5zM381 655l-104 -130h-99l-69 130h80l45 -82l67 82h80z" />
    <glyph glyph-name="Sacute" unicode="&#x15a;" horiz-adv-x="495" 
d="M489 555l-65 -85q-28 32 -69 52.5t-84 20.5t-67 -19t-24 -45q0 -35 41 -64q3 -2 99 -55q56 -31 82 -57q47 -47 47 -113q0 -83 -58 -138q-67 -63 -171 -63q-77 0 -140 36q-26 15 -52 39.5t-33 40.5l71 71q25 -34 68 -58.5t92 -24.5t74 22t25 51q0 39 -45 69q-1 1 -85 47
q-50 28 -75 48q-61 50 -61 130q0 98 86 152q53 33 129 33q61 0 111 -20q67 -27 104 -70zM440 820l-112 -130h-82l80 130h114z" />
    <glyph glyph-name="sacute" unicode="&#x15b;" horiz-adv-x="405" 
d="M398 403l-58 -73q-21 24 -55 39q-43 19 -75 19q-25 0 -39 -11t-14 -27q0 -25 38 -45q9 -5 31 -15t30 -14q48 -24 68 -41q45 -38 45 -98q0 -68 -54 -110q-48 -37 -125 -37q-66 0 -121 31q-16 9 -38 27t-33 34l63 70q23 -27 54 -46q40 -24 85 -24q28 0 41.5 13t13.5 30
q0 23 -36 42q-11 6 -39.5 19t-34.5 16q-39 19 -59 37q-42 37 -42 96q0 34 16 62.5t28 38t23 16.5q45 27 104 27q50 0 96 -19q51 -21 87 -57zM383 655l-112 -130h-82l80 130h114z" />
    <glyph glyph-name="Scircumflex" unicode="&#x15c;" horiz-adv-x="495" 
d="M489 555l-65 -85q-28 32 -69 52.5t-84 20.5t-67 -19t-24 -45q0 -35 41 -64q3 -2 99 -55q56 -31 82 -57q47 -47 47 -113q0 -83 -58 -138q-67 -63 -171 -63q-77 0 -140 36q-26 15 -52 39.5t-33 40.5l71 71q25 -34 68 -58.5t92 -24.5t74 22t25 51q0 39 -45 69q-1 1 -85 47
q-50 28 -75 48q-61 50 -61 130q0 98 86 152q53 33 129 33q61 0 111 -20q67 -27 104 -70zM420 690h-80l-45 80l-67 -80h-80l103 130h100z" />
    <glyph glyph-name="scircumflex" unicode="&#x15d;" horiz-adv-x="405" 
d="M398 403l-58 -73q-21 24 -55 39q-43 19 -75 19q-25 0 -39 -11t-14 -27q0 -25 38 -45q9 -5 31 -15t30 -14q48 -24 68 -41q45 -38 45 -98q0 -68 -54 -110q-48 -37 -125 -37q-66 0 -121 31q-16 9 -38 27t-33 34l63 70q23 -27 54 -46q40 -24 85 -24q28 0 41.5 13t13.5 30
q0 23 -36 42q-11 6 -39.5 19t-34.5 16q-39 19 -59 37q-42 37 -42 96q0 34 16 62.5t28 38t23 16.5q45 27 104 27q50 0 96 -19q51 -21 87 -57zM367 525h-80l-45 80l-67 -80h-80l103 130h100z" />
    <glyph glyph-name="Scedilla" unicode="&#x15e;" horiz-adv-x="495" 
d="M489 555l-65 -85q-28 32 -69 52.5t-84 20.5t-67 -19t-24 -45q0 -35 41 -64q3 -2 99 -55q56 -31 82 -57q47 -47 47 -113q0 -83 -58 -138q-56 -52 -136 -61l-56 -120h-114l87 122q-53 9 -92 32q-26 15 -52 39.5t-33 40.5l71 71q25 -34 68 -58.5t92 -24.5t74 22t25 51
q0 39 -45 69q-1 1 -85 47q-50 28 -75 48q-61 50 -61 130q0 98 86 152q53 33 129 33q61 0 111 -20q67 -27 104 -70z" />
    <glyph glyph-name="scedilla" unicode="&#x15f;" horiz-adv-x="405" 
d="M398 403l-58 -73q-21 24 -55 39q-43 19 -75 19q-25 0 -39 -11t-14 -27q0 -25 38 -45q9 -5 31 -15t30 -14q48 -24 68 -41q45 -38 45 -98q0 -68 -54 -110q-37 -29 -92 -35l-57 -121h-114l89 124q-45 9 -72 26q-16 9 -38 27t-33 34l63 70q23 -27 54 -46q40 -24 85 -24
q28 0 41.5 13t13.5 30q0 23 -36 42q-11 6 -39.5 19t-34.5 16q-39 19 -59 37q-42 37 -42 96q0 34 16 62.5t28 38t23 16.5q45 27 104 27q50 0 96 -19q51 -21 87 -57z" />
    <glyph glyph-name="Scaron" unicode="&#x160;" horiz-adv-x="495" 
d="M489 555l-65 -85q-28 32 -69 52.5t-84 20.5t-67 -19t-24 -45q0 -35 41 -64q3 -2 99 -55q56 -31 82 -57q47 -47 47 -113q0 -83 -58 -138q-67 -63 -171 -63q-77 0 -140 36q-26 15 -52 39.5t-33 40.5l71 71q25 -34 68 -58.5t92 -24.5t74 22t25 51q0 39 -45 69q-1 1 -85 47
q-50 28 -75 48q-61 50 -61 130q0 98 86 152q53 33 129 33q61 0 111 -20q67 -27 104 -70zM459 820l-104 -130h-99l-69 130h80l45 -82l67 82h80z" />
    <glyph glyph-name="scaron" unicode="&#x161;" horiz-adv-x="405" 
d="M398 403l-58 -73q-21 24 -55 39q-43 19 -75 19q-25 0 -39 -11t-14 -27q0 -25 38 -45q9 -5 31 -15t30 -14q48 -24 68 -41q45 -38 45 -98q0 -68 -54 -110q-48 -37 -125 -37q-66 0 -121 31q-16 9 -38 27t-33 34l63 70q23 -27 54 -46q40 -24 85 -24q28 0 41.5 13t13.5 30
q0 23 -36 42q-11 6 -39.5 19t-34.5 16q-39 19 -59 37q-42 37 -42 96q0 34 16 62.5t28 38t23 16.5q45 27 104 27q50 0 96 -19q51 -21 87 -57zM393 655l-104 -130h-99l-69 130h80l45 -82l67 82h80z" />
    <glyph glyph-name="Tcedilla" unicode="&#x162;" horiz-adv-x="471" 
d="M504 635l-13 -96h-168l-70 -539h-122l70 539h-168l13 96h458zM142 -45l104 -4q-12 -53 -36 -87t-71 -62l-63 39q52 42 66 114z" />
    <glyph glyph-name="tcedilla" unicode="&#x163;" horiz-adv-x="326" 
d="M341 469l-12 -85h-110l-26 -189q-7 -51 -7 -70q0 -14 9.5 -27t29.5 -13q13 0 28 2.5t23 4.5l9 3v-87q-47 -19 -105 -19q-61 0 -90 36q-24 30 -24 75q0 28 9 95l26 188h-65l12 86h64l31 122h104l-17 -122h111zM111 -45l104 -4q-12 -53 -36 -87t-71 -62l-63 39
q52 42 66 114z" />
    <glyph glyph-name="Tcaron" unicode="&#x164;" horiz-adv-x="471" 
d="M504 635l-13 -96h-168l-70 -539h-122l70 539h-168l13 96h458zM430 820l-104 -130h-99l-69 130h80l45 -82l67 82h80z" />
    <glyph glyph-name="tcaron" unicode="&#x165;" horiz-adv-x="326" 
d="M341 469l-12 -85h-110l-26 -189q-7 -51 -7 -70q0 -14 9.5 -27t29.5 -13q13 0 28 2.5t23 4.5l9 3v-87q-47 -19 -105 -19q-61 0 -90 36q-24 30 -24 75q0 28 9 95l26 188h-65l12 86h64l31 122h104l-17 -122h111zM304 680l100 -2q-13 -107 -67 -180l-73 2q34 81 40 180z" />
    <glyph glyph-name="Tbar" unicode="&#x166;" horiz-adv-x="471" 
d="M429 323l-13 -84h-132l-31 -239h-122l31 239h-130l13 84h128l28 216h-168l13 96h458l-13 -96h-168l-28 -216h134z" />
    <glyph glyph-name="tbar" unicode="&#x167;" horiz-adv-x="326" 
d="M314 284l-11 -80h-109l-1 -9q-7 -51 -7 -70q0 -14 9.5 -27t29.5 -13q13 0 28 2.5t23 4.5l9 3v-87q-47 -19 -105 -19q-61 0 -90 36q-24 30 -24 75q0 28 9 95l1 9h-64l12 80h63l14 99h-65l13 86h63l31 122h104l-17 -122h111l-12 -85h-110l-14 -100h109z" />
    <glyph glyph-name="Utilde" unicode="&#x168;" horiz-adv-x="616" 
d="M587 635l-50 -386q-16 -127 -74 -188q-67 -72 -198 -72q-115 0 -168 66q-40 50 -40 140q0 18 1 27t3.5 35t2.5 27l45 351h122l-50 -390q-3 -24 -3 -43q0 -35 11 -57q21 -46 92 -46q68 0 101 45q24 33 33 101l50 390h122zM459 812l56 -10q-8 -45 -37 -75.5t-68 -30.5
q-35 0 -67 27q-3 2 -9.5 7.5t-10 8.5t-10 5.5t-12.5 2.5q-18 0 -29.5 -16.5t-14.5 -32.5l-56 9q8 45 37 76t68 31q35 0 67 -27q3 -2 9.5 -7.5t10 -8.5t10 -5.5t12.5 -2.5q18 0 29.5 16.5t14.5 32.5z" />
    <glyph glyph-name="utilde" unicode="&#x169;" horiz-adv-x="510" 
d="M485 469l-61 -469h-109v70q-11 -16 -27 -32t-48.5 -32.5t-69.5 -16.5q-71 0 -105 51q-21 32 -21 85q0 30 6 80l34 264h118l-37 -284q-2 -16 -2 -24q0 -31 12 -46q16 -20 45 -20q35 0 70 35q13 13 23.5 28.5t14.5 23.5l3 9l36 278h118zM395 647l56 -10q-8 -45 -37 -75.5
t-68 -30.5q-35 0 -67 27q-3 2 -9.5 7.5t-10 8.5t-10 5.5t-12.5 2.5q-18 0 -29.5 -16.5t-14.5 -32.5l-56 9q8 45 37 76t68 31q35 0 67 -27q3 -2 9.5 -7.5t10 -8.5t10 -5.5t12.5 -2.5q18 0 29.5 16.5t14.5 32.5z" />
    <glyph glyph-name="Umacron" unicode="&#x16a;" horiz-adv-x="616" 
d="M587 635l-50 -386q-16 -127 -74 -188q-67 -72 -198 -72q-115 0 -168 66q-40 50 -40 140q0 18 1 27t3.5 35t2.5 27l45 351h122l-50 -390q-3 -24 -3 -43q0 -35 11 -57q21 -46 92 -46q68 0 101 45q24 33 33 101l50 390h122zM504 788l-8 -66h-276l8 66h276z" />
    <glyph glyph-name="umacron" unicode="&#x16b;" horiz-adv-x="510" 
d="M485 469l-61 -469h-109v70q-11 -16 -27 -32t-48.5 -32.5t-69.5 -16.5q-71 0 -105 51q-21 32 -21 85q0 30 6 80l34 264h118l-37 -284q-2 -16 -2 -24q0 -31 12 -46q16 -20 45 -20q35 0 70 35q13 13 23.5 28.5t14.5 23.5l3 9l36 278h118zM437 623l-8 -66h-276l8 66h276z" />
    <glyph glyph-name="Ubreve" unicode="&#x16c;" horiz-adv-x="616" 
d="M587 635l-50 -386q-16 -127 -74 -188q-67 -72 -198 -72q-115 0 -168 66q-40 50 -40 140q0 18 1 27t3.5 35t2.5 27l45 351h122l-50 -390q-3 -24 -3 -43q0 -35 11 -57q21 -46 92 -46q68 0 101 45q24 33 33 101l50 390h122zM448 822l54 -10q-15 -55 -54 -89t-93 -34
q-55 0 -87.5 34t-35.5 89l55 10q13 -69 74 -69q30 0 53 19.5t34 49.5z" />
    <glyph glyph-name="ubreve" unicode="&#x16d;" horiz-adv-x="510" 
d="M485 469l-61 -469h-109v70q-11 -16 -27 -32t-48.5 -32.5t-69.5 -16.5q-71 0 -105 51q-21 32 -21 85q0 30 6 80l34 264h118l-37 -284q-2 -16 -2 -24q0 -31 12 -46q16 -20 45 -20q35 0 70 35q13 13 23.5 28.5t14.5 23.5l3 9l36 278h118zM384 657l54 -10q-15 -55 -54 -89
t-93 -34q-55 0 -87.5 34t-35.5 89l55 10q13 -69 74 -69q30 0 53 19.5t34 49.5z" />
    <glyph glyph-name="Uring" unicode="&#x16e;" horiz-adv-x="616" 
d="M587 635l-50 -386q-16 -127 -74 -188q-67 -72 -198 -72q-115 0 -168 66q-40 50 -40 140q0 18 1 27t3.5 35t2.5 27l45 351h122l-50 -390q-3 -24 -3 -43q0 -35 11 -57q21 -46 92 -46q68 0 101 45q24 33 33 101l50 390h122zM455 773q0 -40 -27.5 -66.5t-69.5 -26.5
q-37 0 -60 22.5t-23 59.5q0 40 27.5 66.5t69.5 26.5q37 0 60 -22.5t23 -59.5zM408 771q0 18 -10.5 29.5t-28.5 11.5q-21 0 -34 -13t-13 -35q0 -18 10.5 -29.5t28.5 -11.5q21 0 34 13.5t13 34.5z" />
    <glyph glyph-name="uring" unicode="&#x16f;" horiz-adv-x="510" 
d="M485 469l-61 -469h-109v70q-11 -16 -27 -32t-48.5 -32.5t-69.5 -16.5q-71 0 -105 51q-21 32 -21 85q0 30 6 80l34 264h118l-37 -284q-2 -16 -2 -24q0 -31 12 -46q16 -20 45 -20q35 0 70 35q13 13 23.5 28.5t14.5 23.5l3 9l36 278h118zM388 608q0 -40 -27.5 -66.5
t-69.5 -26.5q-37 0 -60 22.5t-23 59.5q0 40 27.5 66.5t69.5 26.5q37 0 60 -22.5t23 -59.5zM341 606q0 18 -10.5 29.5t-28.5 11.5q-20 0 -33.5 -13.5t-13.5 -34.5q0 -18 10.5 -29.5t28.5 -11.5q20 0 33.5 13t13.5 35z" />
    <glyph glyph-name="Uhungarumlaut" unicode="&#x170;" horiz-adv-x="616" 
d="M587 635l-50 -386q-16 -127 -74 -188q-67 -72 -198 -72q-115 0 -168 66q-40 50 -40 140q0 18 1 27t3.5 35t2.5 27l45 351h122l-50 -390q-3 -24 -3 -43q0 -35 11 -57q21 -46 92 -46q68 0 101 45q24 33 33 101l50 390h122zM574 820l-112 -130h-82l80 130h114zM418 820
l-112 -130h-82l81 130h113z" />
    <glyph glyph-name="uhungarumlaut" unicode="&#x171;" horiz-adv-x="510" 
d="M485 469l-61 -469h-109v70q-11 -16 -27 -32t-48.5 -32.5t-69.5 -16.5q-71 0 -105 51q-21 32 -21 85q0 30 6 80l34 264h118l-37 -284q-2 -16 -2 -24q0 -31 12 -46q16 -20 45 -20q35 0 70 35q13 13 23.5 28.5t14.5 23.5l3 9l36 278h118zM507 655l-112 -130h-82l80 130h114z
M351 655l-112 -130h-82l81 130h113z" />
    <glyph glyph-name="Uogonek" unicode="&#x172;" horiz-adv-x="616" 
d="M428 -104l21 -40q-16 -16 -47.5 -30t-67.5 -14q-41 0 -65 21.5t-24 59.5q0 53 46 97q-9 -1 -26 -1q-115 0 -168 66q-40 50 -40 140q0 30 7 89l45 351h122l-50 -390q-3 -24 -3 -43q0 -35 11 -57q21 -46 92 -46q68 0 101 45q24 33 33 101l50 390h122l-50 -386
q-16 -127 -74 -188q-31 -33 -71 -50q-71 -47 -71 -94q0 -42 49 -42q30 0 58 21z" />
    <glyph glyph-name="uogonek" unicode="&#x173;" horiz-adv-x="510" 
d="M485 469l-61 -469h-52q-71 -46 -71 -90q0 -35 38 -35q31 0 58 20l21 -40q-46 -43 -109 -43q-41 0 -62.5 20.5t-21.5 55.5q0 70 90 125v57q-11 -16 -27 -32t-48.5 -32.5t-69.5 -16.5q-71 0 -105 51q-21 32 -21 85q0 30 6 80l34 264h118l-37 -284q-2 -16 -2 -24
q0 -31 12 -46q16 -20 45 -20q35 0 70 35q13 13 23.5 28.5t14.5 23.5l3 9l36 278h118z" />
    <glyph glyph-name="Wcircumflex" unicode="&#x174;" horiz-adv-x="813" 
d="M844 635l-236 -635h-131l-49 485l-177 -485h-131l-69 635h124l40 -482l168 482h129l45 -482l164 482h123zM588 690h-80l-45 80l-67 -80h-80l103 130h100z" />
    <glyph glyph-name="wcircumflex" unicode="&#x175;" horiz-adv-x="675" 
d="M698 469l-187 -469h-118l-45 330l-132 -330h-118l-66 469h118l32 -336l127 336h113l41 -336l118 336h117zM504 525h-80l-45 80l-67 -80h-80l103 130h100z" />
    <glyph glyph-name="Ycircumflex" unicode="&#x176;" horiz-adv-x="509" 
d="M556 635l-249 -377l-33 -258h-122l34 258l-151 377h129l95 -279l168 279h129zM435 690h-80l-45 80l-67 -80h-80l103 130h100z" />
    <glyph glyph-name="ycircumflex" unicode="&#x177;" horiz-adv-x="459" 
d="M487 469l-250 -514q-34 -69 -67 -99t-85 -30q-50 0 -98 26l36 85q22 -13 43 -13q33 0 50 41l18 45l-102 459h122l59 -347l152 347h122zM397 525h-80l-45 80l-67 -80h-80l103 130h100z" />
    <glyph glyph-name="Ydieresis" unicode="&#x178;" horiz-adv-x="509" 
d="M556 635l-249 -377l-33 -258h-122l34 258l-151 377h129l95 -279l168 279h129zM443 761q0 -27 -16.5 -44.5t-43.5 -17.5q-23 0 -37 14t-14 36q0 26 17 44t44 18q23 0 36.5 -14t13.5 -36zM287 761q0 -27 -16.5 -44.5t-43.5 -17.5q-23 0 -36.5 14t-13.5 36q0 26 17 44t43 18
q23 0 36.5 -14t13.5 -36z" />
    <glyph glyph-name="Zacute" unicode="&#x179;" horiz-adv-x="538" 
d="M538 635l-12 -90l-364 -447h321l-13 -98h-470l12 89l369 450h-305l13 96h449zM463 820l-112 -130h-82l80 130h114z" />
    <glyph glyph-name="zacute" unicode="&#x17a;" horiz-adv-x="424" 
d="M426 469l-11 -82l-264 -298h236l-13 -89h-377l11 80l270 302h-223l12 87h359zM392 655l-112 -130h-82l80 130h114z" />
    <glyph glyph-name="Zdotaccent" unicode="&#x17b;" horiz-adv-x="538" 
d="M538 635l-12 -90l-364 -447h321l-13 -98h-470l12 89l369 450h-305l13 96h449zM385 769q0 -30 -19 -50t-49 -20q-27 0 -42.5 15.5t-15.5 40.5q0 29 19.5 49.5t49.5 20.5q26 0 41.5 -15.5t15.5 -40.5z" />
    <glyph glyph-name="zdotaccent" unicode="&#x17c;" horiz-adv-x="424" 
d="M426 469l-11 -82l-264 -298h236l-13 -89h-377l11 80l270 302h-223l12 87h359zM323 604q0 -30 -19 -50t-49 -20q-27 0 -42.5 16t-15.5 40q0 29 19.5 49.5t49.5 20.5q26 0 41.5 -15.5t15.5 -40.5z" />
    <glyph glyph-name="Zcaron" unicode="&#x17d;" horiz-adv-x="538" 
d="M538 635l-12 -90l-364 -447h321l-13 -98h-470l12 89l369 450h-305l13 96h449zM469 820l-104 -130h-99l-69 130h80l45 -82l67 82h80z" />
    <glyph glyph-name="zcaron" unicode="&#x17e;" horiz-adv-x="424" 
d="M426 469l-11 -82l-264 -298h236l-13 -89h-377l11 80l270 302h-223l12 87h359zM403 655l-104 -130h-99l-69 130h80l45 -82l67 82h80z" />
    <glyph glyph-name="florin" unicode="&#x192;" 
d="M533 629l-39 -77q-27 20 -56 20q-32 0 -49 -26t-29 -68l-25 -86h107l-10 -66h-118l-86 -283q-28 -93 -71 -134q-46 -43 -112 -43q-55 0 -92 30l42 79q22 -16 52 -16q47 0 73 88l84 279h-98l10 65h109l28 96q32 103 75 140q41 35 107 35q58 0 98 -33z" />
    <glyph glyph-name="AEacute" unicode="&#x1fc;" horiz-adv-x="826" 
d="M817 635l-13 -97h-243l-20 -157h226l-13 -98h-226l-24 -184h254l-13 -99h-376l22 165h-202l-106 -165h-137l428 635h443zM439 539h-12l-181 -279h157zM639 820l-112 -130h-82l80 130h114z" />
    <glyph glyph-name="aeacute" unicode="&#x1fd;" horiz-adv-x="740" 
d="M722 350q0 -75 -67.5 -118t-201.5 -43q-5 0 -15 0.5t-14 0.5v-12q0 -44 23 -70t72 -26q44 0 81 19t52 34l45 -70q-71 -76 -200 -76q-59 0 -97 22.5t-55 48.5q-63 -71 -175 -71q-66 0 -104.5 33.5t-38.5 99.5q0 35 14.5 62.5t35.5 45t52 30t56.5 18.5t57.5 9.5t46.5 4
t30.5 0.5q5 25 5 37q0 28 -21 45t-64 17q-67 0 -130 -41l-38 78q83 52 188 52q112 0 140 -70q57 70 160 70q76 0 119 -37.5t43 -92.5zM612 345q0 23 -16 38t-45 15q-37 0 -72 -30t-49 -97q12 -1 29 -1q65 0 109 18t44 57zM314 135q-6 19 -6 76q-167 0 -167 -82q0 -29 20 -43
t51 -14q29 0 61.5 20t40.5 43zM575 655l-112 -130h-82l80 130h114z" />
    <glyph glyph-name="Oslashacute" unicode="&#x1fe;" horiz-adv-x="658" 
d="M647 624l-70 -79q46 -67 46 -170q0 -163 -90 -274.5t-241 -111.5q-97 0 -164 50l-66 -74l-52 46l70 79q-46 70 -46 170q0 163 90.5 274t241.5 111q99 0 163 -49l66 74zM451 508q-36 36 -97 36q-82 0 -139 -77t-57 -197q0 -44 12 -79zM500 370q0 40 -11 75l-280 -316
q36 -33 95 -33q83 0 139.5 77t56.5 197zM524 820l-112 -130h-82l80 130h114z" />
    <glyph glyph-name="oslashacute" unicode="&#x1ff;" horiz-adv-x="513" 
d="M498 452l-48 -50q33 -51 33 -128q0 -124 -69.5 -204.5t-184.5 -80.5q-80 0 -130 39l-46 -49l-36 37l47 50q-34 49 -34 129q0 124 69.5 204.5t184.5 80.5q81 0 132 -40l46 49zM339 359q-23 29 -65 29q-57 0 -90.5 -56t-33.5 -132q0 -21 3 -39zM363 270q0 20 -3 36
l-185 -196q23 -28 64 -28q57 0 90.5 56t33.5 132zM436 655l-112 -130h-82l80 130h114z" />
    <glyph glyph-name="Scommaaccent" unicode="&#x218;" horiz-adv-x="495" 
d="M489 555l-65 -85q-28 32 -69 52.5t-84 20.5t-67 -19t-24 -45q0 -35 41 -64q3 -2 99 -55q56 -31 82 -57q47 -47 47 -113q0 -83 -58 -138q-67 -63 -171 -63q-77 0 -140 36q-26 15 -52 39.5t-33 40.5l71 71q25 -34 68 -58.5t92 -24.5t74 22t25 51q0 39 -45 69q-1 1 -85 47
q-50 28 -75 48q-61 50 -61 130q0 98 86 152q53 33 129 33q61 0 111 -20q67 -27 104 -70zM167 -45l104 -4q-12 -53 -36 -87t-71 -62l-63 39q52 42 66 114z" />
    <glyph glyph-name="scommaaccent" unicode="&#x219;" horiz-adv-x="405" 
d="M398 403l-58 -73q-21 24 -55 39q-43 19 -75 19q-25 0 -39 -11t-14 -27q0 -25 38 -45q9 -5 31 -15t30 -14q48 -24 68 -41q45 -38 45 -98q0 -68 -54 -110q-48 -37 -125 -37q-66 0 -121 31q-16 9 -38 27t-33 34l63 70q23 -27 54 -46q40 -24 85 -24q28 0 41.5 13t13.5 30
q0 23 -36 42q-11 6 -39.5 19t-34.5 16q-39 19 -59 37q-42 37 -42 96q0 34 16 62.5t28 38t23 16.5q45 27 104 27q50 0 96 -19q51 -21 87 -57zM137 -45l104 -4q-12 -53 -36 -87t-71 -62l-63 39q52 42 66 114z" />
    <glyph glyph-name="Tcommaaccent" unicode="&#x21a;" horiz-adv-x="471" 
d="M504 635l-13 -96h-168l-70 -539h-122l70 539h-168l13 96h458zM142 -45l104 -4q-12 -53 -36 -87t-71 -62l-63 39q52 42 66 114z" />
    <glyph glyph-name="tcommaaccent" unicode="&#x21b;" horiz-adv-x="326" 
d="M341 469l-12 -85h-110l-26 -189q-7 -51 -7 -70q0 -14 9.5 -27t29.5 -13q13 0 28 2.5t23 4.5l9 3v-87q-47 -19 -105 -19q-61 0 -90 36q-24 30 -24 75q0 28 9 95l26 188h-65l12 86h64l31 122h104l-17 -122h111zM111 -45l104 -4q-12 -53 -36 -87t-71 -62l-63 39
q52 42 66 114z" />
    <glyph glyph-name="circumflex" unicode="&#x2c6;" horiz-adv-x="402" 
d="M337 525h-80l-45 80l-67 -80h-80l103 130h100z" />
    <glyph glyph-name="caron" unicode="&#x2c7;" horiz-adv-x="402" 
d="M337 655l-104 -130h-99l-69 130h80l45 -82l67 82h80z" />
    <glyph glyph-name="uni02C9" unicode="&#x2c9;" horiz-adv-x="402" 
d="M343 613l-8 -66h-276l8 66h276z" />
    <glyph glyph-name="breve" unicode="&#x2d8;" horiz-adv-x="402" 
d="M282 657l54 -10q-15 -55 -54 -89t-93 -34q-55 0 -87.5 34t-35.5 89l55 10q13 -69 74 -69q30 0 53 19.5t34 49.5z" />
    <glyph glyph-name="dotaccent" unicode="&#x2d9;" horiz-adv-x="402" 
d="M264 604q0 -30 -19 -50t-49 -20q-26 0 -42 16t-16 40q0 29 19.5 49.5t49.5 20.5q26 0 41.5 -15.5t15.5 -40.5z" />
    <glyph glyph-name="ring" unicode="&#x2da;" horiz-adv-x="402" 
d="M291 608q0 -40 -27.5 -66.5t-69.5 -26.5q-37 0 -60 22.5t-23 59.5q0 40 27.5 66.5t69.5 26.5q37 0 60 -22.5t23 -59.5zM244 606q0 18 -10.5 29.5t-28.5 11.5q-21 0 -34 -13.5t-13 -34.5q0 -18 10.5 -29.5t28.5 -11.5q21 0 34 13t13 35z" />
    <glyph glyph-name="ogonek" unicode="&#x2db;" horiz-adv-x="402" 
d="M378 -104l21 -40q-16 -16 -47.5 -30t-67.5 -14q-41 0 -65 21.5t-24 59.5q0 35 20.5 65.5t44.5 46.5l68 -5q-57 -37 -57 -83q0 -42 49 -42q30 0 58 21z" />
    <glyph glyph-name="tilde" unicode="&#x2dc;" horiz-adv-x="402" 
d="M302 647l56 -10q-8 -45 -37 -75.5t-68 -30.5q-35 0 -67 27q-3 2 -9.5 7.5t-10 8.5t-10 5.5t-12.5 2.5q-18 0 -29.5 -16.5t-14.5 -32.5l-56 9q8 45 37 76t68 31q35 0 67 -27q3 -2 9.5 -7.5t10 -8.5t10 -5.5t12.5 -2.5q18 0 29.5 16.5t14.5 32.5z" />
    <glyph glyph-name="hungarumlaut" unicode="&#x2dd;" horiz-adv-x="402" 
d="M376 655l-112 -130h-82l80 130h114zM220 655l-112 -130h-82l81 130h113z" />
    <glyph glyph-name="uni03A9" unicode="&#x3a9;" horiz-adv-x="644" 
d="M614 0h-253v85q63 33 105.5 94.5t42.5 155.5q0 101 -52 159.5t-135 58.5q-84 0 -136 -58.5t-52 -159.5q0 -94 42.5 -155.5t105.5 -94.5v-85h-252v90h125q-9 5 -25 20.5t-38.5 46t-38.5 81t-16 109.5q0 129 80 213.5t205 84.5q124 0 204 -84.5t80 -212.5q0 -59 -15.5 -110
t-38.5 -81t-39 -46t-25 -21h126v-90z" />
    <glyph glyph-name="uni03BC" unicode="&#x3bc;" 
d="M491 469l-61 -469h-109v65q-55 -65 -131 -65q-11 0 -22 2.5t-16 5.5l-5 2l-23 -175h-118l83 634h118l-36 -278q-2 -20 -2 -27q0 -68 62 -68q34 0 63 28.5t42 65.5l37 279h118z" />
    <glyph glyph-name="pi" unicode="&#x3c0;" horiz-adv-x="546" 
d="M523 379h-75v-379h-97v379h-155v-379h-98v379h-75v90h500v-90z" />
    <glyph glyph-name="Wgrave" unicode="&#x1e80;" horiz-adv-x="813" 
d="M844 635l-236 -635h-131l-49 485l-177 -485h-131l-69 635h124l40 -482l168 482h129l45 -482l164 482h123zM496 690h-82l-83 130h114z" />
    <glyph glyph-name="wgrave" unicode="&#x1e81;" horiz-adv-x="675" 
d="M698 469l-187 -469h-118l-45 330l-132 -330h-118l-66 469h118l32 -336l127 336h113l41 -336l118 336h117zM415 525h-82l-83 130h114z" />
    <glyph glyph-name="Wacute" unicode="&#x1e82;" horiz-adv-x="813" 
d="M844 635l-236 -635h-131l-49 485l-177 -485h-131l-69 635h124l40 -482l168 482h129l45 -482l164 482h123zM604 820l-112 -130h-82l80 130h114z" />
    <glyph glyph-name="wacute" unicode="&#x1e83;" horiz-adv-x="675" 
d="M698 469l-187 -469h-118l-45 330l-132 -330h-118l-66 469h118l32 -336l127 336h113l41 -336l118 336h117zM521 655l-112 -130h-82l80 130h114z" />
    <glyph glyph-name="Wdieresis" unicode="&#x1e84;" horiz-adv-x="813" 
d="M844 635l-236 -635h-131l-49 485l-177 -485h-131l-69 635h124l40 -482l168 482h129l45 -482l164 482h123zM594 761q0 -27 -16.5 -44.5t-43.5 -17.5q-23 0 -37 14t-14 36q0 26 17 44t44 18q23 0 36.5 -14t13.5 -36zM438 761q0 -27 -16.5 -44.5t-43.5 -17.5q-23 0 -36.5 14
t-13.5 36q0 26 17 44t43 18q23 0 36.5 -14t13.5 -36z" />
    <glyph glyph-name="wdieresis" unicode="&#x1e85;" horiz-adv-x="675" 
d="M698 469l-187 -469h-118l-45 330l-132 -330h-118l-66 469h118l32 -336l127 336h113l41 -336l118 336h117zM510 596q0 -27 -16.5 -44.5t-43.5 -17.5q-23 0 -37 14t-14 36q0 26 17 44t44 18q23 0 36.5 -14t13.5 -36zM354 596q0 -27 -16.5 -44.5t-43.5 -17.5q-23 0 -36.5 14
t-13.5 36q0 26 17 44t43 18q23 0 36.5 -14t13.5 -36z" />
    <glyph glyph-name="Ygrave" unicode="&#x1ef2;" horiz-adv-x="509" 
d="M556 635l-249 -377l-33 -258h-122l34 258l-151 377h129l95 -279l168 279h129zM343 690h-82l-83 130h114z" />
    <glyph glyph-name="ygrave" unicode="&#x1ef3;" horiz-adv-x="459" 
d="M487 469l-250 -514q-34 -69 -67 -99t-85 -30q-50 0 -98 26l36 85q22 -13 43 -13q33 0 50 41l18 45l-102 459h122l59 -347l152 347h122zM311 525h-82l-83 130h114z" />
    <glyph glyph-name="endash" unicode="&#x2013;" horiz-adv-x="459" 
d="M428 277l-13 -80h-384l13 80h384z" />
    <glyph glyph-name="emdash" unicode="&#x2014;" horiz-adv-x="764" 
d="M734 277l-13 -80h-691l13 80h691z" />
    <glyph glyph-name="quoteleft" unicode="&#x2018;" horiz-adv-x="258" 
d="M188 664l63 -39q-100 -92 -117 -219l-97 32q7 60 50.5 124.5t100.5 101.5z" />
    <glyph glyph-name="quoteright" unicode="&#x2019;" horiz-adv-x="258" 
d="M176 664l96 -32q-7 -59 -50 -124t-100 -102l-63 39q100 92 117 219z" />
    <glyph glyph-name="quotesinglbase" unicode="&#x201a;" horiz-adv-x="258" 
d="M95 143l97 -31q-7 -60 -50.5 -125t-100.5 -102l-63 39q100 92 117 219z" />
    <glyph glyph-name="quotedblleft" unicode="&#x201c;" horiz-adv-x="446" 
d="M437 625q-99 -93 -116 -219l-97 32q7 60 50.5 124.5t100.5 101.5zM251 625q-100 -92 -117 -219l-97 32q7 60 50.5 124.5t100.5 101.5z" />
    <glyph glyph-name="quotedblright" unicode="&#x201d;" horiz-adv-x="446" 
d="M460 632q-7 -60 -50.5 -124.5t-100.5 -101.5l-63 39q100 92 117 219zM273 632q-7 -60 -50.5 -124.5t-100.5 -101.5l-63 39q100 92 117 219z" />
    <glyph glyph-name="quotedblbase" unicode="&#x201e;" horiz-adv-x="446" 
d="M380 112q-8 -61 -50 -125.5t-99 -101.5l-62 39q98 90 117 219zM183 112q-7 -61 -49.5 -125.5t-98.5 -101.5l-63 39q100 92 117 219z" />
    <glyph glyph-name="dagger" unicode="&#x2020;" 
d="M485 474l-11 -87l-174 9l-15 -196l-57 -316h-57l26 316l37 196l-175 -9l11 87l173 -10l15 197h89l-37 -197z" />
    <glyph glyph-name="daggerdbl" unicode="&#x2021;" 
d="M485 474l-11 -87l-174 9l-5 -123l-28 -124l175 10l-11 -88l-174 10l-14 -197h-89l37 197l-175 -10l11 88l174 -10l5 124l28 123l-175 -9l11 87l173 -10l15 197h89l-37 -197z" />
    <glyph glyph-name="bullet" unicode="&#x2022;" 
d="M381 328q0 -61 -38.5 -101t-96.5 -40q-50 0 -80.5 33t-30.5 84q0 61 38.5 101t96.5 40q51 0 81 -33t30 -84z" />
    <glyph glyph-name="ellipsis" unicode="&#x2026;" horiz-adv-x="753" 
d="M667 63q0 -32 -20.5 -53t-53.5 -21q-29 0 -46 17t-17 46q0 33 21 54t54 21q28 0 45 -17.5t17 -46.5zM421 63q0 -32 -20.5 -53t-53.5 -21q-29 0 -46 17t-17 46q0 33 21 54t53 21q29 0 46 -17.5t17 -46.5zM172 63q0 -32 -20.5 -53t-53.5 -21q-29 0 -45.5 17t-16.5 46
q0 33 20.5 54t53.5 21q28 0 45 -17.5t17 -46.5z" />
    <glyph glyph-name="perthousand" unicode="&#x2030;" horiz-adv-x="1110" 
d="M1060 200q0 -88 -46.5 -149.5t-121.5 -61.5q-67 0 -102 43.5t-35 121.5q0 88 46.5 149.5t121.5 61.5q67 0 102 -43.5t35 -121.5zM725 200q0 -88 -46.5 -149.5t-121.5 -61.5q-67 0 -102 44t-35 122q0 87 46.5 148.5t121.5 61.5q67 0 102 -43.5t35 -121.5zM638 624
l-452 -638l-49 37l452 637zM355 492q0 -87 -46.5 -148.5t-121.5 -61.5q-67 0 -102 43.5t-35 121.5q0 87 46.5 148.5t121.5 61.5q67 0 102 -43.5t35 -121.5zM975 200q0 95 -57 95q-38 0 -58 -42.5t-20 -97.5q0 -94 57 -94q36 0 57 42.5t21 96.5zM639 201q0 94 -56 94
q-38 0 -58 -42.5t-20 -97.5q0 -94 57 -94q36 0 56.5 43t20.5 97zM270 493q0 94 -57 94q-38 0 -58 -42t-20 -97q0 -95 56 -95q37 0 58 43t21 97z" />
    <glyph glyph-name="guilsinglleft" unicode="&#x2039;" horiz-adv-x="274" 
d="M235 399l-141 -149l100 -160l-58 -41l-117 176l8 58l159 165z" />
    <glyph glyph-name="guilsinglright" unicode="&#x203a;" horiz-adv-x="274" 
d="M245 276l-8 -59l-159 -164l-49 48l141 149l-100 160l58 41z" />
    <glyph glyph-name="fraction" unicode="&#x2044;" horiz-adv-x="178" 
d="M346 625l-451 -637l-48 34l451 637z" />
    <glyph glyph-name="zero.superior" unicode="&#x2070;" horiz-adv-x="387" 
d="M383 616q0 -100 -44 -171t-125 -71q-128 0 -128 154q0 100 44 171t125 71q128 0 128 -154zM301 620q0 86 -52 86q-39 0 -60 -59.5t-21 -121.5q0 -86 52 -86q39 0 60 59.5t21 121.5z" />
    <glyph glyph-name="four.superior" unicode="&#x2074;" horiz-adv-x="387" 
d="M383 527l-9 -67h-56l-10 -78h-84l10 78h-186l9 67l197 238h102l-30 -238h57zM264 695l-132 -168h111z" />
    <glyph glyph-name="five.superior" unicode="&#x2075;" horiz-adv-x="387" 
d="M371 764l-9 -69h-152l-19 -74q19 10 55 10q51 0 81.5 -33.5t30.5 -82.5q0 -66 -46 -104t-110 -38q-88 0 -135 58l42 52q12 -15 37 -29t50 -14q35 0 57 19.5t22 50.5q0 29 -17.5 44t-46.5 15q-38 0 -61 -23l-47 21l53 197h215z" />
    <glyph glyph-name="six.superior" unicode="&#x2076;" horiz-adv-x="387" 
d="M375 739l-33 -54q-24 24 -74 24q-35 0 -62 -28q-30 -30 -34 -79q31 28 89 28q43 0 74 -26.5t31 -83.5q0 -67 -42.5 -105.5t-107.5 -38.5q-62 0 -96 42.5t-34 111.5q0 123 58 187q50 55 126 55q65 0 105 -33zM288 512q0 27 -15.5 42t-42.5 15q-20 0 -38.5 -10t-26.5 -23
q-1 -13 -1 -24q0 -30 16 -51.5t43 -21.5q30 0 47.5 21t17.5 52z" />
    <glyph glyph-name="seven.superior" unicode="&#x2077;" horiz-adv-x="387" 
d="M387 764l-10 -71l-186 -311h-91l194 310h-185l11 72h267z" />
    <glyph glyph-name="eight.superior" unicode="&#x2078;" horiz-adv-x="387" 
d="M377 676q0 -62 -76 -91q63 -27 63 -87q0 -58 -44.5 -90t-105.5 -32q-59 0 -97 26t-38 78q0 40 26.5 66.5t59.5 36.5q-53 24 -53 78q0 51 41 81t100 30q57 0 90.5 -25t33.5 -71zM298 667q0 47 -52 47q-23 0 -39 -14t-16 -36q0 -36 43 -47l12 -4l18 8q12 5 23 17t11 29z
M285 495q0 39 -49 54l-19 6l-14 -6q-43 -17 -43 -58q0 -23 16.5 -38t44.5 -15q29 0 46.5 16.5t17.5 40.5z" />
    <glyph glyph-name="nine.superior" unicode="&#x2079;" horiz-adv-x="387" 
d="M87 409l33 54q24 -24 74 -24q35 0 62 28q30 30 34 79q-31 -28 -89 -28q-43 0 -74 26.5t-31 83.5q0 67 42.5 105.5t107.5 38.5q62 0 96 -42.5t34 -111.5q0 -123 -58 -187q-50 -55 -126 -55q-65 0 -105 33zM174 636q0 -27 15.5 -42t42.5 -15q20 0 38.5 10t26.5 23
q1 13 1 24q0 30 -16 51.5t-43 21.5q-30 0 -47.5 -21t-17.5 -52z" />
    <glyph glyph-name="zero.inferior" unicode="&#x2080;" horiz-adv-x="387" 
d="M320 114q0 -100 -44 -171t-125 -71q-128 0 -128 154q0 100 44 171t125 71q128 0 128 -154zM238 118q0 86 -52 86q-39 0 -60 -59.5t-21 -121.5q0 -86 52 -86q39 0 60 59.5t21 121.5z" />
    <glyph glyph-name="one.inferior" unicode="&#x2081;" horiz-adv-x="387" 
d="M254 269l-50 -389h-87l37 286q-24 -18 -72 -27l-16 64q30 6 67 25.5t53 40.5h68z" />
    <glyph glyph-name="two.inferior" unicode="&#x2082;" horiz-adv-x="387" 
d="M316 167q0 -23 -7 -42t-25 -37t-25 -24t-31 -23q-5 -4 -21 -15.5t-24 -18t-20 -16.5t-20.5 -19.5t-15.5 -19.5h175l-10 -72h-289q15 96 138 184q4 3 15 10.5t15 11t13 10t13 10t10.5 9.5t9.5 10.5t6.5 10t5 10.5t1.5 10q0 19 -14.5 31t-41.5 12q-46 0 -92 -46l-37 56
q55 62 140 62q58 0 94.5 -28t36.5 -76z" />
    <glyph glyph-name="three.inferior" unicode="&#x2083;" horiz-adv-x="387" 
d="M300 173q0 -39 -26.5 -62t-49.5 -28q24 -6 43 -26.5t19 -57.5q0 -57 -44.5 -92t-106.5 -35q-87 0 -132 64l47 50q35 -46 82 -46q30 0 51.5 15.5t21.5 43.5q0 50 -59 50h-39l8 63h39q30 0 48 13.5t18 35.5q0 45 -59 45q-39 0 -80 -34l-33 51q66 49 127 49q52 0 88.5 -25.5
t36.5 -73.5z" />
    <glyph glyph-name="four.inferior" unicode="&#x2084;" horiz-adv-x="387" 
d="M320 25l-9 -67h-56l-10 -78h-84l10 78h-186l9 67l197 238h102l-30 -238h57zM201 193l-132 -168h111z" />
    <glyph glyph-name="five.inferior" unicode="&#x2085;" horiz-adv-x="387" 
d="M308 262l-9 -69h-152l-19 -74q19 10 55 10q51 0 81.5 -33.5t30.5 -82.5q0 -66 -46 -104t-110 -38q-88 0 -135 58l42 52q12 -15 37 -29t50 -14q35 0 57 19.5t22 50.5q0 29 -17.5 44t-46.5 15q-38 0 -61 -23l-47 21l53 197h215z" />
    <glyph glyph-name="six.inferior" unicode="&#x2086;" horiz-adv-x="387" 
d="M312 237l-33 -54q-24 24 -74 24q-35 0 -62 -28q-30 -30 -34 -79q31 28 89 28q43 0 74 -26.5t31 -83.5q0 -67 -42.5 -105.5t-107.5 -38.5q-62 0 -96 42.5t-34 111.5q0 123 58 187q50 55 126 55q65 0 105 -33zM225 10q0 27 -15.5 42t-42.5 15q-20 0 -38.5 -10t-26.5 -23
q-1 -13 -1 -24q0 -30 16 -51.5t43 -21.5q30 0 47.5 21t17.5 52z" />
    <glyph glyph-name="seven.inferior" unicode="&#x2087;" horiz-adv-x="387" 
d="M324 262l-10 -71l-186 -311h-91l194 310h-185l11 72h267z" />
    <glyph glyph-name="eight.inferior" unicode="&#x2088;" horiz-adv-x="387" 
d="M314 174q0 -62 -76 -91q63 -27 63 -87q0 -58 -44.5 -90t-105.5 -32q-59 0 -97 26t-38 78q0 40 26.5 66.5t59.5 36.5q-53 24 -53 78q0 51 41 81t100 30q57 0 90.5 -25t33.5 -71zM235 165q0 47 -52 47q-23 0 -39 -14t-16 -36q0 -36 43 -47l12 -4l18 8q12 5 23 17t11 29z
M222 -7q0 39 -49 54l-19 6l-14 -6q-43 -17 -43 -58q0 -23 16.5 -38t44.5 -15q29 0 46.5 16.5t17.5 40.5z" />
    <glyph glyph-name="nine.inferior" unicode="&#x2089;" horiz-adv-x="387" 
d="M24 -93l33 54q24 -24 74 -24q35 0 62 28q30 30 34 79q-31 -28 -89 -28q-43 0 -74 26.5t-31 83.5q0 67 42.5 105.5t107.5 38.5q62 0 96 -42.5t34 -111.5q0 -123 -58 -187q-50 -55 -126 -55q-65 0 -105 33zM111 134q0 -27 15.5 -42t42.5 -15q20 0 38.5 10t26.5 23
q1 13 1 24q0 30 -16 51.5t-43 21.5q-30 0 -47.5 -21t-17.5 -52z" />
    <glyph glyph-name="Euro" unicode="&#x20ac;" 
d="M520 545l-62 -58q-4 11 -12.5 24.5t-32 28.5t-52.5 15q-45 0 -78.5 -39.5t-49.5 -96.5h171l-9 -64h-177q-4 -20 -6 -36l-3 -36h177l-9 -65h-168q4 -132 96 -132q64 0 120 69l55 -65q-2 -4 -7 -11t-22.5 -24.5t-38.5 -30.5t-55 -24t-72 -11q-95 0 -141.5 63.5t-50.5 165.5
h-64l9 65h55q2 26 3 36l5 36h-54l9 64h60q30 98 91.5 162t147.5 64q42 0 75.5 -13.5t52 -34t26 -32t11.5 -20.5z" />
    <glyph glyph-name="litre" unicode="&#x2113;" horiz-adv-x="518" 
d="M398 103l31 -50q-67 -67 -141 -67q-58 0 -91 35q-38 39 -38 121v100l-60 -63l-34 45l94 97v221q0 90 35.5 138t97.5 48q53 0 78.5 -34t25.5 -77q0 -67 -29.5 -128.5t-86.5 -130.5l-36 -43v-168q0 -93 65 -93q40 0 89 49zM335 605q0 55 -38 55q-53 0 -53 -108v-153
q9 10 23 29q68 98 68 177z" />
    <glyph glyph-name="trademark" unicode="&#x2122;" horiz-adv-x="714" 
d="M673 635l-29 -340h-69l25 263l-100 -263h-68l-30 263l-45 -263h-64l63 340h95l28 -252l98 252h96zM318 635l-8 -57h-91l-37 -283h-67l37 283h-91l9 57h248z" />
    <glyph glyph-name="Omega" unicode="&#x2126;" horiz-adv-x="644" 
d="M614 0h-253v85q63 33 105.5 94.5t42.5 155.5q0 101 -52 159.5t-135 58.5q-84 0 -136 -58.5t-52 -159.5q0 -94 42.5 -155.5t105.5 -94.5v-85h-252v90h125q-9 5 -25 20.5t-38.5 46t-38.5 81t-16 109.5q0 129 80 213.5t205 84.5q124 0 204 -84.5t80 -212.5q0 -59 -15.5 -110
t-38.5 -81t-39 -46t-25 -21h126v-90z" />
    <glyph glyph-name="estimated" unicode="&#x212e;" horiz-adv-x="681" 
d="M634 303h-466v-209q70 -68 166 -68q77 0 129.5 35.5t94.5 102.5l37 -22q-50 -76 -110.5 -115t-150.5 -39q-132 0 -213.5 91t-81.5 224q0 135 80.5 225t215.5 90q136 0 216.5 -90t82.5 -225zM502 341v171q-72 69 -167 69q-101 0 -167 -68v-172h334z" />
    <glyph glyph-name="onethird" unicode="&#x2153;" horiz-adv-x="817" 
d="M616 625l-451 -637l-48 34l451 637zM238 651l-50 -389h-87l37 286q-24 -18 -72 -27l-16 64q30 6 67 25.5t53 40.5h68zM757 293q0 -39 -26.5 -62t-49.5 -28q24 -6 43 -26.5t19 -57.5q0 -57 -44.5 -92t-106.5 -35q-87 0 -132 64l47 50q35 -46 82 -46q30 0 51.5 15.5
t21.5 43.5q0 50 -59 50h-39l8 63h39q30 0 48 13.5t18 35.5q0 45 -59 45q-39 0 -80 -34l-33 51q66 49 127 49q52 0 88.5 -25.5t36.5 -73.5z" />
    <glyph glyph-name="twothirds" unicode="&#x2154;" horiz-adv-x="940" 
d="M880 293q0 -39 -26.5 -62t-49.5 -28q24 -6 43 -26.5t19 -57.5q0 -57 -44.5 -92t-106.5 -35q-87 0 -132 64l47 50q35 -46 82 -46q30 0 51.5 15.5t21.5 43.5q0 50 -59 50h-39l8 63h39q30 0 48 13.5t18 35.5q0 45 -59 45q-39 0 -80 -34l-33 51q66 49 127 49q52 0 88.5 -25.5
t36.5 -73.5zM363 549q0 -23 -7 -42t-25 -37t-25 -24t-31 -23q-5 -4 -21 -15.5t-24 -18t-20 -16.5t-20.5 -19.5t-15.5 -19.5h175l-10 -72h-289q15 96 138 184q4 3 15 10.5t15 11t13 10t13 10t10.5 9.5t9.5 10.5t6.5 10t5 10.5t1.5 10q0 19 -14.5 31t-41.5 12q-46 0 -92 -46
l-37 56q55 62 140 62q58 0 94.5 -28t36.5 -76zM739 625l-451 -637l-48 34l451 637z" />
    <glyph glyph-name="oneeighth" unicode="&#x215b;" horiz-adv-x="820" 
d="M616 625l-451 -637l-48 34l451 637zM238 651l-50 -389h-87l37 286q-24 -18 -72 -27l-16 64q30 6 67 25.5t53 40.5h68zM760 294q0 -62 -76 -91q63 -27 63 -87q0 -58 -44.5 -90t-105.5 -32q-59 0 -97 26t-38 78q0 40 26.5 66.5t59.5 36.5q-53 24 -53 78q0 51 41 81t100 30
q57 0 90.5 -25t33.5 -71zM681 285q0 47 -52 47q-23 0 -39 -14t-16 -36q0 -36 43 -47l12 -4l18 8q12 5 23 17t11 29zM668 113q0 39 -49 54l-19 6l-14 -6q-43 -17 -43 -58q0 -23 16.5 -38t44.5 -15q29 0 46.5 16.5t17.5 40.5z" />
    <glyph glyph-name="threeeighths" unicode="&#x215c;" horiz-adv-x="878" 
d="M818 294q0 -62 -76 -91q63 -27 63 -87q0 -58 -44.5 -90t-105.5 -32q-59 0 -97 26t-38 78q0 40 26.5 66.5t59.5 36.5q-53 24 -53 78q0 51 41 81t100 30q57 0 90.5 -25t33.5 -71zM739 285q0 47 -52 47q-23 0 -39 -14t-16 -36q0 -36 43 -47l12 -4l18 8q12 5 23 17t11 29z
M726 113q0 39 -49 54l-19 6l-14 -6q-43 -17 -43 -58q0 -23 16.5 -38t44.5 -15q29 0 46.5 16.5t17.5 40.5zM327 555q0 -39 -26.5 -62t-49.5 -28q24 -6 43 -26.5t19 -57.5q0 -57 -44.5 -92t-106.5 -35q-87 0 -132 64l47 50q35 -46 82 -46q30 0 51.5 15.5t21.5 43.5
q0 50 -59 50h-39l8 63h39q30 0 48 13.5t18 35.5q0 45 -59 45q-39 0 -80 -34l-33 51q66 49 127 49q52 0 88.5 -25.5t36.5 -73.5zM680 625l-451 -637l-48 34l451 637z" />
    <glyph glyph-name="fiveeighths" unicode="&#x215d;" horiz-adv-x="882" 
d="M684 625l-451 -637l-48 34l451 637zM334 644l-9 -69h-152l-19 -74q19 10 55 10q51 0 81.5 -33.5t30.5 -82.5q0 -66 -46 -104t-110 -38q-88 0 -135 58l42 52q12 -15 37 -29t50 -14q35 0 57 19.5t22 50.5q0 29 -17.5 44t-46.5 15q-38 0 -61 -23l-47 21l53 197h215zM822 294
q0 -62 -76 -91q63 -27 63 -87q0 -58 -44.5 -90t-105.5 -32q-59 0 -97 26t-38 78q0 40 26.5 66.5t59.5 36.5q-53 24 -53 78q0 51 41 81t100 30q57 0 90.5 -25t33.5 -71zM743 285q0 47 -52 47q-23 0 -39 -14t-16 -36q0 -36 43 -47l12 -4l18 8q12 5 23 17t11 29zM730 113
q0 39 -49 54l-19 6l-14 -6q-43 -17 -43 -58q0 -23 16.5 -38t44.5 -15q29 0 46.5 16.5t17.5 40.5z" />
    <glyph glyph-name="seveneighths" unicode="&#x215e;" horiz-adv-x="824" 
d="M764 294q0 -62 -76 -91q63 -27 63 -87q0 -58 -44.5 -90t-105.5 -32q-59 0 -97 26t-38 78q0 40 26.5 66.5t59.5 36.5q-53 24 -53 78q0 51 41 81t100 30q57 0 90.5 -25t33.5 -71zM685 285q0 47 -52 47q-23 0 -39 -14t-16 -36q0 -36 43 -47l12 -4l18 8q12 5 23 17t11 29z
M672 113q0 39 -49 54l-19 6l-14 -6q-43 -17 -43 -58q0 -23 16.5 -38t44.5 -15q29 0 46.5 16.5t17.5 40.5zM626 625l-451 -637l-48 34l451 637zM347 644l-10 -71l-186 -311h-91l194 310h-185l11 72h267z" />
    <glyph glyph-name="partialdiff" unicode="&#x2202;" horiz-adv-x="546" 
d="M508 238q0 -112 -64.5 -180t-169.5 -68t-170.5 63.5t-65.5 162.5q0 96 60.5 156.5t147.5 60.5q45 0 81 -16t53 -37q-33 81 -107.5 141.5t-165.5 85.5l33 73q138 -31 240 -133q49 -49 88.5 -129t39.5 -180zM397 219q0 61 -34 99.5t-90 38.5t-90 -38.5t-34 -99.5
q0 -60 34 -99t90 -39t90 38.5t34 99.5z" />
    <glyph glyph-name="Delta" unicode="&#x2206;" horiz-adv-x="546" 
d="M546 0h-546l273 653zM409 91l-136 343l-136 -343h272z" />
    <glyph glyph-name="product" unicode="&#x220f;" horiz-adv-x="546" 
d="M531 -185h-226v90h53v660h-155v-660h53v-90h-226v90h76v660h-76v90h501v-90h-76v-660h76v-90z" />
    <glyph glyph-name="summation" unicode="&#x2211;" horiz-adv-x="546" 
d="M519 -185h-495v77l234 358l-229 330v75h480v-240h-92v147h-256l219 -312l-226 -343h272v173h93v-265z" />
    <glyph glyph-name="minus" unicode="&#x2212;" 
d="M466 350l-12 -87h-403l12 87h403z" />
    <glyph glyph-name="uni2215" unicode="&#x2215;" horiz-adv-x="363" 
d="M431 625l-451 -637l-48 34l451 637z" />
    <glyph glyph-name="uni2219" unicode="&#x2219;" horiz-adv-x="258" 
d="M199 288q0 -33 -20.5 -54t-53.5 -21q-28 0 -45 17.5t-17 46.5q0 32 20.5 53t53.5 21q29 0 45.5 -17t16.5 -46z" />
    <glyph glyph-name="radical" unicode="&#x221a;" horiz-adv-x="546" 
d="M528 543h-85l-156 -543h-102l-80 260h-65v93h134l61 -228l130 510h163v-92z" />
    <glyph glyph-name="infinity" unicode="&#x221e;" horiz-adv-x="546" 
d="M526 307q0 -58 -38 -95.5t-97 -37.5q-65 0 -118 66q-53 -66 -118 -66q-58 0 -96.5 37.5t-38.5 95.5t38 95t97 37q66 0 118 -65q52 65 118 65q58 0 96.5 -37.5t38.5 -94.5zM442 307q0 24 -15.5 37.5t-40.5 13.5q-41 0 -75 -51q34 -51 74 -51q25 0 41 13.5t16 37.5z
M235 307q-34 51 -74 51q-25 0 -41 -13.5t-16 -37.5t15.5 -37.5t40.5 -13.5q41 0 75 51z" />
    <glyph glyph-name="integral" unicode="&#x222b;" horiz-adv-x="546" 
d="M439 648l-15 -84q-30 10 -44 10q-32 0 -47 -19q-11 -16 -11 -55v-557q0 -66 -33 -99q-37 -35 -96 -35q-41 0 -86 14l15 84l6 -3q7 -2 17.5 -4.5t20.5 -2.5q34 0 47 19q11 14 11 55l1 556q0 68 32 99q36 36 96 36q41 0 86 -14z" />
    <glyph glyph-name="approxequal" unicode="&#x2248;" 
d="M471 464l26 -72q-72 -53 -149 -53q-29 0 -87.5 22.5t-82.5 22.5q-56 0 -107 -38l-26 73q70 50 149 50q29 0 87.5 -22.5t82.5 -22.5q43 0 107 40zM445 269l27 -72q-71 -51 -150 -51q-29 0 -87 23t-82 23q-52 0 -107 -41l-26 73q75 53 149 53q29 0 87.5 -23t82.5 -23
q53 0 106 38z" />
    <glyph glyph-name="notequal" unicode="&#x2260;" 
d="M478 451l-12 -87h-136l-50 -115h173l-12 -87h-198l-59 -140h-94l60 140h-112l12 87h137l50 115h-174l12 87h198l60 140h93l-60 -140h112z" />
    <glyph glyph-name="lessequal" unicode="&#x2264;" 
d="M498 575l-13 -104l-318 -122l285 -123l-13 -97l-380 179l12 87zM434 86l-12 -86h-403l12 86h403z" />
    <glyph glyph-name="greaterequal" unicode="&#x2265;" 
d="M482 396l-12 -87l-428 -180l14 104l318 122l-286 123l13 97zM439 86l-12 -86h-403l12 86h403z" />
    <glyph glyph-name="lozenge" unicode="&#x25ca;" horiz-adv-x="546" 
d="M519 319l-246 -334l-246 334l246 334zM408 319l-135 191l-135 -191l135 -191z" />
    <glyph glyph-name="zero.fitted" unicode="&#xe097;" horiz-adv-x="544" 
d="M501 391q0 -106 -30 -196.5t-91 -148t-141 -57.5q-99 0 -146 67.5t-47 187.5q0 106 29.5 196t90.5 147.5t142 57.5q99 0 146 -67.5t47 -186.5zM385 394q0 155 -85 155q-42 0 -74.5 -48.5t-48.5 -117t-16 -140.5q0 -156 86 -156q42 0 74.5 48.5t48 117.5t15.5 141z" />
    <glyph glyph-name="two.fitted" unicode="&#xe098;" horiz-adv-x="506" 
d="M465 475q0 -24 -5 -45.5t-17 -42t-20.5 -34t-28 -32t-27 -25t-29.5 -23.5t-23 -18q-5 -4 -26.5 -21t-32 -25.5t-30 -25.5t-30.5 -28.5t-23 -26.5t-18 -28h286l-13 -100h-431q5 41 23.5 82t37 68t51.5 59.5t47 44.5t44 36q7 6 37.5 29t43 34.5t32.5 32t28.5 39t8.5 37.5
q0 47 -28.5 67.5t-71.5 20.5q-36 0 -73.5 -22t-61.5 -53l-65 70q85 100 215 100q84 0 142 -44t58 -126z" />
    <glyph glyph-name="three.fitted" unicode="&#xe099;" horiz-adv-x="510" 
d="M460 485q0 -66 -44 -106t-85 -45q52 -15 79 -53t27 -91q0 -93 -72 -150q-64 -51 -165 -51q-126 0 -205 106l70 70q59 -78 140 -78q49 0 83.5 26.5t34.5 76.5t-29.5 73t-78.5 23h-52l12 91h57q49 0 81.5 26t32.5 67q0 40 -27.5 61t-73.5 21q-73 0 -125 -58l-55 71l8.5 8.5
t24 19.5t39 24.5t52.5 19t66 8.5q91 0 148 -43t57 -117z" />
    <glyph glyph-name="four.fitted" unicode="&#xe09a;" 
d="M492 230l-12 -90h-76l-18 -140h-118l19 140h-285l13 96l317 399h137l-53 -405h76zM338 527l-229 -297h189z" />
    <glyph glyph-name="five.fitted" unicode="&#xe09b;" 
d="M488 635l-13 -97h-240l-42 -145q32 17 92 17q25 0 53.5 -9.5t57.5 -29.5t48 -59t19 -90q0 -105 -70.5 -168t-172.5 -63q-140 0 -210 96l65 70q19 -26 55 -49t83 -23q56 0 95.5 34t39.5 91t-32 85.5t-81 28.5q-27 0 -52 -10t-37 -20l-11 -9l-65 33l89 317h329z" />
    <glyph glyph-name="six.fitted" unicode="&#xe09c;" horiz-adv-x="527" 
d="M500 590l-49 -77q-41 41 -115 41q-62 0 -105 -48q-50 -56 -64 -151q55 50 145 50q68 0 118 -44.5t50 -135.5q0 -102 -63 -169t-170 -67q-102 0 -151.5 73.5t-49.5 179.5q0 91 23.5 173t67.5 135q77 95 202 95q97 0 161 -55zM366 215q0 48 -25 75.5t-64 27.5
q-72 0 -118 -64q-2 -20 -2 -40q0 -61 25.5 -96.5t71.5 -35.5q49 0 80.5 37t31.5 96z" />
    <glyph glyph-name="seven.fitted" unicode="&#xe09d;" horiz-adv-x="485" 
d="M480 635l-14 -92l-318 -543h-125l324 538h-306l13 97h426z" />
    <glyph glyph-name="eight.fitted" unicode="&#xe09e;" horiz-adv-x="530" 
d="M496 489q0 -54 -37 -94t-83 -56q33 -13 66.5 -51.5t33.5 -99.5q0 -92 -69 -145.5t-164 -53.5q-93 0 -151 44t-58 126q0 68 41.5 112t95.5 61q-82 41 -82 135q0 80 63 129t154 49q88 0 139 -41.5t51 -114.5zM385 477q0 39 -23.5 61t-63.5 22t-68.5 -25.5t-28.5 -64.5
q0 -63 72 -86l24 -7l32 15q22 11 39 33t17 52zM363 183q0 36 -22.5 62t-57.5 38l-34 12l-22 -10q-36 -15 -57.5 -45t-21.5 -67q0 -42 29 -68t75 -26t78.5 30t32.5 74z" />
    <glyph glyph-name="nine.fitted" unicode="&#xe09f;" horiz-adv-x="526" 
d="M483 394q0 -92 -23.5 -174t-66.5 -134q-80 -97 -202 -97q-52 0 -96 18t-69 43l50 75q13 -13 46 -28.5t72 -15.5q61 0 107 49q22 23 39.5 65.5t21.5 82.5q-8 -8 -23 -17.5t-49 -20.5t-72 -11q-71 0 -120 45t-49 137q0 101 64 167.5t170 66.5q101 0 150.5 -72.5
t49.5 -178.5zM373 426q0 58 -25.5 94t-72.5 36q-49 0 -80 -37t-31 -96q0 -48 25 -74.5t65 -26.5q36 0 67 18t49 43q3 22 3 43z" />
    <glyph glyph-name="zero.taboldstyle" unicode="&#xe100;" horiz-adv-x="518" 
d="M474 285q0 -122 -65 -208.5t-181 -86.5q-89 0 -137 55.5t-48 146.5q0 79 27 145t84 108.5t135 42.5q90 0 137.5 -55.5t47.5 -147.5zM360 278q0 50 -19 83.5t-63 33.5q-41 0 -70 -34t-40 -76t-11 -84q0 -50 19.5 -83.5t63.5 -33.5q41 0 69.5 34t39.5 76t11 84z" />
    <glyph glyph-name="one.taboldstyle" unicode="&#xe101;" horiz-adv-x="518" 
d="M374 483l-62 -483h-118l44 341q-46 -30 -94 -38l-23 85q43 11 83 30q56 28 77 65h93z" />
    <glyph glyph-name="two.taboldstyle" unicode="&#xe102;" horiz-adv-x="518" 
d="M455 94l-12 -94h-424q10 41 27 75t41.5 61t43 43t45.5 36t75.5 49t60.5 37q30 21 30 39q0 26 -21.5 40t-56.5 14q-78 0 -142 -59l-46 75q31 30 84.5 54t116.5 24q74 0 125.5 -36t51.5 -102q0 -15 -2 -28.5t-9 -25.5t-11 -21t-16 -19t-17 -15.5t-21 -15t-19.5 -12
t-21.5 -12.5t-20 -11q-7 -4 -28 -15.5t-28.5 -15.5t-23 -13.5t-23.5 -16t-18 -16t-17 -19.5h276z" />
    <glyph glyph-name="three.taboldstyle" unicode="&#xe103;" horiz-adv-x="518" 
d="M453 330q0 -65 -43.5 -103t-87.5 -44q42 -9 75.5 -45t33.5 -98q0 -90 -79 -149q-64 -47 -157 -47q-102 0 -198 101l63 68q20 -28 55.5 -51t79.5 -23q52 0 86.5 28t34.5 78q0 90 -103 90h-53l12 91h55q49 0 80.5 25t31.5 64t-25.5 60t-71.5 21q-63 0 -122 -56l-48 72
q5 8 24.5 23.5t65.5 34t97 18.5q87 0 140.5 -42t53.5 -116z" />
    <glyph glyph-name="four.taboldstyle" unicode="&#xe104;" horiz-adv-x="518" 
d="M484 92l-13 -91h-75l-21 -153h-119l22 153h-285l13 97l314 387h138l-51 -393h77zM328 382l-230 -291h191z" />
    <glyph glyph-name="five.taboldstyle" unicode="&#xe105;" horiz-adv-x="518" 
d="M484 479l-13 -94h-239l-44 -145q25 18 89 18q28 0 56.5 -9t58 -28.5t48 -58.5t18.5 -91q0 -103 -70 -165t-171 -62q-46 0 -83 10t-62.5 29t-37.5 31t-27 31l63 68q56 -74 140 -74q56 0 94.5 34t38.5 92q0 53 -33 80t-77 27q-67 0 -106 -37l-62 32l89 312h330z" />
    <glyph glyph-name="six.taboldstyle" unicode="&#xe106;" horiz-adv-x="518" 
d="M495 578l-50 -76q-11 14 -41 28.5t-72 14.5q-59 0 -104 -47q-50 -53 -63 -153q10 11 24.5 22t48 24t69.5 13q69 0 119 -43.5t50 -135.5q0 -102 -63 -169t-171 -67q-70 0 -116.5 38t-65 93.5t-18.5 124.5q0 186 88 294q76 96 202 96q60 0 102 -19t61 -38zM361 217
q0 47 -25 74.5t-66 27.5q-62 0 -114 -65q-4 -18 -4 -40q0 -62 26 -97t71 -35q49 0 80.5 37t31.5 98z" />
    <glyph glyph-name="seven.taboldstyle" unicode="&#xe107;" horiz-adv-x="518" 
d="M499 479l-16 -93l-314 -538h-125l320 535h-303l14 96h424z" />
    <glyph glyph-name="eight.taboldstyle" unicode="&#xe108;" horiz-adv-x="518" 
d="M484 485q0 -55 -36 -93.5t-81 -51.5q13 -6 26.5 -15.5t31 -27.5t28.5 -46.5t11 -62.5q0 -92 -65.5 -145.5t-160.5 -53.5q-94 0 -149 43t-55 126q0 69 39.5 113.5t92.5 62.5q-78 37 -78 131q0 81 60.5 129.5t150.5 48.5q87 0 136 -43t49 -115zM375 477q0 39 -22 60t-62 21
t-67 -24.5t-27 -63.5q0 -31 16 -51.5t40 -28.5l36 -13l37 19q20 9 34.5 30.5t14.5 50.5zM352 182q0 72 -76 101l-32 12l-23 -10q-75 -30 -75 -112q0 -44 26 -69.5t73 -25.5q46 0 76.5 29.5t30.5 74.5z" />
    <glyph glyph-name="nine.taboldstyle" unicode="&#xe109;" horiz-adv-x="518" 
d="M477 233q0 -189 -87 -294q-79 -96 -203 -96q-53 0 -97 18t-69 41l49 77q13 -14 44.5 -28.5t74.5 -14.5q58 0 105 45q52 50 63 152q-64 -60 -150 -60q-67 0 -115.5 45.5t-48.5 136.5q0 101 62.5 167t169.5 66q103 0 152.5 -73t49.5 -182zM364 230q2 16 2 37q0 64 -27 97.5
t-71 33.5q-49 0 -81 -37t-32 -97q0 -48 26 -75.5t68 -27.5q65 0 115 69z" />
    <glyph glyph-name="zero.denominator" unicode="&#xe10a;" horiz-adv-x="387" 
d="M331 234q0 -100 -44 -171t-125 -71q-128 0 -128 154q0 100 44 171t125 71q128 0 128 -154zM249 238q0 86 -52 86q-39 0 -60 -59.5t-21 -121.5q0 -86 52 -86q39 0 60 59.5t21 121.5z" />
    <glyph glyph-name="one.denominator" unicode="&#xe10b;" horiz-adv-x="387" 
d="M265 389l-50 -389h-87l37 286q-24 -18 -72 -27l-16 64q30 6 67 25.5t53 40.5h68z" />
    <glyph glyph-name="two.denominator" unicode="&#xe10c;" horiz-adv-x="387" 
d="M327 287q0 -23 -7 -42t-25 -37t-25 -24t-31 -23q-5 -4 -21 -15.5t-24 -18t-20 -16.5t-20.5 -19.5t-15.5 -19.5h175l-10 -72h-289q15 96 138 184q4 3 15 10.5t15 11t13 10t13 10t10.5 9.5t9.5 10.5t6.5 10t5 10.5t1.5 10q0 19 -14.5 31t-41.5 12q-46 0 -92 -46l-37 56
q55 62 140 62q58 0 94.5 -28t36.5 -76z" />
    <glyph glyph-name="three.denominator" unicode="&#xe10d;" horiz-adv-x="387" 
d="M311 293q0 -39 -26.5 -62t-49.5 -28q24 -6 43 -26.5t19 -57.5q0 -57 -44.5 -92t-106.5 -35q-87 0 -132 64l47 50q35 -46 82 -46q30 0 51.5 15.5t21.5 43.5q0 50 -59 50h-39l8 63h39q30 0 48 13.5t18 35.5q0 45 -59 45q-39 0 -80 -34l-33 51q66 49 127 49q52 0 88.5 -25.5
t36.5 -73.5z" />
    <glyph glyph-name="four.denominator" unicode="&#xe10e;" horiz-adv-x="387" 
d="M331 145l-9 -67h-56l-10 -78h-84l10 78h-186l9 67l197 238h102l-30 -238h57zM212 313l-132 -168h111z" />
    <glyph glyph-name="five.denominator" unicode="&#xe10f;" horiz-adv-x="387" 
d="M319 382l-9 -69h-152l-19 -74q19 10 55 10q51 0 81.5 -33.5t30.5 -82.5q0 -66 -46 -104t-110 -38q-88 0 -135 58l42 52q12 -15 37 -29t50 -14q35 0 57 19.5t22 50.5q0 29 -17.5 44t-46.5 15q-38 0 -61 -23l-47 21l53 197h215z" />
    <glyph glyph-name="six.denominator" unicode="&#xe110;" horiz-adv-x="387" 
d="M323 357l-33 -54q-24 24 -74 24q-35 0 -62 -28q-30 -30 -34 -79q31 28 89 28q43 0 74 -26.5t31 -83.5q0 -67 -42.5 -105.5t-107.5 -38.5q-62 0 -96 42.5t-34 111.5q0 123 58 187q50 55 126 55q65 0 105 -33zM236 130q0 27 -15.5 42t-42.5 15q-20 0 -38.5 -10t-26.5 -23
q-1 -13 -1 -24q0 -30 16 -51.5t43 -21.5q30 0 47.5 21t17.5 52z" />
    <glyph glyph-name="seven.denominator" unicode="&#xe111;" horiz-adv-x="387" 
d="M335 382l-10 -71l-186 -311h-91l194 310h-185l11 72h267z" />
    <glyph glyph-name="eight.denominator" unicode="&#xe112;" horiz-adv-x="387" 
d="M325 294q0 -62 -76 -91q63 -27 63 -87q0 -58 -44.5 -90t-105.5 -32q-59 0 -97 26t-38 78q0 40 26.5 66.5t59.5 36.5q-53 24 -53 78q0 51 41 81t100 30q57 0 90.5 -25t33.5 -71zM246 285q0 47 -52 47q-23 0 -39 -14t-16 -36q0 -36 43 -47l12 -4l18 8q12 5 23 17t11 29z
M233 113q0 39 -49 54l-19 6l-14 -6q-43 -17 -43 -58q0 -23 16.5 -38t44.5 -15q29 0 46.5 16.5t17.5 40.5z" />
    <glyph glyph-name="nine.denominator" unicode="&#xe113;" horiz-adv-x="387" 
d="M35 27l33 54q24 -24 74 -24q35 0 62 28q30 30 34 79q-31 -28 -89 -28q-43 0 -74 26.5t-31 83.5q0 67 42.5 105.5t107.5 38.5q62 0 96 -42.5t34 -111.5q0 -123 -58 -187q-50 -55 -126 -55q-65 0 -105 33zM122 254q0 -27 15.5 -42t42.5 -15q20 0 38.5 10t26.5 23q1 13 1 24
q0 30 -16 51.5t-43 21.5q-30 0 -47.5 -21t-17.5 -52z" />
    <glyph glyph-name="zero.numerator" unicode="&#xe11e;" horiz-adv-x="387" 
d="M367 496q0 -100 -44 -171t-125 -71q-128 0 -128 154q0 100 44 171t125 71q128 0 128 -154zM285 500q0 86 -52 86q-39 0 -60 -59.5t-21 -121.5q0 -86 52 -86q39 0 60 59.5t21 121.5z" />
    <glyph glyph-name="one.numerator" unicode="&#xe11f;" horiz-adv-x="387" 
d="M301 651l-50 -389h-87l37 286q-24 -18 -72 -27l-16 64q30 6 67 25.5t53 40.5h68z" />
    <glyph glyph-name="two.numerator" unicode="&#xe120;" horiz-adv-x="387" 
d="M363 549q0 -23 -7 -42t-25 -37t-25 -24t-31 -23q-5 -4 -21 -15.5t-24 -18t-20 -16.5t-20.5 -19.5t-15.5 -19.5h175l-10 -72h-289q15 96 138 184q4 3 15 10.5t15 11t13 10t13 10t10.5 9.5t9.5 10.5t6.5 10t5 10.5t1.5 10q0 19 -14.5 31t-41.5 12q-46 0 -92 -46l-37 56
q55 62 140 62q58 0 94.5 -28t36.5 -76z" />
    <glyph glyph-name="three.numerator" unicode="&#xe121;" horiz-adv-x="387" 
d="M347 555q0 -39 -26.5 -62t-49.5 -28q24 -6 43 -26.5t19 -57.5q0 -57 -44.5 -92t-106.5 -35q-87 0 -132 64l47 50q35 -46 82 -46q30 0 51.5 15.5t21.5 43.5q0 50 -59 50h-39l8 63h39q30 0 48 13.5t18 35.5q0 45 -59 45q-39 0 -80 -34l-33 51q66 49 127 49q52 0 88.5 -25.5
t36.5 -73.5z" />
    <glyph glyph-name="four.numerator" unicode="&#xe122;" horiz-adv-x="387" 
d="M367 407l-9 -67h-56l-10 -78h-84l10 78h-186l9 67l197 238h102l-30 -238h57zM248 575l-132 -168h111z" />
    <glyph glyph-name="five.numerator" unicode="&#xe123;" horiz-adv-x="387" 
d="M355 644l-9 -69h-152l-19 -74q19 10 55 10q51 0 81.5 -33.5t30.5 -82.5q0 -66 -46 -104t-110 -38q-88 0 -135 58l42 52q12 -15 37 -29t50 -14q35 0 57 19.5t22 50.5q0 29 -17.5 44t-46.5 15q-38 0 -61 -23l-47 21l53 197h215z" />
    <glyph glyph-name="six.numerator" unicode="&#xe124;" horiz-adv-x="387" 
d="M359 619l-33 -54q-24 24 -74 24q-35 0 -62 -28q-30 -30 -34 -79q31 28 89 28q43 0 74 -26.5t31 -83.5q0 -67 -42.5 -105.5t-107.5 -38.5q-62 0 -96 42.5t-34 111.5q0 123 58 187q50 55 126 55q65 0 105 -33zM272 392q0 27 -15.5 42t-42.5 15q-20 0 -38.5 -10t-26.5 -23
q-1 -13 -1 -24q0 -30 16 -51.5t43 -21.5q30 0 47.5 21t17.5 52z" />
    <glyph glyph-name="seven.numerator" unicode="&#xe125;" horiz-adv-x="387" 
d="M371 644l-10 -71l-186 -311h-91l194 310h-185l11 72h267z" />
    <glyph glyph-name="eight.numerator" unicode="&#xe126;" horiz-adv-x="387" 
d="M361 556q0 -62 -76 -91q63 -27 63 -87q0 -58 -44.5 -90t-105.5 -32q-59 0 -97 26t-38 78q0 40 26.5 66.5t59.5 36.5q-53 24 -53 78q0 51 41 81t100 30q57 0 90.5 -25t33.5 -71zM282 547q0 47 -52 47q-23 0 -39 -14t-16 -36q0 -36 43 -47l12 -4l18 8q12 5 23 17t11 29z
M269 375q0 39 -49 54l-19 6l-14 -6q-43 -17 -43 -58q0 -23 16.5 -38t44.5 -15q29 0 46.5 16.5t17.5 40.5z" />
    <glyph glyph-name="nine.numerator" unicode="&#xe127;" horiz-adv-x="387" 
d="M71 289l33 54q24 -24 74 -24q35 0 62 28q30 30 34 79q-31 -28 -89 -28q-43 0 -74 26.5t-31 83.5q0 67 42.5 105.5t107.5 38.5q62 0 96 -42.5t34 -111.5q0 -123 -58 -187q-50 -55 -126 -55q-65 0 -105 33zM158 516q0 -27 15.5 -42t42.5 -15q20 0 38.5 10t26.5 23
q1 13 1 24q0 30 -16 51.5t-43 21.5q-30 0 -47.5 -21t-17.5 -52z" />
    <glyph glyph-name="guillemotleft.cap" unicode="&#xe134;" horiz-adv-x="465" 
d="M434 475l-142 -149l100 -160l-58 -41l-117 176l8 58l159 165zM244 475l-142 -149l100 -160l-58 -41l-117 176l9 58l158 165z" />
    <glyph glyph-name="guillemotright.cap" unicode="&#xe135;" horiz-adv-x="465" 
d="M444 352l-9 -59l-158 -164l-50 48l142 149l-100 160l58 41zM254 352l-8 -59l-159 -164l-50 48l142 149l-100 160l58 41z" />
    <glyph glyph-name="guilsinglleft.cap" unicode="&#xe136;" horiz-adv-x="274" 
d="M239 475l-141 -149l100 -160l-58 -41l-117 176l8 58l159 165z" />
    <glyph glyph-name="guilsinglright.cap" unicode="&#xe137;" horiz-adv-x="274" 
d="M249 352l-8 -59l-159 -164l-49 48l141 149l-100 160l58 41z" />
    <glyph glyph-name="braceleft.cap" unicode="&#xe139;" horiz-adv-x="323" 
d="M335 667l-56 -10q-21 -4 -32.5 -15t-14.5 -23t-9 -44l-24 -139q-10 -56 -30 -85t-66 -35v-4q67 -9 67 -90q0 -14 -1 -21l-14 -154q-1 -6 -1 -17q0 -20 7.5 -32.5t16 -16.5t25.5 -9l41 -12l-15 -64l-78 11q-91 13 -91 110q0 12 1 18l15 162q0 4 0.5 10t0.5 9q0 57 -45 57
h-20l13 82h20q30 0 44 24t21 69l24 144q10 60 34 91.5t78 37.5l83 10z" />
    <glyph glyph-name="braceright.cap" unicode="&#xe13a;" horiz-adv-x="323" 
d="M312 355l-13 -82h-20q-30 0 -44 -24.5t-21 -69.5l-24 -144q-10 -60 -34 -91.5t-78 -37.5l-83 -10l-6 64l56 10q21 4 32.5 15t14.5 23t9 44l24 139q10 57 30 86t66 35v4q-67 9 -67 89q0 14 1 21l14 154q1 6 1 16q0 30 -12 41.5t-37 18.5l-41 11l15 64l78 -11
q91 -13 91 -110q0 -3 -0.5 -9t-0.5 -9l-15 -161q-1 -7 -1 -19q0 -30 10.5 -43.5t34.5 -13.5h20z" />
    <glyph glyph-name="bracketleft.cap" unicode="&#xe13b;" horiz-adv-x="323" 
d="M337 729l-9 -68h-111l-89 -685h112l-9 -68h-206l106 821h206z" />
    <glyph glyph-name="bracketright.cap" unicode="&#xe13c;" horiz-adv-x="323" 
d="M308 729l-107 -821h-205l9 68h111l88 685h-111l9 68h206z" />
    <glyph glyph-name="emdash.cap" unicode="&#xe13d;" horiz-adv-x="764" 
d="M744 367l-13 -80h-691l13 80h691z" />
    <glyph glyph-name="endash.cap" unicode="&#xe13e;" horiz-adv-x="459" 
d="M438 367l-13 -80h-384l13 80h384z" />
    <glyph glyph-name="hyphen.cap" unicode="&#xe13f;" horiz-adv-x="302" 
d="M283 369l-15 -85h-228l14 85h229z" />
    <glyph glyph-name="parenleft.cap" unicode="&#xe140;" horiz-adv-x="323" 
d="M289 755l50 -50q-92 -90 -145 -206.5t-53 -248.5q0 -172 98 -307l-62 -49q-141 146 -141 361q0 293 253 500z" />
    <glyph glyph-name="parenright.cap" unicode="&#xe141;" horiz-adv-x="323" 
d="M304 394q0 -291 -253 -500l-50 51q91 89 144.5 205.5t53.5 248.5q0 104 -27 174.5t-71 133.5l61 48q142 -144 142 -361z" />
    <glyph glyph-name="exclamdown.cap" unicode="&#xe142;" horiz-adv-x="280" 
d="M242 594q0 -33 -20.5 -53t-53.5 -20q-29 0 -46 16.5t-17 45.5q0 32 20.5 52.5t53.5 20.5q29 0 46 -16.5t17 -45.5zM200 448l-40 -442h-124l75 442h89z" />
    <glyph glyph-name="questiondown.cap" unicode="&#xe143;" horiz-adv-x="423" 
d="M361 594q0 -33 -20.5 -53t-53.5 -20q-29 0 -46 16.5t-17 45.5q0 32 21 52.5t53 20.5q29 0 46 -16.5t17 -45.5zM395 78q-23 -27 -72 -52.5t-118 -25.5q-78 0 -128 42t-50 106q0 30 7.5 54t26 45t26 27.5t30.5 25.5l71 59q18 14 25 28q5 11 9 33l4 28h96l-3 -35
q-4 -49 -15 -71q-12 -23 -45 -49l-67 -53q-17 -14 -25 -21t-17.5 -23t-9.5 -33q0 -30 21 -47.5t61 -17.5q67 0 122 57z" />
    <glyph glyph-name="periodcentered.cap" unicode="&#xe22b;" horiz-adv-x="258" 
d="M209 348q0 -33 -20.5 -54t-53.5 -21q-28 0 -45 17.5t-17 46.5q0 32 20.5 53t53.5 21q29 0 45.5 -17t16.5 -46z" />
    <glyph glyph-name="caron.alt" unicode="&#xe503;" horiz-adv-x="375" 
d="M190 662l100 -2q-13 -107 -67 -180l-73 2q34 81 40 180z" />
    <glyph glyph-name="Euro.oldstyle" unicode="&#xe506;" horiz-adv-x="475" 
d="M475 415l-52 -55q-44 48 -100 48q-38 0 -66.5 -23.5t-39.5 -58.5h150l-7 -59h-160q-6 -30 -6 -51h159l-7 -59h-151q6 -37 33 -56t57 -19q55 0 105 43l50 -62q-76 -73 -175 -73q-74 0 -121.5 45t-56.5 122h-57l7 59h48q0 28 7 51h-48l7 59h57q24 71 79.5 116.5t131.5 45.5
q98 0 156 -73z" />
    <glyph glyph-name="sterling.oldstyle" unicode="&#xe508;" horiz-adv-x="475" 
d="M459 410l-58 -62q-32 54 -88 54q-40 0 -61.5 -24t-21.5 -63q0 -29 7 -50h139l-8 -59h-121q3 -16 3 -31q0 -49 -32 -87h207l-12 -88h-396l10 73l90 13q31 40 31 86l-4 34h-83l7 59h67q-8 35 -8 55q0 73 48 118q51 50 137 50q46 0 87 -22.5t60 -55.5z" />
    <glyph glyph-name="yen.oldstyle" unicode="&#xe509;" horiz-adv-x="475" 
d="M475 479l-139 -197h101l-8 -59h-132l-12 -17l-5 -34h143l-7 -59h-143l-15 -113h-105l14 113h-142l7 59h142l5 35l-7 16h-134l8 59h100l-88 197h120l66 -190l113 190h118z" />
    <glyph glyph-name="florin.oldstyle" unicode="&#xe50a;" horiz-adv-x="475" 
d="M498 503l-39 -68q-29 19 -56 19q-17 0 -29.5 -6t-20.5 -20.5t-12 -25t-11 -32.5l-17 -54h110l-8 -60h-120l-46 -154q-27 -93 -69 -135q-45 -45 -111 -45q-59 0 -95 32l42 78q27 -17 53 -17q45 0 72 91l44 150h-98l8 60h108l24 79q26 83 68 115q40 30 100 30q55 0 103 -37
z" />
    <glyph glyph-name="perthousand.oldstyle" unicode="&#xe900;" horiz-adv-x="1025" 
d="M986 168q0 -73 -43.5 -126t-113.5 -53q-56 0 -88 35t-32 96q0 73 43.5 126t113.5 53q56 0 88 -35t32 -96zM679 168q0 -73 -43.5 -126t-114.5 -53q-56 0 -88 35t-32 96q0 73 43.5 126t114.5 53q56 0 88 -35t32 -96zM545 459l-324 -472l-48 34l323 472zM316 359
q0 -72 -43.5 -125t-113.5 -53q-56 0 -88 34.5t-32 96.5q0 72 43.5 125t113.5 53q56 0 88 -34.5t32 -96.5zM906 162q0 66 -47 66q-33 0 -51.5 -32.5t-18.5 -69.5q0 -66 47 -66q33 0 51.5 32.5t18.5 69.5zM599 162q0 66 -48 66q-32 0 -51 -33t-19 -69q0 -66 48 -66q32 0 51 33
t19 69zM236 354q0 66 -47 66q-33 0 -51.5 -32.5t-18.5 -70.5q0 -66 47 -66q33 0 51.5 32.5t18.5 70.5z" />
    <glyph glyph-name="commaaccent" unicode="&#xf6c3;" horiz-adv-x="375" 
d="M145 -45l104 -4q-12 -53 -36 -87t-71 -62l-63 39q52 42 66 114z" />
    <glyph glyph-name="one.fitted" unicode="&#xf6dc;" horiz-adv-x="356" 
d="M306 636l-83 -636h-118l66 495q-46 -28 -97 -39l-22 85q46 12 84 31q56 26 78 64h92z" />
    <glyph glyph-name="dollar.oldstyle" unicode="&#xf724;" horiz-adv-x="475" 
d="M438 410l-53 -63q-35 40 -88 52l-15 -111l35 -15q93 -42 93 -123q0 -67 -55 -112q-45 -37 -112 -37l-11 -79h-63l12 79q-45 5 -85.5 27t-63.5 54l58 64q46 -51 106 -60l15 117l-37 16q-88 39 -88 121q0 72 64 115q42 28 100 28l10 67h62l-9 -70q35 -4 70.5 -25t54.5 -45z
M240 403q-26 -2 -43 -14t-17 -34q0 -6 1 -11.5t3.5 -9.5t4 -6.5t6.5 -6t6 -4.5t7 -4l7 -3l12 -6zM315 135q0 14 -8.5 25t-16.5 16t-23 12l-14 -106q28 2 45 16.5t17 36.5z" />
    <glyph glyph-name="zero.oldstyle" unicode="&#xf730;" horiz-adv-x="511" 
d="M471 285q0 -122 -65 -208.5t-181 -86.5q-89 0 -137 55.5t-48 146.5q0 79 27 145t84 108.5t135 42.5q90 0 137.5 -55.5t47.5 -147.5zM357 278q0 50 -19 83.5t-63 33.5q-41 0 -70 -34t-40 -76t-11 -84q0 -50 19.5 -83.5t63.5 -33.5q41 0 69.5 34t39.5 76t11 84z" />
    <glyph glyph-name="one.oldstyle" unicode="&#xf731;" horiz-adv-x="351" 
d="M293 483l-62 -483h-118l44 341q-46 -30 -94 -38l-23 85q43 11 83 30q56 28 77 65h93z" />
    <glyph glyph-name="two.oldstyle" unicode="&#xf732;" horiz-adv-x="498" 
d="M446 94l-12 -94h-424q10 41 27 75t41.5 61t43 43t45.5 36t75.5 49t60.5 37q30 21 30 39q0 26 -21.5 40t-56.5 14q-78 0 -142 -59l-46 75q31 30 84.5 54t116.5 24q74 0 125.5 -36t51.5 -102q0 -15 -2 -28.5t-9 -25.5t-11 -21t-16 -19t-17 -15.5t-21 -15t-19.5 -12
t-21.5 -12.5t-20 -11q-7 -4 -28 -15.5t-28.5 -15.5t-23 -13.5t-23.5 -16t-18 -16t-17 -19.5h276z" />
    <glyph glyph-name="three.oldstyle" unicode="&#xf733;" horiz-adv-x="508" 
d="M448 330q0 -65 -43.5 -103t-87.5 -44q42 -9 75.5 -45t33.5 -98q0 -90 -79 -149q-64 -47 -157 -47q-102 0 -198 101l63 68q20 -28 55.5 -51t79.5 -23q52 0 86.5 28t34.5 78q0 90 -103 90h-53l12 91h55q49 0 80.5 25t31.5 64t-25.5 60t-71.5 21q-63 0 -122 -56l-48 72
q5 8 24.5 23.5t65.5 34t97 18.5q87 0 140.5 -42t53.5 -116z" />
    <glyph glyph-name="four.oldstyle" unicode="&#xf734;" horiz-adv-x="518" 
d="M488 92l-13 -91h-75l-21 -153h-119l22 153h-285l13 97l314 387h138l-51 -393h77zM332 382l-230 -291h191z" />
    <glyph glyph-name="five.oldstyle" unicode="&#xf735;" horiz-adv-x="518" 
d="M484 479l-13 -94h-239l-44 -145q25 18 89 18q28 0 56.5 -9t58 -28.5t48 -58.5t18.5 -91q0 -103 -70 -165t-171 -62q-46 0 -83 10t-62.5 29t-37.5 31t-27 31l63 68q56 -74 140 -74q56 0 94.5 34t38.5 92q0 53 -33 80t-77 27q-67 0 -106 -37l-62 32l89 312h330z" />
    <glyph glyph-name="six.oldstyle" unicode="&#xf736;" horiz-adv-x="518" 
d="M495 578l-50 -76q-11 14 -41 28.5t-72 14.5q-59 0 -104 -47q-50 -53 -63 -153q10 11 24.5 22t48 24t69.5 13q69 0 119 -43.5t50 -135.5q0 -102 -63 -169t-171 -67q-70 0 -116.5 38t-65 93.5t-18.5 124.5q0 186 88 294q76 96 202 96q60 0 102 -19t61 -38zM361 217
q0 47 -25 74.5t-66 27.5q-62 0 -114 -65q-4 -18 -4 -40q0 -62 26 -97t71 -35q49 0 80.5 37t31.5 98z" />
    <glyph glyph-name="seven.oldstyle" unicode="&#xf737;" horiz-adv-x="510" 
d="M495 479l-16 -93l-314 -538h-125l320 535h-303l14 96h424z" />
    <glyph glyph-name="eight.oldstyle" unicode="&#xf738;" horiz-adv-x="520" 
d="M485 485q0 -55 -36 -93.5t-81 -51.5q13 -6 26.5 -15.5t31 -27.5t28.5 -46.5t11 -62.5q0 -92 -65.5 -145.5t-160.5 -53.5q-94 0 -149 43t-55 126q0 69 39.5 113.5t92.5 62.5q-78 37 -78 131q0 81 60.5 129.5t150.5 48.5q87 0 136 -43t49 -115zM376 477q0 39 -22 60t-62 21
t-67 -24.5t-27 -63.5q0 -31 16 -51.5t40 -28.5l36 -13l37 19q20 9 34.5 30.5t14.5 50.5zM353 182q0 72 -76 101l-32 12l-23 -10q-75 -30 -75 -112q0 -44 26 -69.5t73 -25.5q46 0 76.5 29.5t30.5 74.5z" />
    <glyph glyph-name="nine.oldstyle" unicode="&#xf739;" horiz-adv-x="520" 
d="M478 233q0 -189 -87 -294q-79 -96 -203 -96q-53 0 -97 18t-69 41l49 77q13 -14 44.5 -28.5t74.5 -14.5q58 0 105 45q52 50 63 152q-64 -60 -150 -60q-67 0 -115.5 45.5t-48.5 136.5q0 101 62.5 167t169.5 66q103 0 152.5 -73t49.5 -182zM365 230q2 16 2 37q0 64 -27 97.5
t-71 33.5q-49 0 -81 -37t-32 -97q0 -48 26 -75.5t68 -27.5q65 0 115 69z" />
    <glyph glyph-name="cent.oldstyle" unicode="&#xf7a2;" horiz-adv-x="475" 
d="M445 370l-55 -60q-3 5 -8 12.5t-22.5 21.5t-36.5 18l-32 -242q26 0 49 17t32 31l48 -68q-16 -22 -52.5 -44t-87.5 -27l-10 -77h-68l11 77q-61 9 -106.5 56.5t-45.5 131.5q0 102 60 167t147 68l9 73h68l-10 -76q65 -12 110 -79zM257 363q-36 -6 -63.5 -44t-27.5 -96
q0 -48 19 -71.5t41 -28.5z" />
    <glyph glyph-name="numbersign.oldstyle" unicode="&#xfe5f;" horiz-adv-x="441" 
d="M448 349l-23 -67h-76l-31 -95h79l-23 -67h-77l-38 -120h-69l38 120h-97l-38 -120h-69l38 120h-69l23 67h68l30 95h-72l23 67h71l37 120h69l-38 -120h98l37 120h69l-38 -120h78zM280 282h-97l-31 -95h98z" />
    <glyph glyph-name="percent.oldstyle" unicode="&#xfe6a;" horiz-adv-x="718" 
d="M679 168q0 -73 -43.5 -126t-114.5 -53q-56 0 -88 35t-32 96q0 73 43.5 126t114.5 53q56 0 88 -35t32 -96zM545 459l-324 -472l-48 34l323 472zM316 359q0 -72 -43.5 -125t-113.5 -53q-56 0 -88 34.5t-32 96.5q0 72 43.5 125t113.5 53q56 0 88 -34.5t32 -96.5zM599 162
q0 66 -48 66q-32 0 -51 -33t-19 -69q0 -66 48 -66q32 0 51 33t19 69zM236 354q0 66 -47 66q-33 0 -51.5 -32.5t-18.5 -70.5q0 -66 47 -66q33 0 51.5 32.5t18.5 70.5z" />
    </font>
</defs>
</svg>
